<mxfile host="app.diagrams.net" modified="2024-01-15T02:23:27.782Z" agent="Mozilla/5.0 (Macintosh; Intel Mac OS X 10_15_7) AppleWebKit/537.36 (KHTML, like Gecko) Chrome/120.0.0.0 Safari/537.36" etag="LKYb5g6kpiebYHZWfLi_" version="22.1.18" type="device">
  <diagram name="Page-1" id="bms3dUjhPaOZfERTGoc-">
    <mxGraphModel dx="1374" dy="1219" grid="1" gridSize="10" guides="1" tooltips="1" connect="1" arrows="1" fold="1" page="1" pageScale="1" pageWidth="850" pageHeight="1100" background="none" math="0" shadow="0">
      <root>
        <mxCell id="0" />
        <mxCell id="1" parent="0" />
        <mxCell id="zmiHmm3sUyLOldAqRDe1-9" style="edgeStyle=orthogonalEdgeStyle;rounded=0;orthogonalLoop=1;jettySize=auto;html=1;entryX=0;entryY=0.5;entryDx=0;entryDy=0;" edge="1" parent="1" source="zmiHmm3sUyLOldAqRDe1-1" target="zmiHmm3sUyLOldAqRDe1-4">
          <mxGeometry relative="1" as="geometry" />
        </mxCell>
        <mxCell id="zmiHmm3sUyLOldAqRDe1-1" value="" style="aspect=fixed;sketch=0;html=1;dashed=0;whitespace=wrap;fillColor=#2875E2;strokeColor=#ffffff;points=[[0.005,0.63,0],[0.1,0.2,0],[0.9,0.2,0],[0.5,0,0],[0.995,0.63,0],[0.72,0.99,0],[0.5,1,0],[0.28,0.99,0]];shape=mxgraph.kubernetes.icon2;prIcon=cronjob" vertex="1" parent="1">
          <mxGeometry x="126.25" y="340" width="93.75" height="90" as="geometry" />
        </mxCell>
        <mxCell id="zmiHmm3sUyLOldAqRDe1-3" value="" style="sketch=0;outlineConnect=0;fontColor=#232F3E;gradientColor=none;fillColor=#C925D1;strokeColor=none;dashed=0;verticalLabelPosition=bottom;verticalAlign=top;align=center;html=1;fontSize=12;fontStyle=0;aspect=fixed;pointerEvents=1;shape=mxgraph.aws4.rds_mysql_instance;" vertex="1" parent="1">
          <mxGeometry x="331.5" y="520" width="77" height="78" as="geometry" />
        </mxCell>
        <mxCell id="zmiHmm3sUyLOldAqRDe1-8" value="" style="edgeStyle=orthogonalEdgeStyle;rounded=0;orthogonalLoop=1;jettySize=auto;html=1;" edge="1" parent="1" source="zmiHmm3sUyLOldAqRDe1-4" target="zmiHmm3sUyLOldAqRDe1-3">
          <mxGeometry relative="1" as="geometry" />
        </mxCell>
        <mxCell id="zmiHmm3sUyLOldAqRDe1-4" value="" style="shape=image;verticalLabelPosition=bottom;labelBackgroundColor=default;verticalAlign=top;aspect=fixed;imageAspect=0;image=data:image/png,iVBORw0KGgoAAAANSUhEUgAAAOEAAADhCAMAAAAJbSJIAAAA0lBMVEX///8kS1oAOUsRQlKYpav7/P0ANUgIP1C1vsIlTVzr7u8bRlartrsAO00APE0ANEfO1NcAr6xddX/Ey88zVWNNaHMlRVVexsWCkprw8vPa3+G9xclJwb/f8vE9XGmwur4eZm9uycklQVLj5+htgYqirrNaxcRieIIAtLBJZXF4ipKLmqHJ0NMxvrwAqqcLvLcUiYw4uLUAKT8yq6uT19YAYWp+0c9MsrNts7U2lJcmVmOBz8/Z9PJp0c86x8QtaHIgc3u04eE+e4MXkpUAm50AHTbmEvMTAAAKs0lEQVR4nO2caXvauBpAjQQ2Qdgm7NuQEiABA01vmra36W1mpp35/3/parPxIslLmGmS5z2fUvCio12vRC0LAAAAAAAAAAAAAAAAAAAAAAAAAAAAAAAAAAAAAAAAAAAAAAAAAAAAAAAAAAAA+KdpzH/71Un4h5kfj29asXFzPB7v3rLiaE7L8Lh9u4pUkBre3b1ZxeWcGT7dUd6m4vLmZj5/+jik1LC9zr3+ofEvJOqcUEFq+PG6xhh+yi3Fz/PR61Jc3oyoYSj47u4yR/Hz8ebmVSl+G42o4ZdhKLi9fG9U/Hyc0zJfvh7Fz2nBrVnxvx++fv1CC/ElKE6b+/Wuf1G7WHTH7Y7mom+jJVVMCl4aFL9vH6+Hwy/0nqRip52hOTtMJ/rkbdLXXzV7nVVhu0ZzjZCDCWEJJwQ7rt9tK173bblcpgSZoVZxuT0eH4c1prhMKNZtJ4vr2mTdbqlTeJ+93nORu9gfCvh11sjhbnGIY9+mS5IJLiPBP9h4uBVc/k/14O93d09PT7/XmOIyoVjH6fdFr/V3M5Uh0lyPXW+szpST3w5l9OTdaDDVClJDwTvOp/V6fduNGDB2nx4ff398fKQXX39ZJhS1huy17kW2XHSGDOyPDa281bVPfrR+UkjsA39/uvRPVg7L74/SsHadwKYghGxb/kH/ROIbdv31D3bvqaBNhhQ7KGNIHck0fUNIO/IjDnIGwb6+2Qc75EWSzuLUHB94GY4uZC398PPnzw+Cnx++9macXsShc/iL8fHHkAp+p3fGarIwdOwYCHn49NqB2jBxg+uc8snvqQVvw5zBtGc5dUyNQ4CcyPz0+cOIGd7IUnzcnprhXPn43+7ujk9/XTPBUUJQGDrN+MWTVW9z64avxV2V4UX8k9a0Oe6jUNJXleKkL7/GTj3TcW5w+DIvoTg6KV5cyr70/X+Ugkzx+FUIjm4SfZHCUNDsy9e6mxxDwWoc1kKcbYsT2eCIXVcmr27LUsSxisoH/HlM0SRIFWkJDn/cjEbzZGerNaRZ68u2mMh0nSF1XIhywvv0N6Ggs9N1tquauOK+ffrsgc1KI8Xa5dYoSBXpcEGnbSlBk6HVsRUp1htaVlco+ulC7Ivk2xn12GN3mHWwiRr+wNI7jxTfb42C9BnH+TwjaDS0mq5QTDzGYChVnKvkp6H4lfomyY643VTWUEW2/o0UzYIsKDef/5n+0GhoDXiKUTxnjYYd/iW5TXy4Efnk614SPtjfZD574Ct8qkgdh0M3Z0LBFDOCOYY9njgn1jjMhtaCZAp9JZozyqY/nTzFZw9HHqV5947OaH4EQZVVg9nQ4i0Rj+PpMBpucKZvEvUAZ6YOxXg4slgim5Ueqz0gz5Anj8TjI2bDjscHmFi17omRXndDLkyRjfZVBfMMA24YH/TNhiv+rRtbKfRFN6pbBebzwA0rCxYzjM/cShqKlkzyo2R6vm2rV1Er1/C2ZBlO3VQtFa3Qz+0FTTxsj88ITOQYirlUvJcwGzb5VA9F08uW/+witNRR0NVsU6/X273c6ILZsMV1nHhHbzYMxAAa/XsjjKu3QjWztccWNBg7HnLW4WpmtWekJ/ZmQ7G2SiTQaCi+JIvoA1FJaxVFdKly3HiogC7URfo7PnW+TzcIo+Gk7Kxtz3PkNJEVF2en4s+hR5xaGpdP6flQhUoZ7sRgnVjxmAx7YqpuRx1Nh2eRVyRGVZTAjsqOBcFwuCybVTDk0312T8HVk3UlXk520SeiGdpnDNEOZAFiuz/eNGfN+hqLKktntWUN27KyF1wBW6uuqNPxRb4YThfZi6syEJlO0PjUh3YCvvb2m1ODYTps2Ojsw8gCTgVq1IarqyiQ5sZaHa/mpOKUVMFaJMrtJjvM1oC5udxFbUjW9Rj7dd/2wqgL6adukIbxG4IBtqM4rxOfHjjZdvwcrmQUrJ35hscjRMevNKzx4GVErCt2Fuk2JGNtietjN6DE4M7H+/SCuDIT2ZGpOq5Z2AFpDDUkorRJQzUYJbK3wV+baQNVWfOctNWPa6PShsTx14opkd6Q3jBOto8Jv9bTRFDLIpbSicVqHOFf2NBF+Fa1I6Q2JIQ4nj1op2v0eQ3HIqm6r0WF0bbDCNkbd7SLAWlIYrBtwM1BMejJWpoToCmKmD3oH7Y39DSxlnIQidIHVcwz7xSip8l2fVU48PAB0V/Qsg2GsYy5Fc1Zu0VaylDM+s4zLeVFZHwWH33zDUVOpAKCMUoZijCP9lml4M9yTesww4ifaCl1MZfUzZZLGYrOoXIUKgF/r2+6old0XirHb81jShm2HXOVL4HsKk2X8BBKEcOZWNhr5lqlDKfiUecY8vmEhqR3MxPwiEShtYVYmNuakwplDC3R/51j6s2jeOcyFJMHktoalZQzFBMNt+DVJkQZGhdixQ1lB4GUlaucoYi9uWeopqIdGvOqcDu05KpHPbqWM8yEpqrjGZqOoHBfaoUbh8rhtZxhGF48QzixS/I6raLjIUfskvnatUVhw6l/rkKUa3XDFYtic5pEwhRdV0lDkfU19/lzUzHyGMbWacF5qSTgnY2b/aKsodwgNTagYlzwlqNbHob9dmHDMFiRWROVNZQdc6F6al5mydCkbqNiKveaC0cTN546y0obNsQsEOfvzmzu16bIakNs1KVDYyFio7JMvFScq8iccCptaHVE5jp5Mxt6HSamTldmunqpIg98lDEUp2kytau8oVXnKau55lJc8SJSxL5OiB7eUSkOwmhMmai+nHGlYoEVDMNALl4YFhlTeY1pMdmSR5gWaYvpBV+IljWU4Ukv2TaqGFpdOUlC2tBpU+556FqZ4CAqPLHr8US1Ahm1dEoayrVw6pxIJcNQsebulA2tJc9mxk/uKZnJs3bYHXeEZKsp9xP8g2nfQtNN8xEo1dlUM7QCGYQkaJd5WXSskeDcUbMTnrjFnl8bDBYoPDfuN6vsH4r9wGTNqWhoXfkyaezcensa1rLWoR4dTcX9AsGAyeAUsD1tJxDUq7RDKqdcXvFTXwZWCy9Kj+PZuL/bLS48241C0gV+uMWZkcQmN2+XfDOqiqE4SlFzY3lb2ZDtSCb2p0l8R6fm4OKh8ebOP/2mgTh+VzTuKoYyjhyf0T/DkPVdXir7w1TqwkIaWu1137URst1+0AzzX224v0cI3ev3vzx+3P/vU/42/man/yvHJZoDO/2TEoLtRaUNuEmrlWi4B+Uaf7JqtVorfQunT+GcPlml/l06XVdrjDyHbTti7LjIH2yK/6bICF/jnyV0+Xxanav6fhyM95uZ9vcZ5eHRWft8z3t58E7jPAH2FwqL82pioG8E1suf9/zVC4N3pWc7NPAS4Tuf/svoSivTNYQAeKgtduLsVRK4nn7o5DvAiuDga2LsJX8GkPxSzHn/1QSdm70ICasneHse5VFvJr0WGnI+63azNbVxKzZaznNi4JcxuZCRAH+drKqTulgwklc/n2mEx2cJ6u/lIf3JtN2VMQJSe+UjBWMfhkJq2EM2xti1vXAx5phila+H6cJVraBZ1dVv2bwymn3F/1pA7MEZV2G/nE7gISeK8RBCV9HBW/LjTNvBoObZPnL6g2Bz7l/kAAAAAAAAAAAAAAAAAAAAAAAAAAAAAAAAAAAAAAAAAAAAAAAAAAAAAAAAAOfn/2uKysj2xKbQAAAAAElFTkSuQmCC;" vertex="1" parent="1">
          <mxGeometry x="330" y="345" width="80" height="80" as="geometry" />
        </mxCell>
        <mxCell id="zmiHmm3sUyLOldAqRDe1-5" value="" style="shape=image;verticalLabelPosition=bottom;labelBackgroundColor=default;verticalAlign=top;aspect=fixed;imageAspect=0;image=data:image/png,iVBORw0KGgoAAAANSUhEUgAAAgAAAAIACAYAAAD0eNT6AAAABGdBTUEAALGPC/xhBQAAACBjSFJNAAB6JgAAgIQAAPoAAACA6AAAdTAAAOpgAAA6mAAAF3CculE8AAAAUGVYSWZNTQAqAAAACAACARIAAwAAAAEAAQAAh2kABAAAAAEAAAAmAAAAAAADoAEAAwAAAAEAAQAAoAIABAAAAAEAAAIAoAMABAAAAAEAAAIAAAAAABklm5sAAAIyaVRYdFhNTDpjb20uYWRvYmUueG1wAAAAAAA8eDp4bXBtZXRhIHhtbG5zOng9ImFkb2JlOm5zOm1ldGEvIiB4OnhtcHRrPSJYTVAgQ29yZSA2LjAuMCI+CiAgIDxyZGY6UkRGIHhtbG5zOnJkZj0iaHR0cDovL3d3dy53My5vcmcvMTk5OS8wMi8yMi1yZGYtc3ludGF4LW5zIyI+CiAgICAgIDxyZGY6RGVzY3JpcHRpb24gcmRmOmFib3V0PSIiCiAgICAgICAgICAgIHhtbG5zOmV4aWY9Imh0dHA6Ly9ucy5hZG9iZS5jb20vZXhpZi8xLjAvIgogICAgICAgICAgICB4bWxuczp0aWZmPSJodHRwOi8vbnMuYWRvYmUuY29tL3RpZmYvMS4wLyI+CiAgICAgICAgIDxleGlmOlBpeGVsWURpbWVuc2lvbj41MTI8L2V4aWY6UGl4ZWxZRGltZW5zaW9uPgogICAgICAgICA8ZXhpZjpQaXhlbFhEaW1lbnNpb24+NTEyPC9leGlmOlBpeGVsWERpbWVuc2lvbj4KICAgICAgICAgPGV4aWY6Q29sb3JTcGFjZT4xPC9leGlmOkNvbG9yU3BhY2U+CiAgICAgICAgIDx0aWZmOk9yaWVudGF0aW9uPjE8L3RpZmY6T3JpZW50YXRpb24+CiAgICAgIDwvcmRmOkRlc2NyaXB0aW9uPgogICA8L3JkZjpSREY+CjwveDp4bXBtZXRhPgpqckJFAABAAElEQVR4Ae2dBZxU1dvHH2CXJZfeZekGKenulm4QCwzERlExXkX5G6AipVISgighSHd3iYSUdHcttQssvOcZHZxdZndmzrn3zo3f+XzOzsy99zzxPbNzn3syGTkzpRNu1xK5sshF/83ZxGtakTOKjAQCIGB9AveFC2dF3inyJJEniHxHZCNSMqGkpchPilxV5EiRQ0RGAgFfBPh7e0Hk8yKfEZm/v9tFXifyPpE1S/wldUrKJBztKHIXkauJjH9GAQEJBBxE4G/ha3uR+QdVz5RdCJ8sMj9kIIGAlgQOCmFzRB4rMgcFSskJAUBBQeg9kTkST6VEC4VBAASsTuCacKCmyMo/nomA4Cf99SLnT+Q8DoOAVgQ2CkEDRP5NZG41CDjZOQCIEDT6ify0yCkCJoMCIAACdiVwSDhWQuQYHRxcJGQ21EEuRIJAYgS2iRPvirw4sQsSO548sRMWP/6CsH+vyN1Exs3f4pUJ80FAYwIFhLzuGstkcfVFxs1fB7AQmSSBMuIsB54/iZw5ySsTnLRbAJBB+DdV5JEic58/EgiAAAh4I9DF20HFY48rlkdxEFAhwK3dO0Su4q8QOwUAHNVvFpkH+SCBAAiAQFIEyomTWv/+lU9KIc6BgAEEcgodK0R+zh9ddhkJz00g80XO7o/TuAYEQMDxBEKXrt7+cc48eW9pRaJCyTz5r1+L1koc5ICALIEwUXCUyNwi/m1SQuwQABQXDi4ROUtSjuIcCIAACLgJhISEUlTuPH0omXbjoHPnyUt7duk9w9DtAV5BIEkC/MXmGQI8Bu7rxK7UugksMT16Hc8tBC8QGTd/vQhDLgjYkECJ0mUoeXJtf/5KluZeBSQQMBWB/sKaTolZpO1/QGJa9DmeUoidJjIHAUggAAIg4DeB5q20HyrUTAeZfjuEC0HAOwFuCRgnstfo1MoBAEc2FUVGAgEQAAG/CeTJm586PdHN7+v9vbBKtVpUvVY9fy/HdSBgFAFeAO8XkdMmVGjVAICX2HwjoTP4DAIgAAJJEUiXLj0NHTmRUqbkcVLap68GjaRcufNqLxgSQUCNAO95ww/N8ZIVA4BQ4cEPIms3eiceEnwAARCwI4ECBYvQr78voqKPlNDNvSxZs9GkGYupUtUauumAYBCQJNBDlHvUs6wVb6KvCAe+83QC70EABEAgIQEe5Jcla4Trht+sZTtq2aYTpQgxbuLT8iXzaea0SbRt6ya6cP483b1r1EaECUngMwg8ILBcvHvQT2W1AIAH/u0XOc8DdxTepEiRgspVqEL1GjWl8hWrUmT2KPGDkY14ihASCIAACIAACHgSeO7JNrR21TLPQ0rvo3IVpPLVGlGpinUoW2RuCs+Yle7fv0cXzp6gE0f20abVc2n7pmV0OzZGSU+CwrwZ1ho+ZrUAoKuwmbdBVE71Gjalt97rQ4UKF1OWBQEgAAIgAAL2JnBg/15q0aCKuEFLbbwXD06OPIWoQ7fe4ubfON5xbx+uR1+m38Z9TSvm/0r37sV5uyTQY7NEgVZcyGoBAEct1dlw2ZQ6TRrq9+1watzU5b+sGJQDARAAARBwEIE+7/ekyRPVnz8bt3mOOr/wIaVIEVh31MG9f9KgT56nq5fPq1K/JwTkE/m4lQKAgsJgbv6XtjlT5iw0euIMKl6itBCDBAIgAAIgAAK+CcTdvUvVyhWiq1cu+744kSuSiVUnu73Rj+o8Jr9nFHcNfP3BU3T6xMFEtPh9+B1x5TdWmgXQVhgsffPnfv0hw8fj5u/39wMXggAIgAAIMIGtWzYo3fxZRrtn3la6+bOMrJG5qNdnP1Ha9Bn5o0rqyIWtFADUVfG2l+jvr1gFU3NUGKIsCIAACDiRwPKlC5Xc5r7+Fp1fVZLhLhwRlYde6j3Y/VH2lXeuzGiVAIA7S3jkolTKnScfPdntRamyKAQCIAACIOBsAtv+2CQNgFufH+/+f2LfKekG7Id0l65Yl8pVbfTQ8QAO8L2/plUCgALC2HQBOBfv0pdef4dCQ3kGIRIIgAAIgAAI+E+AR/3/vXeX/wUSXFm7SWeKiMqb4Kj6xw7d3hVBhdItvJJSaXUX/JbAyxhKJY6+GjRuLlUWhUAABEAABJxN4OSJY3T9+jVpCFXqtJQum1TBnHmLUMFiZZO6xNe5IlYJALgFQCqVr1SFwjMoD5iQ0o1CIAACIAAC1iZw+tQJaQfSZ8hChUtUkC7vq2A5sYiQQipklQAgg6yTvP43EgiAAAiAAAjIELh+LVqmmKtMVO4ClDx5CunyvgoWLaG0IW6kVQKA9L5AJHY+IjIqsVM4DgIgAAIgAAJJErgWLR8AZMwckaRs1ZOZsind39JZJQDg/YylUni4dOOBlD4UAgEQAAEQsA+BmBj5dfjTpNX3/qMYYFgmALDPtwmegAAIgAAIWIiA/Nr/Gs7888pLceO6FFZpAfDqPA6CAAiAAAiAAAjIEUAAIMcNpUAABEAABEDA0gQQAFi6+mA8CIAACIAACMgRQAAgxw2lQAAEQAAEQMDSBBAAWLr6YDwIgAAIgAAIyBFAACDHDaVAAARAAARAwNIEEABYuvpgPAiAAAiAAAjIEUAAIMcNpUAABEAABEDA0gQQAFi6+mA8CIAACIAACMgRQAAgxw2lQAAEQAAEQMDSBBAAWLr6YDwIgAAIgAAIyBFAACDHDaVAAARAAARAwNIEEABYuvpgPAiAAAiAAAjIEUAAIMcNpUAABEAABEDA0gQQAFi6+mA8CIAACIAACMgRQAAgxw2lQAAEQAAEQMDSBBAAWLr6YDwIgAAIgAAIyBFAACDHDaVAAARAAARAwNIEEABYuvpgPAiAAAiAAAjIEUAAIMcNpUAABEAABEDA0gQQAFi6+mA8CIAACIAACMgRQAAgxw2lQAAEQAAEQMDSBBAAWLr6YDwIgAAIgAAIyBFAACDHDaVAAARAAARAwNIEEABYuvpgPAiAAAiAAAjIEUAAIMcNpUAABEAABEDA0gQQAFi6+mA8CIAACIAACMgRQAAgxw2lQAAEQAAEQMDSBBAAWLr6YDwIgAAIgAAIyBFAACDHDaVAAARAAARAwNIEEABYuvpgPAiAAAiAAAjIEUAAIMcNpUAABEAABEDA0gQQAFi6+mA8CIAACIAACMgRCJEr5nepMHFlYZGzi5zu35xGvAaaSgRawH391i0bKDRlSvdHvIIACIAACOhIIKX4vU2dJi2lD89AGTJkpLz5C1K6dOl11AjRsgS0DgAKCEPqi1xP5Moi5xU5qK0Mc2dNI85IIAACIAACwSEQERlFxUs+SpWr1aQq1WrTIyVKBccQaI1HQIsAIFxI7CLy0yJXjScdH0AABEAABBxP4NzZ08R5xdIFLhb5Cxam1u0ep9btH6fI7DkczydYAFSezrMIoz8R+bDIw0TGzV9AQAIBEAABEEiawOGD+2ngV32pQfVHqXfPF+nIoQNJF8BZXQjIBABchp/294ncR+TMIiOBAAiAAAiAQEAE7ty5TTOnT6LmDarQ5316043r1wMqj4vVCAQaABQR6jaI/JPI3AKABAIgAAIgAAJKBO7evUMTxg6n5g0r08Z1q5VkobD/BAIJALiff4vIFf0XjytBAARAAARAwD8Cp0+eoGefaEXfD+pP9+7d868QrpIm4G8A0FtomCgy5nJIo0ZBEAABEAABXwTi4uJo6Ldf0Gvdn6SYmFu+Lsd5BQK+AgA+zwP8+inoQFEQAAEQAAEQCIjA0kVzqfsz7TEuICBqgV3sKwD4WojrEZhIXA0CIAACIAAC6gQ2rV9DLz/fmW7fjlUXBgkPEUgqAHhPXP3WQyVwAARAAARAAAQMIsCDAnmq4P379w3S6Bw1iQUAdQWCz5yDAZ6CAAiAAAiYlcD8Ob/T2JFDzWqeZe3yFgDwuv2/ipzCsl7BcBAAARAAAVsR+LZ/X9r2xyZb+RRsZ7wFAIOFUZHBNgz6QQAEQAAEQMBNgNcKeK/XSxgP4AaiwWvCAKChkNlRA7kQAQIgAAIgAAKaEuAlg8f9+IOmMp0szHMzoGQCxLdaw0iePDnlL1CIIiIiKSpHTkqTRmY3YK2tgjwQAAEQAAE9CMTGxtK5c2fpzOmTdPjQIc2f2IcP/Zo6dH6aMmXGYrSq9ecZALQSwkqqCnSXr1i5KnXq/BQ1atKUsmWLcB/GKwiAAAiAgEMIXL9+jZYvXUy/T59CC+bN1mQk/80bN+in0T9Qz3c+cghF/dz07AJ4Xws1BQsVoXE/T6VZc5fSE091xc1fC6iQAQIgAAIWJJAuXXpq0aotjflpEs1btIqqVK2hiRcTx40kDgSQ1Ai4A4ASQkwlNVFE9Ro0clVy4ybNVEWhPAiAAAiAgI0IlClbnqbPWki93v1Q2atr16Jp0fyZynKcLsAdADyjCqLLk11pwi/TKTw8XFUUyoMACIAACNiQQLJkyehtEQB80X+gsnczfuPZ6kgqBNwBQDsVIdWq16J+Xw8mHvCHBAIgAAIgAAJJEej23Iv0fPeXk7rE57lNG9bQ1SuXfV6HCxInwHfsvCIXSPySpM/wE/+I0RMoNDQ06QtxFgRAAARAAAT+JdCnbz8qUbK0NA/eLnjT+tXS5VGQiAOAOiogXn7tLcqaNZuKCJQFARAAARBwGIGQkBD6qI/aivMbEAAofWs4AHhUVkJ4hgzUvcerssVRDgRAAARAwMEEatdtQBUqVpYm8PeeXdJlUfCfFoCisiAaNHyMUqfGwj6y/FAOBEAABJxOoHmLNtIIDh3cL10WBf8JAArKgmjY+DHZoigHAiAAAiAAAtToMflp4xcvnKMb16+DoiQB7gLIJFmWihYtLlsU5UAABEAABECA8uUrQGFhqaRJREdflS7r9IIcAKSThRAZyTsHI4EACIAACICAHAFeGyAiUn4D2hs3rskpRinXLIDUshwyZc4sWxTlQAAEQAAEQMBFILPCxj63bt4ERUkC3ALAuwBKJY7ckEAABEAABEBAhYDKInL3799XUe3oshwAIIEACIAACIAACDiMgOd2wKZz/fbtWLp185bp7IJBIAACIOAUAinDUmK6t00r23QBwPp1q2n82B9pzeoVdOHCeZtih1sgAAIgYB0C6dOHU4VKlalDpyeoVev22PfFOlWXpKWm6QK4desmvfTCM9S2ZWOa8ftU3PyTrDacBAEQAAHjCPD2u8uXLqaXu3elFo/VpdOnThqnHJp0I2CKAODO7dv0RKc2rhu/bp5CMAiAAAiAgDKBrX9sphZN69G5c2eVZUFAcAmYIgD4uv9nxE3/SCAAAiAAAuYncPLEcXr9lRfMbygsTJJA0AMA7ucfNeL7JI3ESRAAARAAAXMRWLl8Ca1bu8pcRsGagAgEPQBYOH8uxcRgpH9AtYaLQQAEQMAEBGb+/psJrIAJsgSCHgDs3PGnrO0oBwIgAAIgEEQCf+3cHkTtUK1KIOgBwKVLF1V9QHkQAAEQAIEgEDh//lwQtEKlVgSCHgDcu3dPK18gBwRAAARAwEAC+P02ELYOqoIeAOjgE0SCAAiAAAiAAAj4IIAAwAcgnAYBEAABEAABOxJAAGDHWoVPIAACIAACIOCDAAIAH4BwGgRAAARAAATsSAABgB1rFT6BAAiAAAiAgA8CptsN0Ie98U6nTRNKKUNTxDuGDyAAAiAAAv4TuHfvPl29Fut/AVxpGwKWDgB+GtCK2j32iG0qA46AAAiAgNEEjp26SnmrDTFaLfSZgAC6AExQCTABBEAABEAABIwmgADAaOLQBwIgAAIgAAImIIAAwASVABNAAARAAARAwGgCCACMJg59IAACIAACIGACAggATFAJMAEEQAAEQAAEjCaAAMBo4tAHAiAAAiAAAiYggADABJUAE0AABEAABEDAaAIIAIwmDn0gAAIgAAIgYAICCABMUAkwAQRAAARAAASMJoAAwGji0AcCIAACIAACJiCAAMAElQATQAAEQAAEQMBoAggAjCYOfSAAAiAAAiBgAgIIAExQCTABBEAABEAABIwmgADAaOLQBwIgAAIgAAImIIAAwASVABNAAARAAARAwGgCCACMJg59IAACIAACIGACAiEmsMEUJty4eYcWrDxAf+46Qxcu3aTsEemocpmc1KBGAQoNsUactHv/eZo2fy/tPXiBrkTHUFREeqpZKTe1aliUMoan0p0z65y5eB+t3nScTp+7RrfvxOmuM6GCkBTJKSJrWqpYOge1bVKMckSmT3iJ5p9vxdylucv207J1h+n46WhKFRZCRQtkodaNilGF0lGa6wtE4LFTV2nBioO0c985unv3HhUrmJXqVctHpYpFBCJG82uv3bhNC1cepO17ztKlK7coUtRZ1XK5qHaVvJQyNIXm+rQWyHXOTA8evUSHjl2h44LzpasxLsbXbsRSujQpKTx9GIWnC6PcUeFUKF9mkTNR8ULZKMQivydaM4M88xFwfADAP4rfjFpP/X5YS1evxT5UQzmzp6cv3qlHT7cr/dA5sxw4LwKWVz+eT1Pn7qb79+NbNXryn5QpQyrq+1YdevWZivFPavhp6LjN1GfgCrosfgTNkMZP20HvfLGE3ni2Ev2vV13dgrjJc3ZRr88W08kz1x5y+/Pv1lDjWgVpZL9mlCdHhofO63ng7IUb9Nb/FhHbFxeX4EshFHMQMOSTJlSiSDY9zXhINtvy9ch1if6/5RI3yy/frUdPtin1UNlgHrh37z6t2XKcFq8+RCs2HKFN205JBbhpUodShVJRVK18bnqsbiGqLl5TpEgWTNeg28EEHB0AxMTepTbdp4gn/4OJfgX4h/2ZXjNp47aT9F3fxyiZyf5X+QmvbucJ4inkcqI+8E35tT4LaMfeczTii2aa+sABx4sfzKVRv25NVH+wTnD99h+2jrbsOE1zxnR2PZlracv/hqymj79dkaTIhasOUsUWo2nJxCcNe+rmFqD6XX6mU2cfDkrcxi5bd4SqtBlDk4a2pWb1CrsP6/rKT82tX5hMi8RNNLF0QrSgPPXmDNq0/aQrQEnsOqOOHzx6mcZP30EcUB45cUVZ7c1bd2jVpmOu3G/YWsqcMTW1qF+EnmlfmmpXzkvJk5vsB0bZYwgwMwFrtG3rRPClD+clefP3VPvDhC3Uf/haz0NBf39HtF60fmFKkjd/TyP5Jj1ozEbPQ8rvv/1xgylv/p6OLV172BUAeR5Tff/bvD2uFg9/5Jy7eINaPDfJawuTP+UDuSb6eiw1efqXJG/+bnnXRTN859emE3cdGZE4UEzq5u9pA7coDRi1wfOQoe+PnrzqCvyL1P2e+g5epcnN35sD3P3x07TtVO/xCVSw1nc0eMwm4u5IJBAwgoBjAwCOwsf9tj0gxh8PWOF6mgyokI4Xc/M+j1kIJPURT6zcZaBF4hvbp4NWaiFKdxnM6o+dpzXRwy0L3LyesLslKeF8Q/lq+LqkLtHkHN+sWJe/iYOANz5d6O/l0tfx/9sE8SQdSOLWlaRaMQKR5e+1fPPlLp2i4sbPT/3c9G9U4haGnn0XUt7qg+kT8X/FY5GQQEBPAo4NAL4fvzlgrvzEzc2T3JRphjTq1z8DNoMHX02evSvgct4K/DpzF7E8KyS+WXMQoEWav+KAa7BfoLLGTNmm6w2Fv5ejJ28L1CxasuYwbd5+KuBygRT4YfyWQC53XcvN5WOnBhakB6zEo8C23WeoQosfiVu1Ym8bP4DVbcrFy7dEYL2K8tUY4no1y++N2z682oeAYwMAbhaWSdy/+l7/pTJFNS3DI+7/3CX3RLty41FNbNFKjibG+CFk+Xpt/F6xQU7OmfPXiW8yeiUeoMbfC5k0ceZOmWJ+leGnaB4LIZPYJyPS8Il/UJXWY1wzaIzQ548Obo3gloDiDYbR9AV7/SmCa0AgIAKODAD4H4ujbNk0dNwmkg0gZHUmLMc3k0CaoD3LHz8V7flR+r3RzbPShv5b8OSZ4PvNAxL1SjwFUzbNXPS3bFGf5fYfuSQdmPAgV70TD8bj8UDBfOpPykfuGmjXYyq1fH4y8ewOJBDQioAjAwDuw1VJfOPlmQE8gCdYSeXHSqsmRRUbgsEtXdqUmqjlOd6yaetf+gQAPL1u9hL5mzjfZHbsPSvrVpLltuyQ717Qe00AfsJ+v/+yJO03y0mu31KNhivVs1l8gR3mIODIAEAL9Dw90IjBU4nZmkJhutA92aaDxIyxyHFeBEeLlD93RmkxWwMctOmvovVbTygP7tSrFSDQgaqePvO6AHqlsVO3ufrY9ZKvh1wewNtKTKX8ZuR6PcRDpsMIIABQqPCff99JU+bsVpAgX1RlvnBc3D15xRYu2bpRUU2sL1dSfnW/7bvPSi0g48vwGYvU+4hVuhCSsk+l26NcyexJiZY+xy0xL//ffOnywSzI8TsvchXoLKZg2gzd5iSAAECxXnp8OJd48RKjUwqx5K1sMnJqk6yNWpeLEks7P9eprCZiVW5KvDyyHvPuZy/Zr+wb3xR5KWMtE9+sVAY+lher5mmdeAxQ+5d+I9WuQK3tClReTzF9k6fiIoGALAH5u4isRpuV41X2nnt3tvSAPFkcyRWWJIwzcG6zrH9aluOlVkd/1YLSpgnVRCzvL8ABhWzSaj0Ct/5df5+nvw9fdH+UfuWbtco4Am+K9x+5qLQAUnmF1hZv9vAxXtDr8HH1Vf0Sk2/UcV66fOwU46ZJGuUX9BhHAAGABqx5dbORBi+Fq7J+uJNaANKLgX/Th3ekx+oU0qCm/xOh0g2w9S9tpwJq2XQ/c5H8TIL/6Pz3TiXYySA20ymYN/N/wjR4x2N3eJ6/XRJvYIYEArIEEADIkktQrtdni2j/4UsJjur3EWMAkmbLGyB171KOdi95iVo2LJL0xRJnVZqmVW6K3kzV8qa9fP0R6Sl73mxT8ZWDLIWGLm/mUN8hq2y11O7fBv7meAWKg5Ym4OjNgLSsOe5X5KmBq6d2NWR3L6uPARguNiUqmCeTllXgksUtI7y1bOH8WXTbAZAVqYwD4C1weVVJLbaZ5rUYNitMs0tYAWzXolWHqGPz4glPSX1WCQBUgixvxvKyx7/O/MvbKeljWTKlphoV8tCjxSMpX64Mrm2Aeettbp7n/vk9By4Qj63gOuffCCQQMBMBBAAa1gZPxfpqxDp6/+XqGkr1LsrqYwAql8lBZYrrM8LbOzFtj6r0TfPgs73ixlCqWISyUbPE3HCtZ3Vyl4IWAcA/AwDl1xbQOgCYIrbL1mLpal6b4InWpejZjmWoeoXcfrVS8DoNHKjxMtxsh1aLaBXMq30QrfylhADLEEAXgMZVxZvtqEx78tccjAHwl5Q+1/H8dG5pkE1/aLQgkJbN/25f5i7br8lUxQMKKwCyLSpBltsXz9eJM9SXO+Yte3cuepHGfN2CalT07+bPNvD/a5WyOWngx43o+Po3aN64x13b/3raJ/O+frX8MsVQBgRcBBAAaPxF4CZU7grQe4qRyhgAJw0C1Lh644krW0K+BUOLFQG5SVt2X4J4jiT4wM3Xq8XufapJJcgJT8cDALV7ur0r/i83bjup5NLT7UrT4olPUhHRvaSS+H+XB6WumPw0rZvejWpWyiMlLk3qUHrh8bJSZVEIBJgAAgAdvgc8z/sjsXWwnilFcvmqi7vnzIWAtK4PlSZqlb5xtx+8K6FegaYWMwtUfOQxFipBrpuR+3XnvnNKffB8k/6xfwtNxm24beLXquVy0crJz9CvQ9tSRJbAWpS+fLce8ZRUJBCQJSB/F5HV6JByPNVIj6czNz6VH0e0ALgpqr2qTAXcJlYE5KdSlTRzsfza/7708rLAqmMLVAIAleDKm2+bFLY75v+14Z831fzm77aTZzp0blGCdix8kVo08G/GynsvVafXu1Vyi8ArCEgRQAAghc13Ib7Jdnt7FkVfj/V9scQVKmMAeEASkjoBlZsU73W/75D84j3c1TRvufrqf4lR4F34tu+RX6+AgweVPQBU2HrzSWW1zrpV81Hxwtm8idX0GI8pmfVjJ9f4gsT2QODuB77my971NNUNYc4kgFkAOtY777DW89NFrn9ordWozAJw6mZAWtdB3pwZKGvmNHRBbNAik3gcQIkicjeWVRuPEq9CqWfiVgDZmRoHj8pvAcw+aR0AXLwsV0dsS71q+fjFsNStQxl6uu2jtGrTUbGM8lnX94u7ByqJmTNVyubya9aBYcZCkaUJoAVA5+rjHcemzd+juRaVdQCcuhmQ5pUgBKoNBJR/wtaij94XD55iKJtUBgDy6o2FNF4B8NIV+WBJZdlnWX7cwsctD28+V5k+f6cuvfFsJdd4Aa0XRpK1D+XsQQABgAH1+NKH8+jsBW037cAYAAMqzg8VKlPVVG6Sc5bq1/zvdptbKLgVSyap9P/z2AqV77c3e1OmTOHtsF/HMGbGL0y4yIIEEAAYUGm8h3f39+doqimFGJgkm5y2GZAsJ3/KqawIyH3kMjcXLmfUZjZzl8mtNa8SAGjd/M/1mDljKn+q0+s1mxUGEHoViIMgYBICCAAMqohZYsQ2dwdolVSekGRuOlrZbTc5Kjcrnscvs4ufEc3/7nqS0WW2FQDZl0zhqd0uBfw6Q2yQpMUKggErRgEQ0JkAAgCdAXuKf/2ThcSro2mROACQ7Q/kAEB1ipcWPthBRv7cmcTTpfzNRWZnQB6cZ1RasT7wzYEOHbtMl67ckjZRJahKTGnxwlkTO+XzOHfffazzuh4+jcAFIKADAQQAOkBNTCQ/8XUVUwO1moaHVoDESBt3nIMwlYGAgTaVHz2pNj0vUDI83XDByoMBFQvUJ0/h6cQAwML5tN0CmOVXKpPTU03A7weN2Uh9Bq50beIUcGEUAAGTEkAAYHDFrN1ynPjHRIuEqYBaUFSXoTIOINAlgXntf6NbbwLdb2DrrtPSUDmYUglsE1PMUzazZ0uX2Gm/jvcdvIryVR9Cnw1drfmgXr8MwEUgoDEBBAAaA/VH3IdfL6Mde+V3SXPrwFRAN4ngvqo0WXMXQCBjMmT65FXp8JLDt+/E+S1GpQVAZVaFLwPbNinm6xKf53kXP17mO0/VwdTxlWm0ZM1hn2VwAQiYlQACgCDUTOztOHrmrVkB/ah6MxOrAXqjYvyxciWipJXySpEHj172q/yV6BhNNunxS5nHRbw50KqNxzyOJP7WbCsAelrKm/lolTggmiq29W345M9UqdVoGj9th277MmhlM+SAQEICCAASEvHxOUum1KTFk8S23WfoE9GnqJLQBaBCT7uyhUSfdcZw+Wlm/q4HwHP/uU8+GMnflgdeN+DiZXMNAHTzqizGAciuvOiW4e2VpwnyDqA5Kw+iNz5dSH+JjYeQQMAKBBAASNTS8C+aKe0F71bZf/g6sdynf09W7jKeryp9pYE0O3vqxPuHCfBAwDLFIx8+4ecRf8cBqKzMlzI0hdI2tjyN1Z+xB/764g1N2jShSjZ6k5nwWN+36iQ8pNlnnvkwZOwmKtV4BFVo8SON/GUrpg9qRheC9CCAAECCajax/vuIL5tJlIxfhG/CvGGQ7BxjjAGIzzOYn1THAfiynbuNFoi+eNlUp0peerxVCdnixJsDcauVr7Rlh9oAQJVuLV+28XluvatWPpc/lypdw+MgXvxgLkWWH4CxAkokUVhPAtgMSJJuq4ZFifsUue9PJfGc6Xc+X0zcqhBosnILwLT5e2nTtlOBupzo9fz0mDN7OFV6NAelSR2a6HV6nVDZGpifmvnpOql1HZatOywdKLLPrRoVda0l/+mgVdIIuBvA15RHf7szvBmhEkR5k5fYsSGfNKFqbccqj8FJTL7n8Vsxd11jBXi8QOlikfR857L0ZJtSlCmDfJeRp3y8BwEVAggAFOjxD8nKDUeJ52arpBGiqZD3AW9Wr3BAYlSWAw72joA8lUqPlDpVCHVqXoL69qpDuaPC9VDhVabKVEDe1e/w8ctUIE8mr7L5YKBT8TwFcWDRUny/eIvZfLkySq/vzwsQfdKztqfoh94rbQEs9gAwInGg0f/9+vRm30VGqHugg2f+vP7JAnr3yyXU7rFH6IXHy1LtynkfnMcbEDCaALoAFIhnSB9GEwa21mTe8rPvzKZzFwPbMEilBUCrxYgU8OlSlJ+4xv22nR5tMoKWrjVuihbv08672MmmpKbOcevAnGXym//wDc+9v3yzeoVkTXR1ASS1BwEPAJTdGpmNMqoFgHW90a2y6ybM741OMbF3aeKMnVSn03gq3mCYa9wAz7RAAgGjCSAAUCRes1Ie8WNSSVEKuW7+L74/NyA5KgGA3QcB8lN1qxcm+9VvHRD0RC7muigjFrGRTUktCbxp+0k6eeaarGji7ip38nzvPhbIa1K7ECYVxPjSwd02RQvIL9frS37C89wq8suQNtSyYZGEpwz9vOfABdfMgdxVBtF7/ZcqLaFsqOFQZgsCCAA0qMYve9enUsUilCXxpiP8ZOBvSpFcvvri7gVnOpm/vmlx3Y2bd6hrr1kBLbSjoldlEZuk+s5Vmv/ZH8+bfh2xx7zKlMVZS/YlikglAOCxBXoPAExoOM+MmPJ9+4C73hLK0eIzDwTuP2wd5a8xlPoNW2vI+AQt7IYMaxOQv4NY229NrQ8Te43/NKAV8Q+Kanrlo/muEdf+yEELgG9K2/ecpcVrDvm+UIMrVMYB8M0zsWl2M8UUPNnEff6ewWloSHJqUrugrDjXmBduXfGWVAIAI5v/PW3n/92ZozrRx2/U0qQrz1O2zHteGOr9/suotJhKaGQXloytKGN9AggANKpDfoL56PWaytK4L5DHAyR2M/BUoPLEZNcxAJ583O9nL5G/gbpl+POqchPjOeQ81S5h4t0jd+8/n/Cw35/bNP6v+d9diGcEyKZ/NgfyPh3RCgMAvfnN/0efvlmbFvzUhfLkyODtEsOP7Tt00bXKIA9U5CmgSCCgBwEEABpSfe+l6lSlrNquY2wOR/5Dx23yaZnSSoBiDQKnpANH/FtqV5VHsYJZiXezk03enqC5W0glebvZP1ankFJrlbftiHkmzPlLN6VNVQmepJUmKNiwZgHat/xlGiGm5JYsqt6ll0B8wB/5IYA3DqvSeozX4DBggSgAAgkIIABIAETlY4hoXp04uI3STcCtv3e/pbTr76Sf/JQWAnLAGAA3y0A2snGXkXnlLpnSCmNBvK2i5+8SvN7szZwxNVUvn/uhUzx7pXaVvA8d9/eAt82BvAUv/sr7ZwBgFn8v1/W6VGEh1L1LOdq58EVaPbUrdWhWnPj/OpiJF2Cq3GoM8ZLDSCCgJYHgfrO19MQksngud//36itbw1OFnn5rZpJrv2MMgH+YjWzWVXmSTXgT5Sl167ee8M9JL1e1qF8k0ZsXrwsgm7ifeoVY/8IzJbTd85yv97yMcrBvst5srFExtxgk2I6Orn2d+vSsRbwPSLDSmfPXqU7n8UpLhwfLdug1LwEEADrUzUtPVqCmdeXnW7tN4ifCz79LfMEcjAFwk0r6tWHN/ElfoOFZlRUBt4iBgJ6J1/5XGavRqlHiN/k2jYslufKgpx3e3iecmaASAKgETd5s0/pYjsj0rgWQjq17g0Z/1YIqitUmg5Fu3rpDLZ6dhJaAYMC3qU4EADpULM8xHtWvuSZPDJ9/t4Y2bjvp1UqlMQD+jDL0qtVaB/nHu3WjYoYZrTIVkJ/4T5yOfmCrSvM/j25vUKPAA1kJ3+TMnl5sYCS/bgHb5vkV8tZ9kVBnYp/NHgC47eauimc7lqFNM5+jP+Y87+oqUBnz4ZYbyCu3vrR4blK870kg5XEtCHgSQADgSUPD93zjGfllc2WJd8X2r0+88TtdF/OEEyalMQBx9l8HgAOxgR81It4nwKhUvHA2pb0I3OsB8IqGS9YcljabB7T5WpnQc32AQBXxwkR/7vqnxeK4CFqUBgAatARwoD4mdT239PBgwRMbetJ3fR9zrfOf1PVanjt74Qa16zE1ye5BLfVBln0JIADQsW5557HOLeR3YHObdvDoZfrg62Xujw9eFdYBEovjPBBjyzd88+8nFmjq2Ly4of5xt0wphRHk7hUBF646SNzkK5v8ubkn1UXgj173+gQqzf+8dwPPnrBq4gGVrzxdgbYv6E5/LepBvV+qRlnFbqF6p01iQOAXonUQCQRUCCAAUKHnR9lhnzfVZFOa737aTDz62jNhJUBPGv+953X554x5nN7tUe2/gwa+U2nSdt9ME/axB2I+Dw5tXt/3xlLcBZA/d8ZARMe71m2j2+Z4J/388Ogj5hwA6Kf58S4rUSSbK+jksQI/D2pN9arl03VxIR4fpLJGRDzj8cGRBEIc6bWBTvOyq2O+bkmNnvo5Xp9poCZwf+sL782hHQteJJ7excnKswB4NzQtR1XzzojZs6WjWmJ3tZoV8xi+rKxnfaqsCLhlxynXwL+5Cpv/8FoUzMKfxIHC0HGb/bn0oWt4lUXeHEglAFAJlh4yyCQHuFXjidalXJn58OZUoyf/qbSfgzfXeFGmD75aTjNGdfR2GsdAwCcBBAA+Ealf0KBGfnr5qQr0/fgtSsK43/W1Pgtcaw2wICvPAvi/12ooDUJTAqlzYZWbGvfv/jZ/t1Kfuj/N/24ELRsUlQ4AWAavsqi0AqDYqdDOiVtYeJXBj16rSTxwkoOtlRuPauYyy+QATOU7p5kxEGQ5AugCMKjKvnq/gdjtTH2xk19m/kWT5+xyWY1ZAAZVXoBqShSJIF5QRjb1HZz41E9/ZAaywx0vCKSyOdCIX7YSz1GXTSrTJmV1BqMcr3PArV4rJj9Ni39+UtMbtmwLTjA4QKe5CCAAMKg+eAoRrxLIm7Goph4fzHNNA8IsAFWS+pTnOvbcgCdQLSr9uoXzZQ5oUB3byksDyyYVWzlI4lkTTkvcIshTCb/+oAHxdE3VxA8EvJsgEggESkD9bhSoRgdfz810771cXZnAlegYevbd2UoLudxz0F4AysAlBJQTm0MFI7V9LPA1D1RnA8j6yQMAtQiIZfUHsxyP33m7e1VaN70bRWZNq2QKrxq6IMEAYSWBKOwYAggADK7qj16vpUnz3+LVh2jdHyekrY9DACDNzp+CweqTDaT/3+2H6uZAbjmBvgaLUaB26nk9d4HwngO8bohKWrDyoEpxlHUoAQQABlc8P/HwFCEeKayaOPKXTWgBkCXnX7lg9G1HZElLlcsEvhtleLowqiPGAhidEAD8Q7xw/sz027D2Sq0hG/70vlqo0XUKfdYigAAgCPXFC5988W69IGj+TyUCgP9Y6PGOxwBo0b8biG08+E92amjLhkUDUaXJtQgA/sNYtVwuer5z2f8OBPhu78ELZNSulwGahstNTAABQJAq541ulalxrYJB0k5irrnNlwIMGtl/FKcMTUE8G8DIJNP877avdaOiSmNK3HL8fXXqAMCk+PR6oWpSp5M8xwH9sZNXk7wGJ0EgIQEEAAmJGPSZl6rlncUyZUhlkMb4au557uQS/xQ+aUTAyCdc3u+AR5fLJt4cqGwJ4+bklxYtJE4dAJhYHRXMm4lUtq6+eOVWYqJxHAS8EkAA4BWLMQf5R3dwn8bGKEugRWWb2QSi8DERAiorAiYiMtHD3JqksvYAC24luhCMSkYGR26feCGtiTN2Uv9h62jg6I00Z+l+4k2XzJTy5sogbY7K3hHSSlHQ0gTUR6JZ2v3gG/9U29I0W/wQTZ2721BjMAZAf9xGDgRUaf53k2glugH6DFzp/qjrq5EBwJETV6jXZ4tpxqJ9YhMssaa2R+IdE1/rWok+eKWGobtGepgQ7+216/Lz+UND1NcUiGcMPtieAFoATFDFP/zvMb/XbtfK3Di7bweoFSgFOUY1c/OS0E3ryi/m43aR5+WrbA7kluPPq1EBwIoNR6ls01E0fcHeh27+bCcvoPPF92uoRvtxSisa+uOzr2vYlj0Hzvu6LNHz4elTJnoOJ0DAGwEEAN6oGHyMtw8dN6CloYOwEj4JGeyyI9QZNdCNNz/SagvaFg307wbg2RFGDJDkVQpbPT+ZeOEsX2nb7jNUq8NPdPx0tK9LdTvPuyvG3o6Tlp8re7h0WRR0JgEEACapd+7Dfb5zOcOswRgAY1Ab8aTLTfdapZYGBAClDVoB8NWPF1D09Vi/0ew/conqdBpPh45d9ruMVhfyFL5PB6+SFsc7a7p3CZUWgoKOI4AAwERVPvCjRsRruRuR0AJgBGUiI8YBaHnT5u2U9Z6ZUl6sfqd32rH3LC1ffyRgNXzzr9hyNBm9st7H366gAyIAkU28jgASCARKAAFAoMR0vJ6nco0b0Eppm19/zcMYAH9JqV2ndwsALzhUIE8mNSM9SqtuDuQhKtG3ejNhxQtWyC+Ne0lMp2vW7Vd698slZMTI+nG/bXfNTEgUmB8nalTI48dVuAQE4hNAABCfR9A/VSufy7VJiN6GoAVAb8L/yOeBdbwVrF6JF/DROmkxoyApm4wIAFSb8fn/4+sR66lEw+H0+8K9pNeyGazjObGxl2oK1oZOqnajfHAJ6PfLFFy/LK2971t1iG8ceiaMAdCT7n+yec8HXvpZr6THzZpnFOi1jPE/KyTqvwVwMl5pS4PEUwjbvjhVzCQYSVPm7Ka7d7VZQfOoWLWv9QtTXK0MqsF46WKRun7HNMAIESYlgADAhBXDP5K/DGmjvLBLUq5hJcCk6Gh7Tq8+b15ISo8xBunE3Pg6VfJpC+Ffadxlwd9vvZOW3SJs6/Y9Z6nTq9MoZ+VB1LPvQlq/9YRUMLDv0EV6s+8iKt5gGM1cvE8TDN27GDd4WBODIcQ0BLAQkGmqIr4hxQtnI24J4H5IPRJaAPSg6l0mrwj407Tt3k8qHOWnf40edB+ygmcWLFwl34/+kMB/DxjR/M+qGtUqIP53ErNC/vi5izdo8JhNrsyLCPGgyYqlc1DRglmoiNjVL1OG1JQxPJUreOfphxcv36QjJ67S6s3HaNXGo7Rx20lNuxN49H/X9o/KO4SSjiaAAMDE1d/rhSo0d9l+Wil+OLROqs2Oqvbw4ix6Jd4Wl280XVqVpMdbljRkUGVSvuh109Ny+l9C+3lZ4Fc+mqfpzYp16NUaktB+7kKrVy0fLVt3JOEpzT7zwj38/8k5WOndF6uZYgXDYPlvhN4UKeRbrJInly9rhG/oAjCCsqQO3tp17Dctifdr1zrZeRYAP6XNX3GAnnpzBlVo8WNQ5nV71lfZEtk1D0IypA8TzfR5PdVo+j5HpD7dC3oFQ96cH/llc13+d7zpCsYx7uZ449nKwVDtKJ1ZssqPWcmQWb6sEZARABhBWUEHL8367UcNFSR4LxrsFgDvVml/lFd4q9pmLB0+fkV74X5KTJM6VDQPZ/Hzav8ue6xOId370rUeYMh9/yWLGrdFMu+uN31EB2L+dkvc9TPs86a6Dda0Gy8Vf4qXfFR0tckNKs1fuLSKat3LIgDQHbG6guc6laV2jz2iLshDglMCAHaZWwQ6vvKb17XgPZDo+lbrJ189m//dILSeWsY3f71mF7htTvhav3p+WvBTF+L+ejulnuLJv1HNAnZyybS+RERGUaWqNQK2L0OmrFS8TPWAyxlZAAGAkbQVdHG0H5k1rYKE+EWdNghwy47TNG3+nvgQDPyk5Wh9XqynSe2CulvP08u03BxI6yDIXwA1K+WhuWMft00QUFsMPOz3Xn1/3cd1GhB4852PRTdeYP35bZ/qRaEpte++1cCdByIQADxAYe432cSGQSO+bKaZkap7x2tmiIGCJs3eZaC2+Kq0vPnVrZrPNdI8vgZ9PrUUgwG1SloyCNQmDgLWTe+meVdMoHaoXs9dSdOGd9C9+0fVTruVL1O+Er39QV+/3apWvy3VadrF7+uDdSECgGCRl9DLfbLPtNNmyk+2LGkkLLB2kT92ng6aA+XEQEAe1KlFMqL5322nluMAjJoB4LY94St3QWyZ87zm3WkJ9ej1mW/+y359injqH5LxBLq98Cp98c33lCZt4i2xKVKEUPNOL1P3twdIjxsw0jNHBgC8f7psCkkRXGSDP2lMeXNmkDX/QTkema6aVDiq6pYpf1Gs8R6sxIvraLHRE49FMmLLXjcn3mpYi82BuNuiZNHgj4jmsQBTf2hP/UUTOq/SaJXEXUgrJj9NvPgTUvAItO34JC1evY1e6dmbSpQqQ+nTh1PKsFT3c+QpRI1ad6MvRiymjs++J4L9wLoLguVRcO9mQfI6Q/p/FuqQUZ89WzqZYpqV4elfPw9qozStjPt1tVielufbWylxN0owU20Npu3xjSB3lHH7vvM+Bs3qFVbGVrlsTl1XtgzEQA6i3u1RjXYseJEaWmAgXfumj9Dqqc9QVERwf3sCYWzna7NkjaDX3vqAps1dSZt3HacfZ/19rt+oZfTkS59SVG79x+ZoydaRAQD/AFQoLbclaQWx6lewU42Kuen1rpWkzXj1mYqarCBXqUzwWQQCodKjOQO5XPNrn26rPiXoxSAs+/p857LKLJ7tWEZZhtYCComttxdNeIImDm5DuQwMqvz1g1uNRnzRjKZ8396WUxn95YDr9CPgyACAcXZpVUqK6hOtS0qV07rQF+/Wk1oHvmiBLPTK0xU1MadT8xKa9WtrYpAPIY+3KuHjCn1PV6+QW2nqFnchPKVBEBGolzzqnAceyib+zsn+v8nqDKQcrxh5YOWrrnn1WnSvBaI7sWt57MX2+d2J1/mXnIKemGgcB4EHBBwbADzXqUzAI4J56pXKD+ED6hq84VH8M0Z1DGgveB489PvIjprNxX6kUFbLrEPON9+WDYpqQF5NxMh+zUmm64Tnz/OqkMGavfFj/+aUVaILhe0dN6CVZt85NfqJl2a+PZ4oT/tFIMC+BmvGAm8HvvjnJwP+307cM5wBgcQJODYA4FXJeJUw3rjDn8TLbo4f2NqfSw27hvuC1/zWlXixE1+pRJFsoh+xK/FNW8s05JMmQfux9NcPHjg1aWhbUzxJ8RPmvHGPB7SmAw9Wm/RdO+IgJliJv/88lz6QcRS8At+U79tRFdH/b5XEgxV54a0ts5+nvxb1oHderEq8LLKeiYMP7udfOeUZWjutGzWo4fv/WU97INs5BBwbAHAV801x/e/diLcoTSrxDZavC+THLyl5Wp7jgUH8xMBzg9lOz61WeZQ+P8nwIkJ/zuuu+c2f/UibJpSWT3qaOjQrrqVbmsnim+aG3581VR8v18mmWc/5NbiOx6rwTaG12J0v2KnSozlcdvuzCBFfy/PujZyxoDUf/n346v0GdGzdG7R51vOumQONaxXUZPMd/r/hNRb4f/PkxjddMxNqibUKkEDASALWmQejExUeDf/n3O40afZfNGXubtr61xnibTz5Zl+1XC56sk0p4nXXzZy4j7Btk2KuHBN7l46finaZm10EB0Ysgco6+ElvjRiYOHbqNlq96RidOBNNt2LuGo6Nn6Z4pkalMjmJx2tws78Z+1Dz5MhAc8Z0pk3bT9F4sVXwms3H6dipq3Tn7j3KlT3c9dTcuWUJMWagoKnsz5crI80XS+tu+PMkTZi+44Hdd+PuuWYnVCmbS+zAWEI8xRYwld0qX0QOpDkQ48yzB7iOdu8/T/sOXqR9hy7SngMX6OjJK3T9xh26diPW9ftx89Yd18C91KlCXdMomVueHOFUWuxSWKFUDvEaES9YV7EPZUFAloDjAwAGx//gT7Qu5cqyIM1SjvtcC4t9yYOReHYCZyT/CfCTMmerJW7Wt1LTvpZ8uZuAtxvmjAQCVibg6C4AK1ccbAcBEAABEAABFQIIAFTooSwIgAAIgAAIWJQAAgCLVhzMBgEQAAEQAAEVAggAVOihLAiAAAiAAAhYlAACAItWHMwGARAAARAAARUCCABU6KEsCIAACIAACFiUAAIAi1YczAYBEAABEAABFQIIAFTooSwIgAAIgAAIWJQAAgCLVhzMBgEQAAEQAAEVAggAVOihLAiAAAiAAAhYlAACAItWHMwGARAAARAAARUCCABU6KEsCIAACIAACFiUADYDsmjFwWwQAAEQAAHjCVw4f5Z+Gf8jrVi6kI4dOUSxt29HZI3MRSXL1qR6LZ6inHkKG2+UpEYEAJLgUAwEQAAEQMBZBKb++hN98el7dOvmTU/Hk50+fpA4L50zgZq0e4E6PtubkidP4XmNKd+jC8CU1QKjQAAEQAAEzERg7Mih9FHv1xPe/OOZeO9eHM2bOpxGfv0W3b9/P945M35AAGDGWoFNIAACIAACpiHw5x8b6esvPvbbnnXLfqfl8yb6fX2wLrR0F8CAURto8pzdwWIHvSAAAiBgeQI3b92xvA96OzDwq7507969gNRMHz+AajbsQKEpwwIqZ+TFlg4A1m89YSQr6AIBEAABEHAYgXNnT9PmDWsD9jr6ykXatW0tlalUL+CyRhVAF4BRpKEHBEAABEDAcgR27dwm3Z9/+O/tpvYXAYCpqwfGgQAIgAAIBJPApYsXpNVHX5YvK600gIIIAAKAhUtBAARAAAScRSAuLk7aYZ4VYOaEAMDMtQPbQAAEQAAEQEAnAggAdAILsSAAAiAAAiBgZgIIAMxcO7ANBEAABEAABHQiEPQAIGPGjDq5BrEgAAIgAAJ6EsiUKbOe4iFbZwJBDwAKFLTOxgk61wXEgwAIgIClCBQshN9vS1VYAmODHgA0btKMkiVLlsAsfAQBEAABEDA7gcaPNTe7ibAvCQJBDwAKFipCzVq0TsJEnAIBEAABEDAbAW69bd6ijdnMgj0BEAh6AMC2ft7vW8qRM1cAZuNSEAABEACBYBEIC0tFQ74fRaGhocEyAXo1IGCKACAiIpKmTJtDGA+gQY1CBAiAAAjoSCCDGLj908SpVL5CJR21QLQRBEwRALCj3BWwaNlaeqf3/1H2qBxG+A4dIAACIAACfhIIDw+np555jlas+YNq16nvZylcZmYCptoNMG3adPTWOx/Qm2+/Twf276OTJ07QtWvRZuYH20AABEDA1gRSpU5NUeKhrGjRR8TWtilt7avTnDNVAOCGz7MCChcp5sruY3gFARAAARAAARDQjoBpugC0cwmSQAAEQAAEQAAEfBFAAOCLEM6DAAiAAAiAgA0JIACwYaXCJRAAARAAARDwRQABgC9COA8CIAACIAACNiSAAMCGlQqXQAAEQAAEQMAXAQQAvgjhPAiAAAiAAAjYkAACABtWKlwCARAAARAAAV8EEAD4IoTzIAACIAACIGBDAggAbFipcAkEQAAEQAAEfBFAAOCLEM6DAAiAAAiAgA0JIACwYaXCJRAAARAAARDwRQABgC9COA8CIAACIAACNiSAAMCGlQqXQAAEQAAEQMAXAQQAvgjhPAiAAAiAAAjYkAACABtWKlwCARAAARAAAV8EEAD4IoTzIAACIAACIGBDAggAbFipcAkEQAAEQAAEfBFAAOCLEM6DAAiAAAiAgA0JIACwYaXCJRAAARAAARDwRQABgC9COA8CIAACIAACNiSAAMCGlQqXQAAEQAAEQMAXAQQAvgjhPAiAAAiAAAjYkAACABtWKlwCARAAARAAAV8EQnxdEKzzhw4doLNnTtOdO3eCZQL0WpRASEgIRUZmpwIFC1OyZMlM40VcXBwd2P83nT9/lu7du2cau2AICCRFIHny5JQ1awQVKlyE+H8LyT4ETFWbN2/eoFHDv6MJ48fQyRPH7UMZngSFQPbsUdT5iWfo5Vd7Uvr04UGxgZVeuHCeBn/bn6b9NokuX7oUNDugGARUCGTMlInatO1IPXu9RxERkSqiUNYkBEzTBcBP/I3r16B+X3yKm79JvhxWN+OMaEEaNKAf1a9dmfbs3hUUdzZuWEt1qpenH0f+gJt/UGoASrUicOXyZRo7egTVrl6O1qxeoZVYyAkiAVMEAOfPn6OObZuJ5tF9QUQB1XYlcPzYUWrXujEdPXrYUBd3/bWD1ijWIQAAJN9JREFUunRsTRcvXjBUL5SBgJ4EOBB4snNb+nPrFj3VQLYBBEwRAHz43lt46jegsp2sgpvee7/9hmEIuI//jVdeIO7WQgIBuxGIjY2hV196DmO0LF6xQQ8ADh3cT3Nm/W5xjDDfCgRWLl9C2/78wxBTF86fQ7t27TREF5SAQDAI8G/33DkzgqEaOjUiEPQAYOGCuXT//n2N3IEYEEiawAJxYzYiGaXHCF+gAwQSI7BwnjH/T4npx3E1AkEPAHhaFBIIGEXg4AFjvm8Yz2JUjUJPMAkcMOj/KZg+2ll30AOAq1ev2JkvfDMZAaOm4cXGxJjMc5gDAtoTuHXrlvZCIdEwAkEPAAzzFIpAwEACkVFRBmqDKhAIDoGoqBzBUQytmhBAAKAJRggBgfgEqteoHf8APoGADQnUqInvuZWrFQGAlWsPtpuWQLsOj1Pq1GlMax8MAwFVAmFhqah9xy6qYlA+iAQQAAQRPlTblwDvRfDm2+/Z10F45ngCr/d8m3Lmyu14DlYGgADAyrUH201N4NXXe9HjYi8CJBCwG4G27Tu79gSwm19O8wcBgNNqHP4aRoB3Ivx28DD6vN+3xBupIIGA1QmEZ8hAn/6vP303bDTxLoFI1iZgqt0AA0VZLFseypImeLu8BWovrteGQHTMDdp59rA2wgyQ8uzzPVx9pYsXzqWNG9a5trmOwTRBA8hDhRYEwsLCKFLsrFmpclVq3KQ5cRCAZA8Clg4AXq/Whh4rUskeNQEv/Caw/thu6jL5c7+vN8OF4eHhxAMDOSOBAAiAgBkIoA3HDLUAG0AABEAABEDAYAIIAAwGDnUgAAIgAAIgYAYCCADMUAuwAQRAAARAAAQMJoAAwGDgUAcCIAACIAACZiCAAMAMtQAbQAAEQAAEQMBgAggADAYOdSAAAiAAAiBgBgIIAMxQC7ABBEAABEAABAwmgADAYOBQBwIgAAIgAAJmIIAAwAy1ABtAAARAAARAwGACCAAMBg51IAACIAACIGAGAggAzFALsAEEQAAEQAAEDCaAAMBg4FAHAiAAAiAAAmYggADADLUAG0AABEAABEDAYAIIAAwGDnUgAAIgAAIgYAYCCADMUAuwAQRAAARAAAQMJoAAwGDgUAcCIAACIAACZiAQYgYjYAMI2J3AhvVraOrkX2jTxvV04cI5un//vt1dhn82IpA1awRVqFiZOnTqQtVr1LaRZ852BQGAs+sf3utM4Nq1aHrj1e40f+4snTVBPAjoR+DqlSt08MDfNPnXCdSocVMa8v2PlCFjRv0UQrIhBNAFYAhmKHEigevXr1GbFo1w83di5dvY50UL51Gr5vUpOjraxl46wzUEAM6oZ3gZBAK9336Ddv21IwiaoRIE9CWwb+8eevvNl/VVAum6E0AAoDtiKHAiAb7x/z5tshNdh88OITB75nT6c+sWh3hrTzcRANizXuFVkAn8Pm0KBvoFuQ6gXn8Cv0+for8SaNCNAAIA3dBCsJMJ4MnIybXvHN///GOzc5y1oacIAGxYqXAp+AQuX74YfCNgAQjoTODSRXzPdUasq3gEALrihXCnEsiYMbNTXYffDiKQKTO+51aubg4A7so4EBKCJQRkuKGMMwiUerSMMxyFl44mUKo0vudW/gJwAHBOxoFsEZEyxVAGBBxBoFXr9o7wE046m0Drth2cDcDi3nMAsEnGh3LlK8oUQxkQcAQB/v9o0rSFI3yFk84kUL9BY6pcpboznbeJ1xwA/CLjS5u2HWWKoQwIOIbAt4OGUYEChRzjLxx1DoE8efPRoO9GOsdhm3rKAcA0kQNqBShfoRI1bd7KpkjgFghoQ4AHSM2ctxSbp2iDE1JMQqBSlWo0a94yypo1m0ksghmyBDgAuCcyd+Sc9kdI9uxRNHL0z5QsWTJ/Lsc1IOBoAvwj+duM+TR2/GR6rFlLypIlq6N5wHlrEsicJQs1btKMfhz7C82YvZgiI7Nb0xFYHY+Aeyj/MXG0ssiTRK4W7wqPDxUrV6URo8ZTVI6cHkfxFgRAwBcBHg/gHhNw+3Ys3bp5y1cRnAcBUxBInSY1pUwZZgpbYIS2BNwBAEs9LnINkVuK3EXkCmFhqXKIJ/5UZcqVpzbtOrm2gcSTvyCDBAIKBPjHFD+oCgBRFARAQBMCngEAC7wv8sx/Mx05cfET0dbfh08ggQAIgAAIgAAI2IcAjwFAAgEQAAEQAAEQcBgBBAAOq3C4CwIgAAIgAAJMAAEAvgcgAAIgAAIg4EACCAAcWOlwGQRAAARAAAQQAOA7AAIgAAIgAAIOJIAAwIGVDpdBAARAAARAAAEAvgMgAAIgAAIg4EACCAAcWOlwGQRAAARAAAQQAOA7AAIgAAIgAAIOJIAAwIGVDpdBAARAAARAAAEAvgMgAAIgAAIg4EACCAAcWOlwGQRAAARAAAQQAOA7AAIgAAIgAAIOJIAAwIGVDpdBAARAAARAIOF2wCACAiCgA4Hbt2Np9aoVtHnjejp9+hTdunVTBy0QCQLaE0idOg1lzx5FFSpVoVq161JYWCrtlUBiUAggAAgKdih1EoHpv02iz/p+RKdPnXSS2/DVhgQ4EHjvw0+o0+NP2dA757mELgDn1Tk8NpBA3z4f0Cs9nsXN30DmUKUfgTNnTlPP116k/3u/l35KINkwAggADEMNRU4jMHb0CBr2/SCnuQ1/HUBg9KhhNHLYUAd4am8XEQDYu37hXZAIXLp4kb78rE+QtEMtCOhP4Kt+/6Nz587qrwgadCOQMADgMQHdRF4s8qWobGn7FCuUgzq3b0GTfhlPd+/e1c0QCAYBOxGYNvVXunYt2k4uwRcQiEfgxo3rNHXyxHjH8MFaBDwDgKLC9O0ijxG5gciZRKarV67QyhVL6c3Xe1CDOpXp0MH9fBgJBEAgCQKrVy1P4ixOgYA9CKxeie+5lWvSHQAUEU6sE7l4Us7s27uHmjWpQ4cOHUjqMpwDAccTOIUR/47/DjgBwMmTJ5zgpm195AAghci/iZzZHy+vXL5M3bs9QXFxcf5cjmtAwJEEwsLCHOk3nHYWAXzPrV3fHAB0EblUIG7s2rWTZv4+NZAiuBYEHEUgX/6CjvIXzjqTQP4C+J5bueY5AOgs48CM6QgAZLihjDMINGrc1BmOwktHE8D33NrVzwFAeRkXdmz/U6YYyoCAIwg0a9GaChcp5ghf4aQzCeTOk5datWnvTOdt4jUHAFllfLlw4bxMMZQBAUcQCAkJoQGDfqCUKTEWwBEV7jAnQ0NDadDQEfh+W7zeOQDgQYABJwwCDBgZCjiMQEWxecron36l9OnDHeY53LUzgbRp09HI0T9Tteq17OymI3zjAAAJBEBAJwINGjahpSs3UvuOXShVqtQ6aYFYENCfAO8C2KZtR1qycgM1adpCf4XQoDsB7AaoO2IocDoB7isd+sOP1P+bwbRzxzY6f+4c3b9/3+lY4L+FCGSLiKBSpcsQP/0j2YcAAgD71CU8MTmBNGnSUuUq1U1uJcwDARBwCgF0ATilpuEnCIAACIAACHgQQADgAQNvQQAEQAAEQMApBBAAOKWm4ScIgAAIgAAIeBBAAOABA29BAARAAARAwCkEEAA4pabhJwiAAAiAAAh4EEAA4AEDb0EABEAABEDAKQQQADilpuEnCIAACIAACHgQQADgAQNvQQAEQAAEQMApBBAAOKWm4ScIgAAIgAAIeBBAAOABA29BAARAAARAwCkEEAA4pabhJwiAAAiAAAh4EEAA4AEDb0EABEAABEDAKQQQADilpuEnCIAACIAACHgQQADgAQNvQQAEQAAEQMApBBAAOKWm4ScIgAAIgAAIeBAI8XiPtyAAAjoSuHP7Nu3Zs4vOnj1DMbdu6agJokFAOwJhqVJRZGR2eqR4CUqZMkw7wZAUdAIIAIJeBTDA7gTOnDlNA7/5kmZMn0LR0dF2dxf+2ZRAunTpqVWbdtTrnQ8pKkdOm3rpLLfQBeCs+oa3BhNYs3oF1a1ZgcaP+xE3f4PZQ522BK5fv0YTJ4yjOjXK04plS7QVDmlBIYAAICjYodQJBP7auZ2eeaIDXbl82QnuwkeHEOBWrK5PdaQ/tmxyiMf2dRMBgH3rFp4FkUBcXBy9+tKzdPPmjSBaAdUgoA+B2NgYeuXFbsTjWpCsSwABgHXrDpabmMCCebNp3949JrYQpoGAGoGjRw/T7Nm/qwlB6aASQAAQVPxQblcCC+bPsatr8AsEHhBYiO/5AxZWfIMAwIq1BptNT+DQwf2mtxEGgoAqgYMH8D1XZRjM8ggAgkkfum1LIDY21ra+wTEQcBOIiYlxv8WrBQkgALBgpcFk8xPInj3K/EbCQhBQJJAD6wEoEgxucQQAweUP7TYlUKNWHZt6BrdA4D8C+J7/x8KK7xAAWLHWYLPpCbTr8DilTZvO9HbCQBCQJZAqVWrq2OkJ2eIoZwICCABMUAkwwX4EsmWLoLd7f2g/x+ARCPxL4M2336PsUTnAw8IEEABYuPJgurkJ9Hj5DXq66/PmNhLWgYAEgc5dnqbX3nhboiSKmIkAAgAz1QZssR2B/t8MoW8Gfk9ZsmS1nW9wyHkEMmXOTF9+NYgGDhlOyZIlcx4Am3mM3QBtVqFwx3wEnniqG7Vp15GWLl5Imzetp3PnztK9e/fMZygsAgEvBJInT07cpVWhYhWq37Ax8a6ASPYggADAHvUIL0xOIE2atNSiVVtXNrmpMA8EQMCDwG2FNT2SJ0/hIcl8b9EFYL46gUUgAAIgAAImIXDu3BlpS1KnMfdMIAQA0lWLgiAAAiAAAnYncO7MaWkXUyEAkGaHgiAAAiAAAiAQVAJbNq2T1h+e0dyDf9ECIF21KAgCIAACIGBnAnt27aQTx49Ku5gjdyHpskYURABgBGXoAAEQAAEQsByB6VN+VrI5e678SuX1LowAQG/CkA8CIAACIGA5AvzkP3niWGm7I6LyEroApPGhIAiAAAiAAAgYT4DX6fjso3fo9m35bb2Ll6luvOEBakQLQIDAcDkIgAAIgIC9CQz99gtasWyhkpMly9VUKm9EYQQARlCGDhAAARAAAUsQGDNiCA0f+o2SrTz/v0zl+koyjCiMlQCNoAwdIAACIAACpiZw6+ZN+vTDt2jGtF+V7axYsxmlDEulLEdvAQgA9CYM+SAAAiAAAqYlEHf3Lk0To/2HfvslnVdY9c/tIG+S1KDlM+6Ppn5FAGDq6oFxIAACIAACWhG4f/8+Xbxwjs6dPUPHjx2hlcsW0fIl8+nypYtaqaDSFetSvkIlNZOnpyAEAHrShWwQAAEQAAFdCXRsWU9X+YEI56f/Nk/2DKRIUK/FIMCg4odyEAABEAABuxCo1bgTFShaxjLuIACwTFXBUBAAARAAAbMSSJ8hM3V89j2zmufVLgQAXrHgIAiAAAiAAAj4R4Cb/p978yviIMBKCWMArFRbsNWyBFatXEZTJk2kzZvW09kzZyg2NsayvsBwZxFImTKMIrNnp4oVq1CHTk9QnXoNnAXAD2+bduhB5ao28uNKc12CAMBc9QFrbEbg6pUr9OpLz9KSxQts5hnccQoBXg73+LGjrjx92mRXAPD9sLGUOUsWpyBI0s9yVRtS+67vJHmNWU+iC8CsNQO7LE8gOjqaWjWvj5u/5WsSDngSWLFsCbVsVp+uXL7sediR74uVrkKvfPADpUhhzWdpBACO/NrCaSMIvNvrVdq3d48RqqADBAwlcPDA3/RWz5cM1Wk2ZSXK1qC3+o6hUNFFYtWEAMCqNQe7TU1g545tNGvGNFPbCONAQIXA/LmzaMvmjSoiLFu2dpPO9PZn4ylV6nSW9YENRwBg6eqD8WYlMP23ycSrjiGBgJ0JzJg+xc7uPeQbP+0/0eMT14j/FCHWbPb3dMr6Hnh6g/cgYBIC27dtNYklMAME9CPgpO859/d3fe0LypGnkH5ADZaMAMBg4FDnDAJXrlxyhqPw0tEELl64YHv/s0bkdI3yr1qvDfF8fzslBAB2qk34YhoCGTNaa0EQ04CDIZYikCVrVkvZG4ix/KTP8/ur12tLdmju9+Y7AgBvVHAMBBQJPFqmHK1ft1pRCoqDgLkJ8PfcTilrZC4qW7kBVW/Q1lJr+svWAQIAWXIoBwJJEGjdtgMN/2FwElfgFAhYn0Cr1u0t5QQ34adJG06p06SjsNRpKVv23BSVqyDlzFeEipWqQhFReSzlj6qxCABUCaI8CHghwE9GzVu2oTmzfvdyFodAwPoEGjVuShUrVw26I58MmeWIp3U9QGMaoB5UIRMEBIFvvv2eChUuChYgYDsC+fMXpIFDRtjOL6c5hADAaTUOfw0jkCFjRpo1dynVrtvAMJ1QBAJ6E6hRsw7Nmr8MewHoDdoA+egCMAAyVDiXQKbMmWnS1Fm0bMkimjxpAm3auJ7OnztLcXFxzoUCzy1FIHny5BQREUkVKv2zGyA3/SPZgwACAHvUI7wwOYF6DRoRZyQQAAEQMAsBdAGYpSZgBwiAAAiAAAgYSAABgIGwoQoEQAAEQAAEzEIAAYBZagJ2gAAIgAAIgICBBBAAGAgbqkAABEAABEDALAQQAJilJmAHCIAACIAACBhIAAGAgbChCgRAAARAAATMQgABgFlqAnaAAAiAAAiAgIEEEAAYCBuqQAAEQAAEQMAsBBAAmKUmYAcIgAAIgAAIGEgAAYCBsKEKBEAABEAABMxCAAGAWWoCdoAACIAACICAgQQQABgIG6pAAARAAARAwCwEEACYpSZgBwiAAAiAAAgYSAABgIGwoQoEQAAEQAAEzEIAAYBZagJ2gAAIgAAIgICBBBAAGAgbqkAABEAABEDALARCzGKIjB0/bp5Hc/ZukCmKMhYmcPFmtOWsj4m5RSuWLaFNG9fT2bNn6M6d25bzAQY7k0BoaEqKiIikChUrU70GjSh16jTOBGFDry0dAGw9td+GVQKX7EZg0i/j6cvP+tC5c2ft5hr8cRiBrFmzUe8P+tCTTz/rMM/t6S66AOxZr/DKJAT+7/1e9ObrPXDzN0l9wAw1AhcunKd33nrVle/fv68mDKWDTgABQNCrAAbYlcCo4d/R6FHD7Ooe/HIwgZ/Hj6EfvhvoYAL2cB0BgD3qEV6YjAA/KX3V738mswrmgIB2BAZ89QWdOXNaO4GQZDgBBACGI4dCJxCYNuVXun79mhNchY8OJXDr1k2aOnmiQ723h9sIAOxRj/DCZATWrF5hMotgDghoT2DNqhXaC4VEwwggADAMNRQ5icDp06ec5C58dSiBkydPONRze7gd9AAgQ4aM9iAJLyxBIGOmTIbYGRYWZogeKAGBYBJIlSpVMNVDtyKBoAcA+QsUVHQBxUHAfwIFChTy/2KFK/MbpEfBRBQFAWUCBQoa8/+kbCgEeCUQ9ACgUeOmXg3DQRDQg0CjJs30EPuQzMYG6XlIMQ6AgIEE8D03ELYOqoIeABQp+gg1adpCB9cgEgTiE6haraZrOdP4R/X51LR5K+LvNhII2JVAnrz5qGWrdnZ1zxF+BT0AYMr9vh5M2aNyOAI4nAwOgQwZM9I3g743THmKFClo6A8/Yt10w4hDkZEEQkNDadDQERSaMqWRaqFLYwKmCAAiI7PTr1NmEUeUSCCgNYHs2aNo0tTZZFT/v9v+0o+WpbHjJ1F4hgzuQ3gFAcsTSJ8+nMaMn0zcooZkbQKmCAAYYbFHitPi5Rvo9Z7vUOYsWaxNFdabggA/9b/Q41VatmozlSlbPig21a7bgFas3kJdnuxKadOmC4oNUAoCWhDgXQA7Pf6U+H/aRA0aNtFCJGQEmUAyoV96R4fTF27qYn5cXBzt3rWTTp06SbdjY3XRAaH2JcDNklGiS6lEydIUEhJiGkdjY2Por5076LzYFfDOnTumsQuGgEBSBPh/KJvYDrhkqdKUKlXqpC6VPte0US36c+sWqfKfDJlFBYqWkSprh0JPN84j7YZ5fh09XOD+01Kly7iyx2G8BQFLEwgLS0XlK1SytA8wHgRAwD4ETNMFYB+k8AQEQAAEQAAEzE8AAYD56wgWggAIgAAIgIDmBBAAaI4UAkEABEAABEDA/AQQAJi/jmAhCIAACIAACGhOAAGA5kghEARAAARAAATMTwABgPnrCBaCAAiAAAiAgOYEEABojhQCQQAEQAAEQMD8BBAAmL+OYCEIgAAIgAAIaE4AAYDmSCEQBEAABEAABMxPAAGA+esIFoIACIAACICA5gQQAGiOFAJBAARAAARAwPwEEACYv45gIQiAAAiAAAhoTgABgOZIIRAEQAAEQAAEzE8AAYD56wgWggAIgAAIgIDmBBAAaI4UAkEABEAABEDA/ARCzGhiXFwc7d61k06fPkWxMTFmNBE2gQAIgIAjCISEhFDWbBFUqvSjlCpVakf47BQnTRUARF+9St8NGUATfx5Lly5edEodwE8QAAEQMD2B1KnTUPOWbeid3v9HufPkNb29MNA3AdN0Aezds5sa1K1CQwd/g5u/73rDFSAAAiBgKIFbt27S1MkTqV6tSrR40XxDdUOZPgQ4ALgvK/r+femi8VSeOXOaHu/Yko4fOxrvOD6AAAiAAAiYi8D169fouWc60/p1qzUzLFmyZNKytLoPSRsQxIKKvt/nAOCmrP0cEWqR3nv7dToj+vuRQAAEQAAEzE/gzp071PO1F+n27VhNjFUZW3A79pYmNlhRSGzMDRWzr3MAEC0r4fr167JFH5T7e98eWrhg7oPPeAMCIAACIGB+AseOHqFZM6ZpYmi6dOmk5dy6qXQTlNZrhoK3bijdg6OVAoBr0VeVGSxaOE9ZBgSAAAiAAAgYT0Cr3++0aVUCgGvGO24SjbduKgUA1zgAkKZ35MhhZQyHDh5QlgEBIAACIAACxhM4dGC/JkrTKrQAnDvt3LFjir67WgDOy9bg/r/3yhZ9UO727dsP3uMNCIAACICAdQjExGozBiB79ihpp08dc+5D5KljSgHYeW4BkL6L/71PuuiDyo6KyvHgPd6AAAiAAAhYh0DOnLk0MbZAocLSchRvgtJ6zVDwpFoAsJcDgH2yjmxcv1a26INyNWrVefAeb0AABEAABKxDoGbtupoYW6BAIWk5J478TdeuXpIub+WC+3ZuVDHfFQDskZVw6NAB4pGgKql6jdpUsFARFREoCwIgAAIgYDABXhmwfccummjNrxAA3L9/j/ZsX6+JHVYSwv3/504fUzF5D7cASAcArHnVymUqBhCvM/15vwGUIkUKJTkoDAIgAAIgYByBt3t/SCp9956WhoeHU568+TwPBfR+5x8rA7reDhfv3KLss6sFgAcBSnfmT53yizLL2nXq0xf9ByIIUCYJASAAAiCgP4GnnnmOXnqlp6aKqlStIS1v8+q55LQFgdYunS7NSxTcJfJFbgHgtOSfl8D/btqwjrSYDfB01+fplykzqXCRYoEbgRIgAAIgAAK6E8gmdgX8ZuAP9NWAoaSyfK83Q6tWkw8Abt64RlvWOGd/gtMnDtKBPVu9YfT3mOue794NkD+86m/JhNf9PGEsffq//gkPB/y5Vu16tHz1Ztca02tWr6RTJ09QTIxzl3kMGCAKgAAIgIDGBEJDQikiMjtVqlyV6tRrQNz3r0eqWr2mktilc3+mavXbKsmwSuFlcyaomrqUBST7V0oG8XpBZHdA8O9h/174C7Hhj10UERHpXwFcBQIgAAIgAAIJCFSvVJp4cLls6t3vVypRtrpscUuUu3LpHL3dtYbo8oiRtfeuKJhFZNdCQCyE1/Rdzm9kEm8K9P3Qb2WKogwIgAAIgAAIuAi0ad9JicT0CQOUyluh8OxJ36vc/NlFfvp37QHkHgPAB8fxH9n005hRdPDA37LFUQ4EQAAEQMDhBNq266hEYP+uLbRplX03l+NVD5fPm6jESBQe5xbgGQDwkMIr7hOBvsaK5oi333yVFPcnDlQtrgcBEAABELAJgQIFC9OjZcopeTPhh4/pxnX1jeqUjNChMK93MGZwb7p7R2n5fAYz022e5+R77hfIL3IF98lAX0+cOEbZxDiAMmXLB1oU14MACIAACICA6yFy8SL5Ef2xMTcp+soFKl+tsa1oLpk1jpbPVX76HyugPAgA3IMA3aDKiDc8tyDhcfd5n69hYalo5twlylGcT0W4AARAAARAwHYEuDW5YplidP78OSXfnn/ra6rVWG1MgZIBGhY+uPdP+vztDqpP//eFSXyP3+E2zbMLgI9tE3mW+6TMK1fe89260KWLF2WKowwIgAAIgICDCfBD5HMvvKRM4Kfv/o+O7N+pLCfYArg1Y+j/eqje/NmNGSI/uPnzAW9P+mXF8T8SOcdl/Eply1WgKdPnUrp06f26HheBAAiAAAiAABO4cvkyVShTlG7cuK4EJEOmbPThgN8oe07u3bZe4gWO+vXurEUgw0//PLiCH/IfJM8xAO6DZ8QbvrCo+4DM65nTp2jDujXUqk17Cg1NKSMCZUAABEAABBxIIFXq1HT37h1at3aVkvc8HuCPtQupQo3HKE26cCVZRhfmpY0HfNSVDqqt+Oc2m5/+B7s/uF+9tQDwuZIi81iAUP6gkipXqU7jJkyhjJkyqYhBWRAAARAAAQcR4FVga1YtSyeOH1P2OmtkLur12U+UM09hZVlGCLgefZkGffo8/f3XZi3U8bQBfqjn9f/jJW8tAHwBj77g9R5r8AeVdPLEcZo7ewbVq9+QMmXmxYeQQAAEQAAEQCBpAiFiCeKoqBw0exbPUFdLN29E09ol0ylvoRIUmSOfmjCdS/MWv/16P05HD/yllaZ+QtBkb8ISCwD42nUidxY5M39QSVeuXKbfp0+h/PkLYrMfFZAoCwIgAAIOIlC02CO0eeN6Onr0sLLXd+/epo2rZost6EOpcInymm9mpGygEMCLGA3s8yxdunBaC3Esg9dV7iIyT/N/KCXWBeC+sJF4s9D9QYvXJ57qSp+IjYMwOFALmpABAiAAAvYmcPrUSapbqyJdvXJFM0cfKV2Vur/zLWWJyKmZTBVBt25ep4nDPqFVi6aoiElYlgf+8T18ScIT7s9JtQDwNQdF5s77KvxBi7Rzxzaa8uvPlC59eipRsjQlT55wJqIWWiADBEAABEDADgTSpw+nAgUK0awZ0zRz58LZE64ldWPEjbfgI+UoJEgD1Xnl3LVLp9OgPs/R37s06e/3ZDRQfBjueSDhe18BAF/PGwfUFzk3f9Ai8dSOxQvn0dIlCylr1mzEyz9qvbe0FnZCBgiAAAiAQPAJFC5SzDUYcNdfOzQzJi7urrjpbqF1y2ZQSrH2QM68RShFiNSGuAHbxMv6/rFuAY3o/wYtFVv78mwFjdMaIe8pke8lJddXF4C7LLeT8KyACPcBLV8LFipC3Xu8Si1btcNsAS3BQhYIgAAI2IQAzwpo27Ix/bl1iy4ehWfMQg1aPkM1GnagrDp1Ddy4doU2rJxNC38fTWdOHNLFDyH0rMg86v+ULwX+BgAsp47IC0QOE1mXFJoyJdWt24Cat2xDNWrWoagc5uif0cVZCAUBEAABEAiIwLlzZ6lZ49qaTA1MTDG3RhcqXp6q1G5BxcvWUJ46eOn8Kdq9bR1tWj2X/vpjlWt9g8R0a3A8RsjgTRD8WkAhkACAbWst8lSRDWknyZevAFWsXJUKFS7i6gPiroL0YuxAeHgGSpsunRjNaYgZ7DcSCIAACICACQjs2b2LWjWrT9euRRtiDbcMFC1Z2dVFEJW7AEWKVQXTpc8k7kHhFJYqDSUT49hibt2gW2LVPp5uePbkETpz8jCdOraf9u/eQjytz6DEI/3bizzTX32BBgAs90mRfxI5OX9AAgEQAAEQAAEQCCoBHvH/vMhjArHCn0GACeXxKIwLIjcVWSaASCgPn0EABEAABEAABOQI8M3/FZFHBVpc5QbeTij7WeRUgSrF9SAAAiAAAiAAAsoEYoWEZ0X+RUaSSgDA+qqJPEtkrPHLNJBAAARAAARAwBgCl4WaNiKvlFWnGgCw3hIicxBQgD8ggQAIgAAIgAAI6ErggJDeUuQ9Klq0GMjHOwyVEXmCiiEoCwIgAAIgAAIg4JMAz8SrKLLSzZ+1aNECwHLcqYN4M1LkjO4DeAUBEAABEAABEFAmcE1I4MF+mj1sy8wCSMqL3eLkbyIXFLlIUhfiHAiAAAiAAAiAgF8E5oireB0e6f5+b1q0bgHw1NFAfBgscnHPg3gPAiAAAiAAAiDgFwHu639TZA4ANE9atwB4GsgLHY8WmZdrKi1yOpGRQAAEQAAEQAAEkibA6/l/KvIzIiv39SemSs8WAE+dvH9AJ5E/FBldA55k8B4EQAAEQAAE/iFwWLxwyzmPpbv1zyH9/hoVALg94BYHXqu4q8gNRdazBUKIRwIBEAABEAABUxPgNfyXiDxOZB5DFyeyIcnoAMDTqUjxgVsFuohcSeRg2iLUI4EACIAACICAIQR4+d6NIvMKfpNFPiey4cksN91swvMqIlcXmQcPlhPZLLYJU5BAAARAAARAQIkAj4vjJ/21Ii8T+YTIQU1mvclmFlSKiVxU5ML/5jziNe2/OYN4TS9yiMhIIAACIAACIBAsAtyEz3P0r4p8Q+TrIh8Xeb/If4u87998SbyaKv0/2FaQMjoxU14AAAAASUVORK5CYII=;" vertex="1" parent="1">
          <mxGeometry x="140" y="160" width="66" height="80" as="geometry" />
        </mxCell>
        <mxCell id="zmiHmm3sUyLOldAqRDe1-12" style="edgeStyle=orthogonalEdgeStyle;rounded=0;orthogonalLoop=1;jettySize=auto;html=1;entryX=0.5;entryY=0;entryDx=0;entryDy=0;" edge="1" parent="1" source="zmiHmm3sUyLOldAqRDe1-6" target="zmiHmm3sUyLOldAqRDe1-7">
          <mxGeometry relative="1" as="geometry">
            <mxPoint x="580" y="310" as="targetPoint" />
          </mxGeometry>
        </mxCell>
        <mxCell id="zmiHmm3sUyLOldAqRDe1-6" value="" style="shape=image;verticalLabelPosition=bottom;labelBackgroundColor=default;verticalAlign=top;aspect=fixed;imageAspect=0;image=data:image/png,iVBORw0KGgoAAAANSUhEUgAAAgAAAAIACAYAAAD0eNT6AAAABGdBTUEAALGPC/xhBQAAACBjSFJNAAB6JgAAgIQAAPoAAACA6AAAdTAAAOpgAAA6mAAAF3CculE8AAAAUGVYSWZNTQAqAAAACAACARIAAwAAAAEAAQAAh2kABAAAAAEAAAAmAAAAAAADoAEAAwAAAAEAAQAAoAIABAAAAAEAAAIAoAMABAAAAAEAAAIAAAAAABklm5sAAAIyaVRYdFhNTDpjb20uYWRvYmUueG1wAAAAAAA8eDp4bXBtZXRhIHhtbG5zOng9ImFkb2JlOm5zOm1ldGEvIiB4OnhtcHRrPSJYTVAgQ29yZSA2LjAuMCI+CiAgIDxyZGY6UkRGIHhtbG5zOnJkZj0iaHR0cDovL3d3dy53My5vcmcvMTk5OS8wMi8yMi1yZGYtc3ludGF4LW5zIyI+CiAgICAgIDxyZGY6RGVzY3JpcHRpb24gcmRmOmFib3V0PSIiCiAgICAgICAgICAgIHhtbG5zOmV4aWY9Imh0dHA6Ly9ucy5hZG9iZS5jb20vZXhpZi8xLjAvIgogICAgICAgICAgICB4bWxuczp0aWZmPSJodHRwOi8vbnMuYWRvYmUuY29tL3RpZmYvMS4wLyI+CiAgICAgICAgIDxleGlmOlBpeGVsWURpbWVuc2lvbj41MTI8L2V4aWY6UGl4ZWxZRGltZW5zaW9uPgogICAgICAgICA8ZXhpZjpQaXhlbFhEaW1lbnNpb24+NTEyPC9leGlmOlBpeGVsWERpbWVuc2lvbj4KICAgICAgICAgPGV4aWY6Q29sb3JTcGFjZT4xPC9leGlmOkNvbG9yU3BhY2U+CiAgICAgICAgIDx0aWZmOk9yaWVudGF0aW9uPjE8L3RpZmY6T3JpZW50YXRpb24+CiAgICAgIDwvcmRmOkRlc2NyaXB0aW9uPgogICA8L3JkZjpSREY+CjwveDp4bXBtZXRhPgpqckJFAABAAElEQVR4AeydB7wVxfXHz+ze+3rjUaWLgFhApReFRxGkKho0iTGJiUlMTEw0ifmbxISYpkmsaWo0tlQxImJFQGwgTVGKCkiV3h68/u69O/8zD0Eer92ys+3+5uPz3rs7c+ac7yy7Z6ecEYQEAiDgeQKHSs4tColwJ2karUwrlm8JUWAIo1BKWSQFFRgWFUgh8oVUn1RAQrYi9Z3IFESFJMioM1JSHn+GmzG4ivNWc9nDnCfC34+wzCpJolqQdZjlRfjvCMvkfILzicNCWPuJjL0xy9pnkbWnMBTZLea9V9FMHTgFAiDgAQL87xgJBEDALQJyxlkZ1QcKT4nI2s5CGB2FEB1JWJ35wXoK69SF/zrwX2f+y+E/P6VKVnYvOwu7+Sazr+67oN0k5V5Tiu2SjK3RsNhS+NKSg34yCrqCQJAIwAEIUmvCFk8SkAMGhMsKRA/TNPtIkr357fp0VrQ3//XiP/WAT+dURiS3EIktzGUj35DWW/xnhuSGnHnLt6czGNgOAroJwAHQTRjy04ZA2fjh7UhGzjAk9eY3X37Qiz5svHrYn8p/obQBYZ+hahhhPQ9DfMAsVwtprTFCYk3WvGVb+MbFiJFAAARSIQAHIBV6KJu2BMpLBnUQITGALBrIY+4DGMRA/lPd9kj6CZSxU7CO5z+8y/MgVlKMVua0KV8tZq2t1V81agCB4BCAAxCctoQlmgiUTTyvrVFjDiRDDLCkGMj/aNQDX43LI3mHAD/85RopjZWGYS23DLkkb/iKdWImu2hIIAACjRKAA9AoFhxMVwJyJhkVrw7uyzPcR/M/jgukkOrNvmu68vC53Wolw1u8imEJr2JYUpNJb7V+YekRn9sE9UHANgJwAGxDCUF+JVA9blCPGBnj+A1ynJQ0hu1o7VdboHezBGI8dLCK5xO8ycMHb8RqM+YXvfHGoWZL4CQIBJgAHIAANy5Ma0iAZ46J8tGDzlRv+IaQJfxmOIpztWmYE0fSgECUL4e3OWbCK9KieXmtK97APII0aHWYeJwAHIDjKPAlqASOlAxoY4TMSTwaPJnfAEvYznZBtRV2pURArTpYxJM6X+KeoJcKFixbn5I0FAYBjxOAA+DxBoJ6yRE4Mnrg6YZpTOPFYlNZwnD+M5OThFJpTGAz9xDM5cBMc3MPWa+KlSsjacwCpgeQAByAADZqOpokZ8wwyw9sGSEMfuBLMY0ZqEA7SCBgFwGeUCheJLLmRmsyn8fcAbuwQo6bBOAAuEkfdadEYN+IEflZmZGLjj70aRILw+S9lIiicJwEVE/AAr55PhkjepqHCg7EWQ7ZQMBTBOAAeKo5oExLBOTUATnllQZ364sr+OKdyPmzWiqD8yCgkUCU55UsFCSfjEWt2QWLVvLGSEgg4A8CcAD80U5praWc2DOzMtL6Io6jfwWP6avu/dy0BgLjvUpA9Qy8xNfpP/IqQ8+IJUuqvKoo9AIBRQAOAK4DzxKoGD1kgDToi7yD3Of4Sm3rWUWhGAg0JFAlBD1Llnw8x8p9QSxaxEsOkUDAWwTgAHirPdJem8oxwzpZwvoMB+X5CsPol/ZAACAABOROjjvxeNSK/a1o4cqPAmAQTAgIATgAAWlIP5uhZvBXHtgySQrjm/zgn8C2GH62B7qDQBME1A6Gr/A1/vfcytBTGCJoghIOO0YADoBjqFHRyQTKxw5pz5Onvsp3xa/zuW4nn8dvEAgwgVLeo+DxWCj2l4J5Kz8IsJ0wzcME4AB4uHGCqpoa27cM6+uCxFVsY3ZQ7YRdIBAPAcF7E1gk78k7HHsawYbiIYY8dhGAA2AXSchplsCBiUMKMmqtL/DN7ps8oe/sZjPjJAikJ4Ed7BQ/wD1i9+ctWLonPRHAaicJwAFwknYa1lU2fuDZZBnXcXfnlWx+fhoigMkgkCiBGi7wT2lad+XPW7Em0cLIDwLxEoADEC8p5EuIwJFxQ843pPwRF5rMf7jOEqKHzCBwlIAaHuDww7fnLFz+LP8j4s4BJBCwjwBuzPaxTHtJcsCAcEUrcwbfpn7AMM5LeyAAAAL2EVjLbvTvcg/F/o15AvZBTXdJcADS/QqwwX45bFh2eU70azx++X0W19UGkRABAiDQOIEtksQf8iqNv2MZYeOAcDR+AnAA4meFnCcR2FtSkpdjVn2Vuyhv4l7+jiedxk8QAAFdBCTt4yiZf4lGa+9utWhVqa5qIDfYBOAABLt9tVinduHLzox8i7sk+cFPxVoqgVAQAIF4CJTxv8O/RKK1t8ERiAcX8pxIAA7AiTTwvVkCailfVo28QQq6gTMWNpsZJ0EABJwkwFsSizsqY9l/bLdoUbmTFaMu/xKAA+DftnNMczm+X25FNOvb/KbxQ660tWMVoyIQAIFECajtiH+fa1b/Wcx7ryLRwsifXgTgAKRXeydkrSwpyaowq77Bq49u5oLtEyqMzCAAAm4S2M2xN36Rczj2EFYNuNkM3q4bDoC328cV7XixsSgfM/gz/MZ/G18gPVxRApWCAAjYQWAr/zv+We78ZY/zv2XEEbCDaIBkwAEIUGPaYUr5hYPGkkW/Yx+gvx3yIAMEQMATBJZLSf+Xv3DZQk9oAyU8QQAOgCeawX0lyscN60vSup1fEia6rw00AAEQ0ERgrkX0g4IFy9Zrkg+xPiIAB8BHjaVD1cMThhWbUevn/OC/juWbOuqATBAAAU8RiEiSD8uY9ZOCRSvVpEGkNCUAByBNG54n+IUqQ1VfkVL+mhG0SVMMMBsE0pnAQR7quzU3lv1nsWhRNJ1BpKvtcADSsOXLxw66iKRxFwnZJw3Nh8kgAAL1CbxnCXFdwfylb9Q/jF9BJwAHIOgtfIJ9lWOGdbKM2G95LvBVJxzGVxAAARDgLQboHyTFD/MWLN0DHOlBAA5AGrSz6u7n9fw8xi9/yebmp4HJMBEEQCA5AryvgJiZW9z1T2LWrFhyIlDKLwTgAPilpZLUs2zMoJFCiL9w8bOSFIFiIAACaUdAvi0s4+u5ryxdmXamp5HBcAAC2til55/fKpRVcwd36X2ZTUQ7B7SdYRYIaCTAEwPFPbk50Z+JuSsrNdYD0S4RwIPBJfA6q60YM2iqFOKvXEcnnfVANgiAQFoQ2MwvEtfmLVw6Ly2sTSMj4QAEqLErJgw4xYqaf+ZGnR4gs2AKCICANwg8xkGEbuQgQrzzIFIQCMABCEIrsg0V44aoNf138NeigJgEM0AABLxHYA/PKfpG7vylc7ynGjRKlAAcgESJeSx/+dgh7aWwHhBSTPOYalAHBEAgoASEoFlR07y28KUlHEwIya8E4AD4teVY77Ixg2fwP0Q1wx+R/HzcjlAdBHxKgLccll/PXbh8rk/1T3u14QD48BI4Gr8/+meeoftZH6oPlUEABIJDgDcZlH+riuV+v92iReXBMSs9LIED4LN25i7/C4msR/jh39FnqkNdEACB4BLYIEhembtg+fLgmhg8y+AA+KRN5YAB4fJW5k+EpFtYZcMnakNNEACB9CEQlYJ+ndeq2y8RRdAfjQ4HwAftdGT0wNMNQ/yL3/r7+0BdqAgCIJDGBCTRkrCQX8iav3xTGmPwhel4k/R4M1WMGXyNYRgcjhMPf483FdQDARBgAvxWOSxKYkXZuEGXAoi3CaAHwKPts7ekJC8nVPkA79z3OY+qCLVAAARAoFkCPEHwgbziyu+IWWtrm82Ik64QgAPgCvbmKz0yfkAfI2Y+ybmwgU/zqHAWBEDA6wQErQyRvBxDAt5rKAwBeKxNyscMuYof/itYLTz8PdY2UAcEQCAJApIG8OzAd8rGDvlMEqVRRCMB9ABohJuIaDlsWHZFLq/tl+LqRMohLwiAAAj4hIAkIe/IbdX9/7BKwBstBgfAA+1QWTKks2XKp1iVQR5QByqAAAiAgE4Cr0kzNCN/3uK9OiuB7JYJwAFomZHWHGVjBo3kzTWe4Eraa60IwkEABEDAOwS2c+CgyxA4yN0GwRwAF/nzDn5f54f/fFYBD38X2wFVgwAIOE6gC48HvFY+ZtCXHa8ZFR4ngB6A4yic+1I33p8T+xvXeKVztaImEAABEPAkgTtzYzk/EosWRT2pXYCVggPgcONWTBhwioyGniaSgx2uGtWBAAiAgDcJSFpgCbqiYMGyA95UMJhawQFwsF3Lxw3rSzKmts7s5mC1qAoEQAAEPE+AH0YfxczYlIJ5Kz/wvLIBURBzABxqyIoxAyfyw/8Nrg4Pf4eYoxoQAAH/EOA9BE7jGChvlo0bWuIfrf2tKRwAB9qPg/v8QArjWa6qwIHqUAUIgAAI+JVAsZDWiyogml8N8JPeGALQ2Fpyxgyz8uCWe3i263Uaq4FoEAABEAggAXFv7gVLbxAzyQqgcZ4wCQ6ApmaQJSVZlaHKx6SkGZqqgFgQAAEQCDQBIWhWToX5JbFkSVWgDXXJODgAGsCXTTyvrYiE5/JOfkM0iIdIEAABEEgnAq9FYrUXt1q0qjSdjHbCVjgANlOuHjeoB2988QKL7W2zaIgDARAAgXQlsNaQ5oSchUt2pCsAHXbDAbCRatn4gWeLmHiJSHS0USxEgQAIgAAIEG3hyQATOFbAesCwhwBWAdjDkY6MHXyBiBm8zA8Pf5uQQgwIgAAInEigOz+wXqsYM7T/iQfxPXkCcACSZ3e8ZMXoIZMY5It8oPD4QXwBARAAARCwm0B7Etar5WOHXGi34HSUBwcgxVYvHzP4c9KQHNqXclIUheIgAAIgAAItEOCAQXkcSn1u2bhBl7aQFadbIAAHoAVAzZ1Wu/mRoH9wnnBz+XAOBEAABEDAVgKZQoonyscOwoZqKWCFA5AkvIoxg6+VUt7HxcEwSYYoBgIgAAIpEDB5ztVjHDXw6hRkpHVRPLySaP7ysYNvlIL+wkWxiiIJfigCAiAAAjYRMEjIh8rGDkG01SSAwgFIEFr5uME/5CJ38B8e/gmyQ3YQAAEQ0ECAAwbKP5aNHXS9BtmBFgkHIIHmrRg76BaO7ve7BIogKwiAAAiAgH4C7ASIu3k44Hv6qwpODXAA4mxLHvP/CW/qc2uc2ZENBEAABEDAWQLsA8i7eIj2Jmer9W9t6MaOo+3qvEq+sOLIiiwgAAIgAAJuExB0U978Zb93Ww2v1w8HoIUWKhs3+DtC0r0tZMNpEAABEAAB7xCQUsjr8ucv/6t3VPKeJnAAmmkTXuf/FV7q9yBnAadmOOEUCIAACHiQAC/Woq/lLlj2kAd184RKeLA10Qw82/+LPOHvYT6NeRJNMMJhEAABEPA4gRjP3fps/oKlT3pcT1fUgwPQCPaK0UOnScP6H58KNXIah0AABEAABPxDICKkvCx34fK5/lHZGU3hAJzEuWzc0BIhrRf4cNZJp/ATBEAABEDAnwSqyZBT8l5evsCf6uvRGg7ACVzLRw8+hzv8F/GhohMO4ysIgAAIgID/CVTyeO64nAXLlvjfFHssgAPwCcfDFw7pZVrydf7Z3h60kAICIAACIOAxAvstohEFC5at95herqiDCW6MveLCER354T+fv+Lh78pliEpBAARAwBECbXgHoefLxg9v50htHq8k7R2AfSNG5Esr8hy3U1ePtxXUAwEQAAEQSJGAJDpNWNHn95aU5KUoyvfF09oBkAMGhLOzIrO4Fc/1fUvCABAAARAAgfgISBqQY1bOkRN7ZsZXIJi50tYBYC9QVLQy7udmnRDMpoVVIAACIAACzRAYUxEpflg9C5rJE+hTaesAcKCfn5MUVwe6dWEcCIAACIBA0wQkfY6fBb9sOkOwz6Sl5/NJlL9HuGnT0v5gX9KwDgRAAAQSIsCdAPKLeQuW/yOhUgHInHYPwCNjBg03hFjIbZfWYz8BuHZhAgiAAAjYRaCau8PHpFuMgLRyAKrGDO8WE9GlfMVguZ9d/2wgBwRAAASCQWB/VMaGFi1c+VEwzGnZirSZA6CWfPDD/xlGgod/y9cFcoAACIBAuhFoExLmMwfHDShMF8PTwgGQM8nIDlX8kxu1X7o0LOwEARAAARBImMCZGTL0bzljBscLCn5KCweg4o3BvxFSTAt+c8JCEAABEACB1AjIiRUHt92emgx/lA78HICKsYMv4SmeT3FzBN5Wf1xy0BIEQAAEfEBA0Jfy5i97zAeaJq1ioB+KR0YPPN0wjGVMpyBpQigIAiAAAiCQjgQqpGkNzZ+3Yk1QjQ/sEICK8c8P/9nccHj4B/XqhV0gAAIgoI9ArogZTx0qOTew28MH0gFQoR1zsmof5uviDH3XBiSDAAiAAAgEnECvsJnxmJpIHkQ7A2nUwz8Zc50kcVkQGww2gQAIgAAIOEpgauVrg292tEaHKgucAzBpzrSRswcW3LmuY+Y6hxiiGhAAARAAgQATkIJurRgzcGLQTAyUAzDxiRltjZj5Lx4CCN8xudjiRuOvSCAAAiAAAiCQEgFDCuPxyvGDuqQkxWOFA+MAzJw50zDDkcdJyE6KcUWmOPvZ8woWe4w31AEBEAABEPAngdZWTPwzSEGCAuMArOz3rhqjmXDidfXvofmnVYdFxYnH8B0EQAAEQAAEkiRwQfmhrbckWdZzxQLhAKhxfyl4nuZJyTJkhz+Nb7X8pMP4CQIgAAIgAAJJERCSbikbM3hMUoU9Vsj3DsCxcX/mGmqM7YpTs4bvKA5taewcjoEACIAACIBAggR4R3l67EjJgDYJlvNcdn87ALzWj8f9Hzk27t8E3Yzbprbe08Q5HAYBEAABEACBRAl0MkLmoyrmTKIFvZTf1w7AlNnTv8UwJ7UEdF++OeTNXjkrWsqH8yAAAiAAAiAQFwFJk8rHDvpOXHk9msm33su0OdN6WpbxDnPNi4dtOGZtevj+PV1ClgzHkx95QAAEQAAEQKAFAjXcDz0ob/6S1S3k8+RpX/YAlLxSEpKW8Q8mGtfDX5GPmEaPx8/HskBPXoVQCgRAAAT8SSCTZOwxOeOsDD+q70sHIL+06Gc89jIkUeDz+ub2P5Rr7k20HPKDAAiAAAiAQBMEzi0/kOfLpYG+cwB4yd9AboT/a6Ihmj3MkQHz75hU/GGzmXASBEAABEAABBIgIIT8v8rRQxN+KU2gCi1ZfeUAjH9pfK5hGf9UoX6TpbGxfXgE9glIlh7KgQAIgAAINEIgZBnWo3LYsOxGznn2kK8cgMzKnN8zyd4p0jTumNwqin0CUqSI4iAAAiAAAicSOL0iN/qbEw94/btvHICpT00fxW/+19oBtCLT6PfCuXlL7JAFGSAAAiAAAiBQR0CK68vGDhntFxq+cAAmPj8xk0P9/pWh2rZs8R/DCntgnwC/XKbQEwRAAAR8QYCfqfJBOXVAjh+09YUDYNZk3sowz7ATqNon4C/YJ8BOpJAFAiAAAmlPgN9Se1RUmjP9AMLzDsCk2Zecy0Bv0AFz2alZw7BPgA6ykAkCIAACaU3ghooxQ/t7nYCnHQAV8IcVfCiVWf8tNEDm7VOwT0ALjHAaBEAABEAgMQIhKay/y5KSRjepS0yUvtyedgDySovUen+tXtTeAt4noHf2Sn2IIRkEQAAEQCANCZxTYVZe72W7bZtUZ7eRHOv/dI71/y7LzbRb9snyMqK08eEHdnYzreTjC5wsE79BAARAAATSnkBlSMi+WfOXb/IiCc/2APDD/y4Gpv3hrxqlNkQ9Hx9RiGWBXrxCoRMIgAAI+JdADged+bNX1fekAzD5qekzGNhEJ6G91C+3X2m2edDJOlEXCIAACIBA4AlcVDZu0OVetNJzDsDUuVNzOK6yivjnaOLIgEV/mFy81tFKURkIgAAIgEDgCQgp7pDj++V6zVDPOQAUCf2MIXVzA9TGDuERaztmvO9G3agTBEAABEAgsAQ6l1tZN3vNOk9NApzy5GW9yIytZkiOjP031hg5Ndbqhx7cfbaQ9kUdbKweHAMBEAABEEgrArUWUd+CBcvWe8VqT/UAiFD0Xgbj2sNfNUplptH3hXPy3vJKA0EPEAABEACBQBDI4AfuHV6yxDMOgJr4J6W4yAtw/jGioFtNSFR4QRfoAAIgAAIgEBgCUyrGDZ7sFWs84QDMeGJGhiHkb70CxRLU8S8XtlruFX2gBwiAAAiAQEAISLpHTuzpak/3MZKecAAqM2pv4HC/px1TygufS3tmDt1VZH7sBV2gAwiAAAiAQDAIqGddRU3x97xgjeuTACc+MaNtKBzZwFAKvQDkRB3aH469dc/je4aeeAzfQQAEQAAEQCBFAmXSDPXMn7d4b4pyUirueg+AEY7M9OLDX1HdU2gOXYx9AlK6wFAYBEAABECgAYF8EYv8uMFRhw+42gOg4v1Ly1jNDkDYYbvjri4ckx89fP/uriFLelbHuI1BRhAAARAAAa8QiMRi5pmFi5ZsdEshV3sAON7/H7z88FeNEjHFaf8cXrDErQZCvSAAAiAAAoEkEDZN61duWuaaAzBl9iUlbPgUN42Pt+4Xz8ntdzjbwD4B8QJDPhAAARAAgTgIyMsrxw4eFkdGLVnccQA4yh6/+Tse7z9ZgmqfgDumFK9JtjzKgQAIgAAIgEAjBARHB7ytkeOOHHLFAZgy5+JLePLBQEcstKmS9e0zRmxon+GZEI42mQUxIAACIAAC7hIYWTF2sCu94Y47ADNnzjRIip+7yzup2s3bphVXc28Ad14ggQAIgAAIgIA9BKSk38qZ5Pjz2PEKV56z6gpGdo492JyVUpFp9HuxL/YJcJY6agMBEACBgBMQdHb5G4MucdpKRx0ADvlrSiHVdr++Tf+4oKB7dRj7BPi2AaE4CIAACHiQgJDiVqd7ARx1AKrDkau4+7+PB9nHrVJM0Cn3jS3CPgFxE0NGEAABEACBOAicVf76kEvjyGdbFsccgAH3fz3Mg+e32Ka5i4Le6pk9ZDf2CXCxBVA1CIAACASPAE8xm+lkL4BjDkCHdnuv5ubqEZAmy75tauvtAbEFZoAACIAACHiDAPcCDJrhlCqOOABq7J8ruskpo5yoZ3dhaNjyHlmrnKgLdYAACIAACKQHAUHi5071AjjiAFSGI5/j7n9Pbfdrx6V074XF+TGDYnbIggwQAAEQAAEQYAJn8FyAy50god8B4Kh/HPTnR04Y43QdkTCd9p/hhW86XS/qAwEQAAEQCC4BngtwM780a9+sT7sDMHX29GncTGcHtamexT4BQW1a2AUCIAACbhHoVzFu8HjdlWt3AHjdf6DG/k9uELVPwJ2TsU/AyVzwGwRAAARAIAUCUv+8Oa0OwOQ500az+cNTQOCLoh92wD4BvmgoKAkCIAAC/iEwpnL00CE61Q3pFE6WcbNW+d4RXrdPwIMP7uYOD/3jNt4xG5p4jgDPuBFFrYj4T7RtR1TIn4VFRAb7+lnZRKZJlJ1DIsT/9DMz+Td/VlbUmSEjEaLqKiKL9ycrO0LyyOFPP/m7PLD/6HnPGQ2FQCCYBKRpfZ8t0zYhUNskg6n/u7S/NKyVwWyWxq26+rXStya8Vzm08bM4CgI2EeCHtzilE4lup5Loyn/dupNofwqJNuqBzw979XDXlOThQ0R7dpOs+9tFcufHJDd/RLRtM8nKSk21QiwIpC2BWMwQZxS+vHSDDgLa7hT88P+eDoW9LPPRC4q6lqyrqsyMyhwv6wndfEQgFCbR63QyzupLoveZ/MDnh32nLlof8s3REdyjUNer0PuM+tl4OzPaww4BOwPWRxtIfriO5LrV7BQc7V2onxm/QAAE4iRgGlLeyHm/GWf+hLJp6QGY/tT0dhHD2spx/7MS0iYAmYdvqF50/UsHSwJgCkxwgYDIyydxJj/szzibxNnnkNGLt85QXfV+TNIiuXULWWvfZWdgDcl3lpM8dNCPlkBnEHCTQJUVi3UtWLSSx+DsTVp6ACJCfjMdH/6qaRb3yhpy+VLz4w6lsc72NhWkBZZAh45kDh1BYvBwMvqe59rbve18hUGiew8y+Y8mT68TL7exQ/DWGyRXrSRrNQfSjPK8AyQQAIHmCGQbhvlVznB7c5mSOWd7DwCH/c2oyqhVb/8dklEoCGU6HI4uufvxvcOCYAts0ECAJ+IZ/HYvhowgY8j5JDp20lCJ90XK8jKS7AxYry8k6+0VcAa832TQ0D0C23KLu/UQs2bZGnnW9h4A3vL3inR++KvrQ+0TsOLUrFUDN1ef6971gpq9RkD06EnGuElkjLmQZ+bzWHqap7rhjnETmclEkmrVwZLXyXptwVFngIcPkEAABI4T6Fp5cOtU/vX08SM2fLG9B2DK7EuWsl6DbdDN1yIyorTx4Qd2djctst3J8jWYNFNe5POY/vmjyRh7EU/k65dm1idp7sEDFJv/AsWen1M3sTBJKSgGAsEiIGlB3sJl4+w0ylYHYPLTFw8XUiA2/ictNPWditeufPPwSDsbDLL8QcA4pz8Z0y4jg8f1iWfyIyVBgOMRWCuWUuyFOSSXLiZCr0ASEFEkUASE2S9v/pLVdtlk69spP/yvs0uxIMh59tzcs6atLDuYX20VB8Ee2NACATXpbfAwCn32iyT6nNVCZpxukQAHLzKYp/qj3TspNmcWxV58FsGIWgSHDEElIKR1Ldtm23PWth4AXvrXmpf+cVSQ9Fv619zF1mdn7Wszn9qPXoDmIPn8nMjJIWPCVDIv4YBd7dr73Bpvq6+iE1o8NGA98ySWFHq7qaCdBgL8wC6vEbHOxfNXHrZDvG09ALVCXsU9AGm37r+lRvigY8aITe3DG3vsifRsKS/O+4uAyMkl47LPknHxDBK5ef5S3qfaioJCMrmHxbz8M2TsfoDMnXcTRQ741BqoDQIJE8jLkXQlzae/JFyykQK2bQbED/9rGpGPQxxt/bdTWpcBRIAI8Ji+MXEahR78N5mfvxoPfzea1sghq+P3KHLeWop1/QXPs8CqCjeaAXW6QEDQ1+yq1ZYhAEz+a7k5rll0+K1xayqwT0DLqLybg8f4jbETKHQV+7ro6vdWO0VLydzxBzJ2/ZUnC9Z6SzdoAwJ2E7CsQWJ0hINnpJbs6QGQwjaPJDVzvFv67yMLu9aEBHZL8W4TNauZMWgYhf/6CIW+/xM8/Jsl5dLJUBHFuv2KoucuI6vVJJeUQLUg4BABw7DlmZtyD8C4J2YUZoUjO9jsXIdM9201wzdU8T4Bh0p8a0A6Kt62PYWv/S6J4ZjH6afmF6WvkLnlJhJVH/hJbegKAvESKCezpqM4n1IaXk65ByAzHPk8a4yHfxzNtrhX9pA9BaFdcWRFFrcJcLhe85IZFL7vcTz83W6LJOqXRaMpes7io/MDDJ9uppSE3SiSNgTyKJbFy45SSyk7ANyFcHVqKqRV6ezbpxVvTiuLfWis2okv/JdHyfwGv/nzEj8knxIQYbI63UjRfm+SzMf0G5+2ItRukoD8YpOn4jyR0hDAtDnTelqWsSHOupDtEwI3PXvwvf5bqhEX1mtXRDiDzC9cTeZnriTiIDRIQSJg8bLBB8nceguRhak4QWrZNLZFEonTxKjqpF8qU7rLxaS4Ko3hJ236vRNaZVqCbN3VKWllULCOgOjWg8J33cfry/mSxsM/gFeFQVaHr/OwAG9FnHteAO2DSWlIQHB47JSewSk5ALz2/3NpCD1lk6vD4vT/DMvn4OZIrhPgpX3mFVdR+E8PsS/d23V1oIBeAjKrF0X7zq8bGmBPT29lkA4CugkIcZWUlHRPftIFp/7v0qHSsJboti+o8tl1O/TAg3sk9glwr4VFYRGZP/gpGQODPT58qFrSgSqiGu5z4j5DOlKj/n/0d9TiGbxhjlbFz8K8sKAQf+bw71Y8by4vI+nbQ518r/9PHH6dQhu/QlS72+uqQj8QaJqANIaLkqqknsVJhwLmhz8PlCIlS4CdtlZ3Tm716s//d2BUsjJQLnkCdRP9fnwrUZt2yQvxSMmDVZI2lEraxH8f8d+OMkkHq3n/nAqr7sEf4Yd8Mimb7w7tcgS15b/2PBeyQ56gnkX810rQafyZyw6Dn5MsvIAifdkJ2MCbNx1J6v7pZ/Ohe1AIGHXDAEldwEn9Cy55pSSUV1r0MfPDziepXUTRXz+xd/Npe6O9UhOD0okQMKdfQeZXvsnhY5P2fxOpzta86m3+nb2SVu6W9N4+izYckqSOuZE6KYeAnYG+bQUNbG/QOe0E9x4kdUtxQ/1P65QRjhnwY54keN+nx/ANBPxDYB9ZHBOAV74mqnJS/1qnPH3xJN7177lEK0P+hgQKqqxVDzy0+9yGZ3DEdgI8yz90/Q/JGDfRdtG6BJZyd/0bH0tavMOid/ZYtOmwOw/7eOxTwwhnthY0gJ2BoR2P/qleBL8kY/9/yfzo27xKgLtPkEDATwQkjRclNS8nqnJy/zwt4woS3r0RJQrBzfxHso1zXz47Z+mFayqHuKlH0OsW+QVk/vTXZPTz/gzw7dyF/8o2q+5v2S6L1Di9H1KM9Vy9T/JfjB5ZE6Msvrv0Z2dgdFeDJpxq1g0jeNkOq80VJLNOo9AHHF8lss/LqkI3EDiZgAoKlLADkHAPwID7vx4+pd3ePVwZtt86uQmS/G1atP3h+3e1zYhJbKecJMPmioku3Sj0i9+ROKVTc9lcPbe7gmj2+ijN2WjRZg+/5ScLyeA7Tb+2Bl3Sy6BJPQwqzEz41pNs1QmXE7ys2nz/UhLVGxMuiwIg4A4BcZByqzuIgRRJpP6E/xXyzn8TePnfi4lUgrwtEzj/w6pF334Z+wS0TCqxHMbZ55D589tI5OUnVtCB3NU8Yjd/q0WzN8TquvitNOlUyzSJxnVTzoBJIzrzMsyE70IONE70IIU+/DxPDnzTgcpQBQjYQEDSJB4GeCERSYkPAVjGdHT/J4I4vrxvnJ49+PKlR3a2OxLrGF8J5GqJgDF4OIV+/EuiTF7T5qG0h9/2H1sboyc+jB1fkuch9bSropYjPrfJqvtrz7uIfOFMkz7bx6QCL/UKhIopesbTZK7/IhmHErqnaueHCkCgUQKGnMHHE7pYE/K9Z86caaw8ZxVPSaJTGlUAB1Mi0PFgdPGd/9o7PCUhKFxHwCgZx1v3/tRTM/0/OCjpX+ti9DS/8auHINKnBNTqgamnGfTVfiZ1K0jotvSpEB3fZIwnBn6TjH3/1iEdMkHATgL7aU9NB3F5/FFmE/qXNvWp6edLIV+3U2PIqk/gpucPvNt/U8059Y/iVyIEzMnTybzuBg6TzdPSPZDU7P173z7aze8BdTytglpJcNGpBn27f4h6FCZ0e9Jnl3ICNn2HjL2P66sDkkHADgJClIiR1a/GKyqhOyQ//KfHKxj5kiNwz4XF2CcgOXR1pcwpl/LD/0ZPPPw38hr9b70coc/OjdSN8adgVtoUVSsJnvvIoin/q6Wfvh6lPV7Yt0eYFDvtz3V7CaRNQ8BQfxKQ8pJEFE/IAWDBCQlPRBHkPUqgJiz6PDG4APsEJHFBGBdOIvNb3+OHv7tvjmpG/8/eiNK0p2ppAU/yQ0qcgHIEZvEcibH/qaljqaIdupt4965T/0BW+6vdVQO1g0DzBC5u/nT9s3HfKXnr33689e+79Yvjlw4CQsoDDz24x8ipsbDUMk7AxtgJPOb/E1ff/Gt5XP/B96J0/7sxUjP8kewjUMQTBL830KQreLKgWlLoWlLDARuuIePAk66pgIpBoFkClnWeGB1Z1WyeT07G3QPAW//6J3xaPJZ7OI8UovWdE4vf87CKnlLNOL+EQje6+/B/a6dFF/Mb/z0r8fDXcXGoiIgz34zSFc9EaO1+F3sD1HBArwfIajVZh5mQCQKpEzDF1HiFxO0A8Nr/i+IVinypE1jTOWPEpnbhj1KXFGwJRt9zKXTTz3hn17gvZVuBHOCu6ZsWRejLz0c8HabXVqNdFKb2P5gxp5Z+vSRKVW71sogwxXo/SrLgfBdJoGoQaIKAFBc2cabB4bg607j7P5+7//dz6YwGEnBAGwHeJ+Ad3ifgPG0V+FxwXYS/O/5KKsyvG+mNjy26+bUo7a108Y3UDcM9UmeXfEG3jQrRwA7uOH8UPUyhteNJVK7zCBGoAQJ1BKKUWdNaDKUjLfGI61+OtIyxLAgP/5Zo2nye9wk475WzcpfaLDYQ4kRxGwr/8g5XHv5qfP/WxVG65sUIHv4uXk1qz4QvPhehu1bEKNktj1NSP1RIsT5PEIXbpiQGhUHAZgIhqsksiUdmXA6Ahe7/eFhqyfPgqIKOtabA9mQn0s3KJhXbn9p3OPGoI99VMJ/LuAv6nxzQB+/9jiBvtpIYN8J9q6L0hWcjtItXXzidZGY3iionwMhxumrUBwLNERjf3Mlj5+JyAISQGP8/Rszhz5ghujw4uugth6v1dHWh7/6IRM/ejuv41PpY3fizWt+P5C0Cq/ZaNH12Lb263flllzJvIMV6/sVbQKBNuhOIax5Aiw7A5Kemn8Eku6U7TTftf61P9uC9BeZON3XwSt3mpZ8lFebXyaTWpP/mrWjdeL9a6ofkTQKHqiV946UI/ZGjLjrtolmtLyOr43e8CQZapSOB3vLVrFNbMrxFB4A3/pnQkhCc104g53fTijdrr8XjFRjn9CfzK990VEu1/Owafqg8yvvbI3mfgHrw/+ntKF0/P+L4KoFY11tJFl7gfUjQMD0ISGrxTallB4CoJD1oedvKj4vCw9/pnrXG21pq1K5NWzJv/gWRaWqspL7oj0olfeZphPGtT8Ufv+Ztseiq52qdnaQpQhTt+QjJDOyV5o+rJOBaGtTiMECzDoDa/Y/XCWKxqzeuE3H3hFYhScL5QU637ec1/mqtvyh0LjDiGg42cyVPLFMzzZH8SWD1Plk3Z0M5co6ljHYcKOhRjkjpnKPqmG2oyF8EuAdAPkHNXojNOgDLzlnVjy1u7S+rg6ut2ifgySF5bwbXwsYtM6/gPdn7OhcOYfkui77EgX3UmDKSvwmofRk+z5sxqUmCTiVZMIysTj90qjrUAwJNEJCtqEN4QBMn6w436wDwyVHNFcY55wk8NSjvjMpMo8UAD85rpqdG0fsMMj//ZT3CG5G6aFusbsy/vBYP/0bw+PKQmsdx9QtRR3dkjHX+Ecn8wb7kBaUDRECKZpcDNusAkBRwADx2LfAQQJs7Lyp+x2NqaVFH5ORSWI37h0Ja5J8s9MXNFl03P4qNfE4GE4DflRFJ3+StmdWeDY4kng8Q6/kgz1nJd6Q6VAICjRMQJY0fP3q0aQeAnzS8AgBTWpuj59K5NV14n4C24Y0uVe9YtXUz/jt0dKQ+tX78+69EKOrQ88ERo1BJPQIqguM3X47Sit3ONLLkVVix7r+tpwN+gIDDBAY3Nw+gSQdg2jPT+rKibRxWFtXFRyB0+9TWgR4GUGP+xqSEtraOj1wjud7ZY9H3Fkbx8G+ETdAOqZ6Ar73knBNgtfsiyaLRQcMIe/xDIJ86ZJzVlLpNOgC8+c/IpgrhuPsEDucY/Reelb3MfU00aJCZSeZ3b+KZ1LwGRXNSM8Wv4QeCejAgpQcB1dbf4p6AjY6sDhAUO/VuDhWcnR5wYaX3CEgxrCmlmnQAuECThZoShuPOEvj7yKIOQdwnQE36E526aIe56bB6G4wQJvxpR+25Cg7zxMCvvehMnACZ1YNinW/2HAMolCYEpBzalKVNOgD87jWkqUI47g0CUVN0fShg+wSIbj3IvOzz2gGrB8C1/PDHUj/tqD1bwc5yqgsdXOFA748KEyxz1apqJBBwmkCCPQATnphRzB2iPZxWE/UlTuDVPlmDDuQZexIv6c0S5rXXa4/2p2L738Bj/luPoNvfm1eBc1qtOyB58meMLN2XgloV0P33bJj+YS3n6KEmXxAQ1FsupuLGdG20ByAjHFFv/7hSGyPmuWMi97dTWwdiRYAxfBQZ5w7UTvi2pVF6c4czM8G1G4MKUibwCsd++PM7+vd6kAXDyWp9acr6QgAIJEhAUG1moz36jToA7AwjgkWChN3M/nHr8PBV3TLfc1OHlOvOyKDQ165LWUxLAp78MEaPrdV/s29JD5z3FoE/8wZCC7bqdwqtbr/EhEBvNX2aaNP4MECjDoAQclCaUAmKmeKuia0y/LxPgDn9CiLNa/4/PCjp1sW8GBwJBE4ioEYAbnpV/7CQzOzC2wZ/96Ta8RMENBMQjU8EbNQBkFLAAdDcHnaLrwkZfWYNyltst1wn5In8fDI+o3finwoCcyMH+qnBy78TTerLOtRqkBsXRiiiuSMg1vF7ROG2vmQEpX1LYLCU1OB53+DA5P9d1oNNbOdbM9NY8dlD8vpUZBhlfkNgXPo5Enl6Q6bevozXfR/SPdPLb+Sh78kE1C6Q967U7CWauRTreMPJVeM3COgkUEiLMs48uYIGDoBhxJzbdu1kbfA7JQJqn4B7JrZ6OyUhDhdWW/waF8/QWusr2yz69zrNN3WtFkC4kwQefC+qfc8Aq8M1JMMdnDQLdaU7AWE06Nlv4ABYQmKxqo8vlNVdModvbx3e7BcTjMuvJJGtL0ragSpJP349Snj398sV4b6eakngza9F9EaH5MiAVucfum8sNEgfAo082xs4AEIKOAA+viT43hX+1cXFh/xggihqRebk6VpVvZ2X/B1kJwAJBBIhoIIE3blCb6+R1f7LJDM6J6IW8oJAKgTOOblwQweASG0ChORjAodzzP6v9slZ7nUTjGmXEXHcf11p2S6LntmoeUaXLuUh13UC/+Rho5U6dw4UGbwiQP/SV9dBQgGPEBDNOwDjXxqfy+9Kp3pEW6iRAoG/jS5sHzGNmhRE6C2alU2Gxrf/Wn55+9kb6PrX24jBlq6GAtQ1pHOLaKvdl4hCRcEGCes8QkAWy1ey63U51esByCzPU2//9Y55RHOokSABtU/Ag6MK3kqwmGPZzQlTSBQUaqvv/nejtJk3+0ECgVQIqB0D/6EzcJSZT1b7r6aiIsqCQPwEDKveEH+9h70UEt3/8aP0fM7XzsgZ4Ml9AkyTzOmXa+P3cZmkv72rd/xWm/IQ7DkCf14V0zqPxDrlWg68nuE5u6FQEAnUf8bXcwA4AiAcgAC1uRSU97uprTd4zSQxiHeabn+KNrXuWhFFwB9tdNNP8BHeOfJujbEB1HJAqw32CEi/K8sFiwWdfmKt9RwA7jA968ST+O5/Altbh0es7pyxxkuWmBMv1qbO+7y72/ObMPFPG+A0Faz2kPiIhwN0JavdV3SJhlwQ+JSApD6f/jh5vF+Ket7BiRnx3bcExJ2TW5ue2SegTTsyBja6MZUtgH/HEf+0b+1qi6YQ4icCMX72/4k3DNKVZMEwktn17s26qoLctCYgzjjR/OM9ADOemJFNQnY88SS+B4NAVVicMdsj+wSYE6ey23n8srMV8Fs7LVqMbX5tZQphnxJ4cbNFH/CGUrqS1e6LukRDLggcI1AkX8k9HoLy+J24IqO2J+cQx3LhM1gEZg3OP931fQL4wW9OYAdAU/orT9ZCAgFdBFTP0r0r9fUCWG15QyxDX1wMXVwg12cEROx4L8BxB4C/KAcAKaAEeEJg23suKnJ1nwCjX3+i1m20EF6119Iev12L4hDqKwILt1r65gKEW5NVNNFXPKCsDwkI6nVM6+MOAElx/OCxk/gMFoH3umYNc3OfAGP0hdqA3rcKE/+0wYXg4wTUAMBD7+nraZJtOTomEgjoJdD1mPhPHQAh0QNwjEpwPzNc2ycgFCYxbKQWsmp29qJt+m7KWpSGUN8SmPtRjPZW6pkLYBWNJzLzfMsGivuAgLS6HdPyuAMgLAMOwDEqAf5U+wS83ifb8X0CxIDBJPLztZD9F8ds13M71qIuhPqcgAoz/a/3NfU4GTk8DHCRzwlBfU8TMET3Y/oddwA4CiAcgGNUAv55/+hW7ZzeJ8AcNVYL1YqIpKex4Y8WthDaNIH/cVwAXXsEYBigae44YwMBSfWHAHgJoIpD2ckG0RDhAwJRk7r9/QIH9wng2f9i4FAtZOZssKi8Fu//WuBCaJME1BDAK9v09AJYheN4NUBOk3XjBAikSKCTXEFhJaOuB6A6q1o9/I/3BqQoHMV9QGDRWbxPQK65xwlVjTPO5u7/Ai1VzeI3MSQQcIPAfz/QdO0ZWSQL9cyXcYMT6vQcAZMOZ9XF/Dn60I+GjncJeE5VKKSFQN0+AVOc2SegLva/Bis2HpK0jkP/IoGAGwTe5KBTeyr11GwV6Vsxo0djSPUVgTB1V/rWOQCWkF18pTyUtYXA1rahEWu6ZK6zRVgzQozBw5s5m/ypORj7Tx4eSqZMQAUGep5XBOhIstUEHWIhEwSOErCOzgOocwA4/B8cgPS8MMQdk4qF1n0CiluT6N7Ddrrq5jt3o76obLYrDIGBJPDcJk0OQGY3klmYlx3Ii8YLRomjSwHhAHihMVzUQe0T8PSgnCW6VDD6nccBpu2PMK0i/+2q0KU15IJAfARW75O07YieYShZNCY+JZALBBIlIEU3VaTOAeDLt3Oi5ZE/OARmDSnoWZUhjuiwyOjLDoCGtGCrnpuuBlUhMuAE5m3R1AvAOwQigYAWAoI+dQC4guO7A2mpDEI9TcAi0f6e8cXv6FBS9D1Xh1hasFXPTVeLshAaaAKvbtfjjMr8EYHmBuNcJPBJLIC6HgBWo52LqqBqDxBY1T2T9wkIbbFTFVHYikRn+xeYbOUu182H9dx07bQfstKDwMrdFpXW2H89yoxTSGagczY9riKHrRSi7pkPB8Bh7h6uLuO2qa332arfmWdrGf/XFYDFVtshLG0IxPjZ/+YO+x0ABVAW6FlBkzaNA0ObICCLVDAgY+LzE1WEluwmcuFwGhE4kGcOev30nBV2mWz07G2XqHpylu3SE4GtXiX4AQIJEFjCMQF0JJk3SIdYyAQBQWW5rY1wJIzuf1wMxwncP6aorV37BIiepx+Xa9cXtfxvxW49b1t26Qg56UdgBQ8D6Egyt68OsZAJArzrZKSdQdFQe7AAgWME1D4Bj1yQ/9ax36l8Cg09AO9z5L/DGsZbU7ETZUFAzUnRsUWwzDmL4dq/jBYtBgK8CLCtEQtFWwMFCJxIYOFZuf1LU9wnQLQqJlHc5kSxtnxfuUfPm5YtykFIWhN4e4+GnqlQEU8ErAvbntZsYbwOAlZbg2JmKx2iIdO/BHifgPzbpxRvSMUCceppqRRvsuza/XAAmoSDE64SeG+fpmsTwwCutmtgK5ei0BBCFgXWQBiWNIHNbcPD13bOXJusANFJT3TpNfs1vGUlayTKgcAJBHRtTHV0GOCEivAVBGwhIIvUMkA4ALbADJwQ446JxZJ7A5J74na03wGojPD6/9Lk1Alc68AgzxFYx86pjqtTZp3qOVuhUAAISKPQ4Dt8YQBMgQkaCFRmirPn9M9bnIxo0dH+ACbreftfteYaCQS8SEBNTt1Vbr9mkjcGQgIB2wkIWWiQkJgDYDvZ4Aj879CC3uwIlCVqkehsfw/A5sOJaoH8IOAsgY2HNMwDgAPgbCOmTW3sAPAYgAoEhAQCjRLgIYC2fxzfamWjJ5s6KNivbGf/9hIqBDASCHiZgI5rVGZyb5owvWw2dPMjATUJkG+puX7UHTo7R+CdblnDE9knQLTiTqVQyHYFN5dqeLuyXUsITGcCWrYGFmGS4VPSGSts10FAUK6aBJijQzZkBopAxu2TW++N26IiPaNKWm6ucRuFjCDQMgEdPQB1tWYiFkDL9JEjMQIyS/UAYB+AxKilZe79BebgN3vnxDUUoCMAkIK+uzIt0cNoHxHYUa5nmEqGEK/NR5eBT1QV2egB8ElTeUHN+8YVtIoaItKiLsXFLWZJNEOUe/9Lq/XcXBPVBflBoCkCB6qaOpPi8TAcgBQJovjJBCRlGxxlGj0AJ4PB70YJRAyjx2MjC1pcFiiK7HcA9vONVW0EhAQCXiagnNSIjqkq6AHwcrP7UzfBDgAvA4QD4M/mc0Xrl3mfgEO5ZvPzAbLtn1ayt1LHXdUVhKg0wASUj6qcVbuTDNnvVNutI+T5jgA7AFJk+E5tKOwaAbVPwO8nFX/YrALZ9vuUZbXN1oiTIOAZAod0DFXBAfBM+wZIkbCaA2D/eq0AEYIpDQlsah8e0dw+AUJDD0BlyzMPGiqKIyDgAoEqDlltezIybRcJgWlPQMUBggOQ9pdB4gCa3ydAQw9AORyAxFsJJVwhUKHjWjXQUetKYwa7UlM5AAgxFexG1mKd2ifg2fOamBCYmWV7nVreqmzXEgJBgKgqqoGCYf+/KQ1aQqS/CMAB8Fd7eUvbfw/P7dXoPgF1HUv26hrV0Ktqr4aQBgJHCdRqmK8qKQy8IGA3ATgAdhNNJ3kWR/z/y7hG9gmQ9j+tNYhMp6aCrQ4S0HKtYg6Agy2YNlXVvapxKAAkEEiOwIoemUN3FIW2JFc6/lL2uxTx142cIJAIAaHjjio1dCskYhTyBpKAmgOAe2sgm9Yho6TIuu2S1nvq1abhitJxT62nM36AgJcJyGovawfd/EkgqhyAmD91h9ZeIbAvzxzyZq+cFZ/qY78HkIGpqp/ixTdPEzA1eKtC1njaZijnSwIxFQlQx5xVX9KA0skT4H0Cio/vExC1fx1UTljDXTV5c1ESBJokkBOy3wGmGHoAmgSOE8kS4B4AKdADkCw+lDtOIGLyPgEXfLIssNL+bftyMAn6OGt88TaBXB3OqqUhvrC3MUI77QQEv7MRoQdAO+j0qODls4/uEyA1OAC5iFeZHhdRAKzMzdDQW2WhByAAl4bHTJAxgzur4AB4rFn8qk7dPgFTWn1IVfb3ABRlabip+hU09PY0gXwdQfvgAHi6zX2qXF0PALZZ8WnreVHtTW0zRhzIDzW/W2ASirexf3+hJLRAERBomUBrDUH7ROxQyxUjBwgkRqBKrQKw/3UtMSWQO1gEjAVd7J8F2DpbkI7Z1cFCD2vcJpDP3f9aJqzW7nLbNNQfPAKVcACC16iuW7S5emcnu5VQD/9WGAawGyvk2UygraaeKhGpH2rDZrUhLi0JCDgAadnumo0+VKOnu7JDrmbFIR4EUiTQLlfTXJVaOAApNg2Kn0xASHYApMAQwMlg8DslArocgG6Fmm6uKVmLwiDwKYFuBXquUVG7+9NK8A0E7CAgiecAGBYcADtgQsZxAqU1h8nSELu8e4EasUICAe8S6K7DSbU4CmBUT6+ad0lCM+0EJFUYlhQV2itCBWlFQD38D9YctN1mLTdX27WEwHQmcKoGB0BE1KIaDdEF07mhYDtxFOAKtR1gKViAgN0EdpbbP2v5tCI93at22w556UtAhwNA1ZvSFygs10dAioMqEBAcAH2I01byzgr7HYDexYLCGAVI22vK64ar5X9dNcwBEJXve9106OdLArJU3U7hAPiy8byt9K4K+yctqYc/egG83e7prN1ZbQSp2Op2J1H1gd0iIQ8EmIBgB0AKzC7BxWA7gV2VO22XqQSe2QZdAFrAQmjKBJQDoCPBAdBBFTLZATiEIQBcB1oIbC/7WIvcfm313GS1KAuhaUXgrNZ6nFM4AGl1GTlnrCkPqWWA6AFwDnna1LS3ch+V1Zbbbu+gDnpusrYrCoFpR2Cgjmszso8ociDtWMJgBwjExGHDiJl8hSGBgL0EJC9b2nTE/tnLp7USVMz7AiCBgJcIdM4X1DHPfo1EJcb/7acKiXUETLnH4L2Abd+5DXhBQBH46LD9DoB69A9oBwcAV5i3CAw5RU/PlChf7i1DoU2ACNTsM/JiJqJMBKhJvWTKJg0OgLJveCc9N1svsYMu/iIwpKOea1KULfUXCGjrFwI1dD6VGrMun1XLGh/2i9bQ0z8ENpR+pEXZUV313Gy1KAuhgSeglv6d30lHr5QkoxwOQOAvIHcM3CMEyWN3Umw15U4jBLrWfVX7aF/Vfttt7JQnqCeiAtrOFQKTI3BuO4Naa5iXIqrWYwJgck2CUi0SEHVD/8ccAMwDaBEYMiRDYM2BtckUa7FMSVezxTzIAAJOLABShwAAOChJREFUEBjdVcfbP6/SPrLECfVRR1oSkJ86ABwO2P64rWkJFUafTGDNgTUnH7Ll97juem66tigHIWlFYEw3Pc6oKHsrrTjCWAcJSKqL1Ha0B0CKbQ5WjarSiICuHgDV7aqGApBAwE0CvXhZqq7hKFG22E3TUHeQCRiy7plf5wDw/7YH2VbY5h4BNQdgd6X9U0zUo3/yaXrevNyjhZr9RuDinnW3UNvVFtUbSFRvtl0uBILAUQJG3TO/7uqVhgUHANeFNgIr9qzUInvyaXpuvlqUhdDAEVCz/6f1DGmxSxx8XotcCAWBOgKStqnPujuoJSQcAFwX2ggs37tCi+w+vD3wma0xDKAFLoS2SECt/W+f22K2pDIYh+AAJAUOheIjYMi6zVrqHIDMmFnnDcRXErlAIDEC6w68T+UR+/cFUFpc3gfDAIm1BnLbReDy0zVde5GDhABAdrUS5DRCQJJZU/fSX+cAzJ4+W+0HUNVIRhwCgZQJxGSM3tm3KmU5jQmYxmOwuWH0AjTGBsf0EWiXI2h897rbp+2VGKUvEvG/GSQQ0ERgnxh+9Hl/9ArmiEC8FBAzTjTRhliipbv1xDRXD3/MBcAV5jQB1fMU0vP8J4z/O92a6VafPB6i9fglLKTYmG4YYK9zBFbufZuqono6mb50lknoA3CuLdO9JvXg1zb0FKsg4/CCdEcM+3USkNTQASAh4QDohJ7msmtiNfTW7mVaKPTktdiIDKgFLYQ2QmAKrz5pn9PICRsOGQfnEMX0zJexQT2ICAIBQcef9Z/2AIhPuwWCYCNs8B6B13a8rk2pr/Y9filrqwOCQUAt/ftaPz1L/xRdY98/ABkEdBNo6ABYvH277lohP70JvHdgNR2sOagFwiDej/08jg6IBAI6CVzIE/9Uj5OOJGq2kTj8hg7RkAkCnxIwzIYOAMVCGz7NgW8gYD8ByVNNX/1YXy/A9QM0LcuyHwUk+pCAeuxfe66+t3+xV73983RsJBDQSaAm1NABGLS67xauU88sLZ3GQLavCLy8bT4vOdFzkxveyaChHJwFCQR0ELjoVENj4ClJxv7/6FAbMkHgBALygBhXduDYgeN3y5kzZ/IoAH147AQ+QUAHAbUvwNv73tEhuk7m9f3RC6ANbhoLVjP/bxik8e2fu/4R+z+NLzDHTBf19mc/7gB8Uv86x/RARWlL4KVt87TZPqCDQWO6nnxZa6sOgtOEgFr2161Az9i/Qmjsvi9NSMJMVwkIatoB4FgAcABcbZ30qHzl3ndoT+VebcbePDREGegI0MY33QSrYFPXnafvghLVm8g49Fy6YYW97hCo94yv96rEuwLWO+mOfqg16ATUHIAXt76kzcyu/Kb25bP1dddqUxyCPUlATS5tk63x7X/XnxD615MtH0ClrGaGACzLqNc9EEDzYZJHCMzjyYBltfoCnlx7rkHtNAVr8QhCqOEAgTN4t8mrztT39k+88Y+x958OWIIqQIAJhEP1nvH1egAGv3eOWh6g766MFgCBTwiosMDPb3lBGw/VbXvr+egF0AY4DQSroD8/HxEis95d0l7Djd33E1mV9gqFNBBonMA+MaK83thrvUu7biWAkGsaL4ujIGAvgee3vqBtfwCl6eiuJk3gpVtIIJAMgSt44p/W4FJWNZl7H0xGNZQBgWQIvH1yoQZ3R54IqG+N1sm143daE1BDAC9tfVkrg1uGhagoU9/4rVblIdw1Al3yBd00WGPXP1tm7H2UqLbeC5lr9qLidCDQ8NnewAHgYAB6Nm5PB76wMWECc7c8S2qjIF2pLe/bfstwDAXo4htEuarr/7ZRIcrhYSRtiTf8MXf8Tpt4CAaBhgSsBi/3DRwAwzIaZGooCEdAwB4Ch6pL6ZlNz9ojrAkpave2i3s2uNSbyI3D6U7g6r4mDeR4EjqTsfOPePvXCRiyGyEQRw9A2ZGC1ez3RhopjUMgoIXA7E1zqLSmVIvsY0Jn8mSu7oUa3+iOVYRPXxPoUyzo+v6ae4wiB8hUS/+QQMA5AuU0sqbBhn8N3NxFVz9SzZHaEQ/AuYZJ+5qqo9X05MantHJQ3bm/LwlRuMEVr7VaCPcRgQKeK/KnC8OUpfn5b+68gyh2xEdkoKrvCQhaJQSpcP/1UqO3Q35PWlovF36AgGYC87a9TLsqdmutpV9bg37CkwKRQOBkAqpv6DcXhEhN/tOZRM12Dvv7gM4qIBsEGhKQ9FbDgzwRtbGDlhRwABoDg2PaCEStGD32/j+0yT8m+HNnmDTjdL2zu4/VhU//ELjmnBBd2L3R26GtRhjbfsHr/vVNerVVWQgLDgEhG32mN3rFhwyrUW8hODRgiRcJLN2zjFbsWaldtZ/xqoBz2jV66WuvGxV4j4DaPOrGgfqdQlH6Cm/5+1/vAYBGwScQMxt9pjd6F5xz8Zz3mYjeWVnBRw4LkyDwwJqHSM0J0JnURkH3XRgitWcAUnoT6Nnq6NwQtfRPa+K3fnPz97VWAeEg0ASBnWJ01ceNnWvUASBBPA+QVjRWAMdAQCeB/dX76b8bntRZRZ3sYt7c5YEJYWqVpfvOr90UVJAkgXYcI+KhizIoL0P/NWDuuJ1E9YYkNUUxEEiBgBBvNlW6cQeAc0shFzdVCMdBQCeBZzc/R5uPbNZZRZ3sU3lZ4P3jQ5SNeYHaWXutAjXjXzmAHXL1ayYq15Gx4279FaEGEGiMgJTLGjusjjXpAPC515sqhOMgoJNATMbor6sfILVtsO6k5gLcOzZMalgAKT0IKIdPOX5qpz/9ySJz03f5jQqhVfSzRg2NEjCMJp/lTToAhmmpHoDaRgXiIAhoJrCx9CN6TuNugSeqP7KLQXeODmvd9e3E+vDdPQKZ7Oj9ldf692/f5K3PVuWMXQ+QKGt0/pWt9UAYCDRBoJyyqxpsAnQsb5P/CuZOnVtJQjZZ8JgAfIKALgKPf/BP2nJkqy7x9eSqJWB3wQmoxyRoP9Sb/1/44T+sU5O3PVtNFlXvk7ntZ7bKhDAQSJDAYjGw6ci+zf9LkOK1BCtDdhCwjUDEitCd79xDtTFnOqLU1sF/5OEA9ZaIFCwC6uGv3vzP79z8Lc82q9VWv+u/wmv+q2wTCUEgkDgB2ewzvNl/Dbw1cJNjB4krghIgkDiBj8s/pkc/eDzxgkmWGNvNqHtL1LoTXJK6oVhyBNQs/4cucu7NX2lpbr2ZROWa5BRGKRCwi4A0kncAqqIh5QBE7dIFckAgGQIvbpnnSICgY7qpt8S/XxSiQp4pjuRvAu15lv+/poRpgObd/U6kZBx6lsP9PnjiIXwHATcIVFNldZMrAJRCzfYAzL981mGeB4B4AG40Heo8TkByWIo/r/4rHaw+dPyY7i/n8SSxJy8Ok1oqiORPAr04yM9/p2XS6bzDn1NJ1O4i86PrnKoO9YBA0wQEvSEmUbNxp5t1AJRkHgZ4uekacAYEnCFwuOYIzwe4m6KWcx1SKlLgv6eGadApLf4zcQYCaombgOrFUW13igPr/I8rpaL9rb+KN1M/ePwQvoCAawQs2eKzu8U7W8yw5rtmACoGgRMIrDv4Pj249u8nHNH/VUUKfHhimD6DDYT0w7ahBvWu/zXe2EcF+cl3IMLfiSqbm67nJX+N7rlyYjZ8BwFnCAgbHIA9uzssYW3LnNEYtYBA8wTmbZtPz295sflMNp8Ns5v8a94q9nclYcLkQJvh2ihOtc3dvIrjB4NMMp3r9a+zwNh5Nxn7/mWjNRAFAikR2E8jI++2JKHFHoCV33ggIkTzSwlaqgTnQcBOAg+ve5RW73d+hvXFPQ36D3crd8e8ADub0xZZapx/Fs/ZuIiXcjqdxKEXeNb/z52uFvWBQDMExDwhyGomQ92puP61SCmcfeVqSWucT2sCKlTwH965i3ZX7nGcg3rQPHVJmC7tjWABjsNvpEL1ov/ls02esJlBPYscfu3nulWwn9CGa/hbi/faRrTHIRDQREBQi+P/qua4HADLMuZqUhNiQSApAmW1ZfSb5bdTWW15UuVTKZTLXc2/HRmi+8aHqS3vKIfkDoH2OVQ31n/z0JA7eznU7iXz/cuJYkfcAYBaQaBxAryJivFS46fqH4377jVl9iXvcNFz6xfHLxBwl0Cvop40c8gtvKNftiuKHKqWdOviKD2/CW+ATjWAumld0cekHww2HZ/od9zG6EEKrZ2MYD/HgeCLdwiI5WJU9eB49ImrB+ATQXPiEYg8IOAkgQ2lG+m2lb/ncMHu7LamVgncNSZMf+NZ52rZIJJeAmr+xaOTw/SL80PuPfxjZRR6/zI8/PU2NaQnTcB6Lt6icTsAwjKeiVco8oGAkwTUhMA/vH0nxwiIOVltvbrUjoLPfyaDvs8z0LGXQD00tvxQM/y/3d+kuZdm0BA34zLIWgqt/yKJcsRHs6VhIcR+AoZ8Nl6hCb2yTJ59yWYu0D1e4cgHAk4SGNXpArr+nG+T4OmvbqYd5ZLuWh6l53hYwOLROKTkCRjclJf0MunGgab78y1khEIfXklq1j8SCHiUwC4aWdOJb4Fx3XkSmsp8+udO78XzXuMaW/AoHKgVYAJby7ZRac1hGtCuv6tOQAEHoBl/qkljupn0cZmk7fyHlBgB5cJdyBsz3cPr+i/n8X418dLVJKNkbvgaGQfREepqO6Dy5gkI+o/oHot70n7cQwCqVsMyMA+gefw46zKBedtepnvf/ROppYJupzNbC/o7RxF8jMesRzi0B73bNqdav3rMj+LhlCcvyaA/8fa9Kp6/64m39DU//DwZB/7nuipQAASaJWBR3A9/JSehf10D7v96+JR2e/dyuaJmlcBJEHCZwMD2A+gH593Ay8MyXNbk0+rfPyDpkTVRmrvRYgfl0+P4RhTiV5Fx/MZ/Tb8Q9W2b0G1JL75YOY/5f55E6St664F0EEidQBlZNe3EaKqOV1TC/9J4OeB/WPgV8VaAfCDgFoG+bc6mmwfcRFmhLLdUaLTeLYcl/fv9GD21waIjNentCbTOFnVBlb5wpkkdnNy4p9GWOelgZB/P9r+URMWqk07gJwh4kYD4Fy//uzIRzRJ2AKbOvuRzfMtC0OtEKCOvawR6F/Winwy6mZeM5bmmQ1MVV0YkPfuRRbM+tOi9fekTR0DddIZ0NOrW8l/Y3SC114LXkqjZTua6aSSqN3pNNegDAk0QkJeJUbVPNXGy0cMJOwDjnphRmBWOqGEA7/StNmoaDoLAUQJd8rrQjwf9iNrntPMsks3cK/AMDw08szFWN3HQs4qmoJgKozy5h0FTeprUKS/hW08KNSdWVFS8S+YHl5Oo3ZlYQeQGAfcIVFI1d/9PoIpEVEjqXyEPA6i9ASYkUhHygoCbBPIz8umH/W+ks1uf5aYaLdatBgRWc2/Awm2SFm6N0YcH/TtEoJbw9W1r0Ogugi7kVRFuxOpvEfhJGdREP3Pjtzi0f+VJZ/ATBDxMQNKToqRmRqIaJuUATH5q+pd4h8BHEq0M+UHATQIhw6SvnHk1XdRtvJtqJFS3iinw2naLlu60aNluSQeqvO0QdOSRlkEdDBrWyaRRnQUV8xi/P5JF5vZfkfHxH1hdbzP2B09o6SwBeQV3/z+RaJ1J/euc+PzEArM2Yw9J4a3ZVYlaj/xpSWBCtwvpq2d+hWeeJxQGw3VW6rH00SFJK/ZYtHa/5D+rrocg6tL0AbU2vw8vdTyL/9Sb/mCO0Oe5iXzxtBpv5qN29EOAn3hgIY8HCZRRbk0HMZAS7rZKygFQAHgY4En+uMyDMKASCLRIQA0FfP+871FhZmGLeb2cIcIP//U8TLD1iKTNhy3aXKoCDxHtqrDoYBWROp9Kyg5RXQS+jjxm3433OuhaQNSt0KBevPWu2vtAdfP7OYnqDTze/zne1vdDP5sB3dOagHyU3/6/nAyCpP/5Tnn64s9wD8CsZCpFGRDwAoGizCL6dr9vUf92wd3kUg0ZHGBHoJxXHFTyfknl/FfB30/uNcgOCV4uSZQXJsrhv4JMQR1y1PekbxFeaOJmdTD2Pkrmlh/xdr4JzZtqViZOgoDjBARdJEbWxLX978m6Jf2ve8YTM7KrwpHdLJDfCZBAwJ8EBMfCurDrWLr6zC/xJj6Z/jQCWidEoCZWFc356Fsh44DqxEQCAV8T2MvBfzpx8J9oMlYkPQi6bta6aO/P9uG9Aei8ZCpGGRDwCoGPDm/iCXYr6MzWfUj1CiAFl8DqA2usjHXTdhVUvI4Xl+A2czpZ9pAoiT2frMEpheCQWAmQLHeU8xiB7eXb6f/e/Cm9uHUezwHHLHCPNU/K6tTGIvTo+4/TnLe/+/op0fWdUxYIASDgBQKW9XgqaiQ9BFBXqSQx5elL1vP3nqkogbIg4CUCZxT3oWv7fo1UACEk/xNYc2At3b/mb7SjfOfBf7daIPJEbSv/WwULQIDWiFE1fVPhkFIPAA+fSn5XeiwVBVAWBLxG4P2DH9D3X7+J/r7uEaqOxb2vhtfMSHt9SmtK6d5Vf6afvfUL9fCnizO3rMHDP+0vi+AA4M1GUzUmtR4Arn3q3KldZdTczF9TcyZStQTlQUADARU++OtnX0PntQ3uSgEN2FwVqYZwXtvxOjtwj1JZLa+J5BQma8sTrV7uFBIWr3FAAgHfE4iSFeoiRleoifhJp5QdAFUzxwR4mT/GJa0FCoKAxwmc33EEXdXnSmqb3cbjmqa3eh8c+pAeWfcYrS/dUA/Ed3LWLBuftX1wvYP4AQL+JTCbu/8vTVV9XvlrQxLyfo4JAAfABpQQ4U0Cb+x8k97a/RaN6TyaPtv7cqwW8FgzfVy+g/6z/r+0ZNfSBpM4C0TtKjz8PdZgUCc1ApIeTk3A0dK29ACUvFISyjvUagsJ2ckOpSADBLxMIMvMokndL6JLe15COSGOloPkGoH91fvpyQ1P0fztC8mSjYY9tG7PX/rhmeGDZ7imJCoGAXsJfMxr/09Ndu3/iaokHQfgRCFbHt1inX7FGXk8KXD0icfxHQSCSCAqo/T+oQ9o4ceLeC/7MHXL70amz/YV8Hu7HKw5SP9a/5+6SX4bSjc2eOs/Zl93s3zxl3I+7H/sNz5BwPcEpLxDjI69YocdtvQAKEUm/O/SUzIMayuvCsAkGztaBjJ8Q6Aws4Au6jqBJnafQAUZiC+js+G2lm2lF7a8RIt2vEpqbX8LqfKhwkWH2plV6JlsARRO+4ZAlKJGdzG2aocdGtvmAChleDLgf/jjCjsUgwwQ8BsB1Rsw4pThdFnP6dQpr6Pf1Pe0vh8c/JCe+uhpWrn37Sbf9k82YHjmrkU3564qOfk4foOAjwk8xZP/bNuEz1YHYPLTF18gpHjNx3ChOgikTEAIQUPaD+IegYvo7OKzSP1GSpxAVbSKFu9aQs9ufoHUm38iiYnv+2+r+dnZIpKXSDnkBQFPE5A0XpTUvGyXjrbfmaY8Nf1dngzYzy4FIQcE/EygdVYxjeo0ksZ1HcO763XwsymO6C45tNiHh9bXdfG/tvMNqo4mF4jps9kbXr8ye+MFjiiNSkDAGQIbaGTN6fw+wSPt9iTbHYCpT1/8DSnFffaoBykgEBwCpxX24J0Hx9EFHFMgO5QdHMNssORA9QF6lYP3vLxtPu2p3JuSxAyy1s8qnneaQdKWSc4pKYPCIGAXAUnX89v/H+0Sp+TY7wDMnZrDkQE/ZtmIt21nS0FWYAioZYTntOlHgzoMoAFt+1NhZmFgbIvXEBWtb9PhzbRi78q6nRg3H9kcb9EW892U/+7KC8I7B7SYERlAwD8EjlBmTRcxlI7YqbLtDoBSbsrTF9/DgYGut1NRyAKBIBJQ8wN6FJxKA9sNoIHtB5DqJQhqUrP23z/0ft1EPhWwR731251aGzXLHylaOMhuuZAHAi4T+ANP/vuh3TrocQCevKwXmbEPWVkt8u2GAHkg4BUCrbNa05nFZ1CfVqfTma37UNe8rr6dRFgRqSAVmvfD0vX0/oEPaMPhjbx0r1Yn6thdBYs39wwd7qmzEsgGAYcJxPhR2kuMqravm+wTA7Q9oHlJ4PNcx0SHQaE6EAgUgdxwDp3OzsDpRb3rege65HemNrwfgfCYb612TVTheLeXbScVmEftqLitfDtvF2rbfKUW27V3qPT1OwqWYOJfi6SQwVcEJD3JY/8zdOiszQGYNGfaSMMyXtWhNGSCQDoTyAplUee8TtQlrwv/debvnaldTlsqzCjk+QT6AhGpLvzDtaXcdX+QdvEmZB+Xf0zb+SG/7cjHtK9qX9zr83W0Hd/Iyh8uWljFQwBtdciHTBBwj4AxQoyqWqyjfm0OgFKWewFe54/zdSgOmSAAAg0JhIxQnSPQJrt1XVRC9ZltZpM6nmFm1IUuzjQz+XuYMozMuvj5ldHK45/qjV2tv49xXP3SmtK6v4PVh6i09hBvrVvesEKPHBmbuWPR93LfK/GIOlADBOwi8BqP/Y+yS9jJcuzZDfBkqcd+C/lbngz43LGf+AQBENBLIGpF6ybX6Zhgp1fz5KWbJHd9M3cttvpNHiFKepfA7TpVM3QKf/aSOWoewEqddUA2CIBAehP4Ys6HmzMphm0Z0/syCKL1qznwzws6DdPqACjFeYzhdzoNgGwQAIH0JZBtRNdOz9o8LH0JwPLgEpC32xn1rzFO2h2AAe+e+yRXrJYEIoEACICArQRuyl0V45cMrXOZbFUYwkAgHgKCtlJu7RPxZE0lj3YHYObMmRaHBkYvQCqthLIgAAINCHQwK98aGN6HfUcakMGBABC4TQykFve7TtVO7Q6AUnD3vraP88fWVJVFeRAAARD4hEDtLXkrsbsSLocgEthO5TUPO2GYIw7Aym88EOFtgu90wiDUAQIgEHwC54b2L+lqlncPvqWwMO0ISPqtmEQ1TtjtiAOgDCk7XPgAbxO82wmjUAcIgEBwCfCAf+kPC97tG1wLYVkaE9hOlTV/d8p+xxyARVc/Us1BQe92yjDUAwIgEEwCkzK3vldAtcXBtA5WpTUBSbc59favODvmAKjKItlVf0IvgCKBBAIgkAyBkLC2fTX3g6HJlEUZEPA4AfX2/5CTOjrqAMybMK9CWMZvnTQQdYEACASHwLU563aFycoIjkWwBASOERC/cPLtX9XqqAOgKsyKhu7jj83qOxIIgAAIxEsgV0RWj8/cjpC/8QJDPj8RWE9W9aNOK+y4AzDr8lm1PInn104bivpAAAR8TUD+NO8dk+8d/B8SCASMgJQ/FaMp6rRVjjsAysCyolLl6ax32ljUBwIg4E8C3YyyJWeHD5zpT+2hNQg0Q0DSuzSq9n/N5NB2yhUHYNHoRVGODnizNqsgGARAIEgEqm7JX9k9SAbBFhA4TsCgH3HMf+v4bwe/uOIAKPueu3T2U/zxhoO2oioQAAEfEhiSuXtpe7Oqow9Vh8og0BKBV8TImpdayqTrvGsOgDLIEvIH/MHhAZBAAARAoCEBQXL/DTlrBjQ8gyMg4HsCFglLPQNdS646AM9fMmcpd32o3QKRQAAEQKABgcuyN73Ps//zG5zAARDwP4GHxcjI226a4aoDUGe4EfsRfzoS99hN0KgbBEAgMQIZFNv0hewNwxIrhdwg4AsC5STMW9zW1HUHYO60uZt5QuAf3QaB+kEABLxF4Du5aw+ZJEPe0gragIANBKT8vRhZucsGSSmJcN0BUNqbZuxWkmJHSpagMAiAQGAIFBq1q0oyd2DsPzAtCkNOILCdamrvOOG3a1894QA8c/EzZULIH7pGARWDAAh4iUDs53krcr2kEHQBAfsIyB+ICVRhn7zkJXnCAVDqz53+9L/5Y2HypqAkCIBAEAj0DpUu7hU63CsItsAGEKhHQPDS95G1s+odc/GHZxwAxcAU8jsc5zPiIg9UDQIg4CoBWXFz3tu9XVUBlYOAHgIc6ldexyvfPLP03VMOwJxL5qxj7vfqYQ+pIAACXidQkrl7eRujpr3X9YR+IJAEgT+LkbXvJVFOWxFPOQDKSmFYv8CEQG3tDcEg4FkChpS7v527Grv9ebaFoFgKBPaSVTMzhfJainrOAcCEQC3tDKEg4HkCX8jd8FEmxXI8rygUBIFECQj5Xd7trzTRYrrze3ZrzSmzL1nAxo/RDQDyQQAE3CeQKWIfzCp6uTevBvLcS4n7dKCBzwm8IEbVTPKiDZ79x4YJgV68XKATCOghcGPue1V4+OthC6muEigjMr7hqgbNVO5ZB0BNCLSkuKcZ3XEKBEAgAATaGVVLh2fsPi8ApsAEEKhPQNCPxaiq7fUPeueXZx0AhcgIR3/OHxu8gwuagAAI2ElALfv9Wf4KzPq3EypkeYSAXEq7a/7qEWUaVcPTDsDcqXMreUXAl1jzWKPa4yAIgICvCZydcWBxN7O8u6+NgPIg0JBALZn0VXG5t59dnnYAFNNnL529hN8SsFlQwwsMR0DA1wT43/Xh/8tb1dfXRkB5EGiUgPyNOL92baOnPHTQ8w5AHatQ7Cf8iaEAD104UAUEUiVwUea2VQVUW5yqHJQHAY8R+IAqam/zmE6NquMLBwBDAY22HQ6CgG8JhMja/rXc94f61gAoDgKNE7A4mt01YhLVNH7aW0d94QAoZBgK8NaFA21AIBUC/PDfESYrMxUZKAsCniMgicP9Vr3pOb2aUMg3DkCd/keHAtY3YQsOgwAI+IBAroismZi5bYgPVIWKIJAIgY0ka36cSAG38/rKAfhkKODLDA2rAty+clA/CCRHQN6Ut0ryBED+DwkEAkMgSpZxFYf7LfeTRb5yABRYNRQgpcCOgX66yqArCHxCoItRsaR/eD9m/uOKCBgBOVOMrnrLb0b5zgFQgDlA0E/5A6sC/Ha1Qd/0JiBk9S35K7qlNwRYHzgCgt6gPf6Y9X8ye186AGoowDKsz7MxtScbhN8gAALeJDAwY+9bp5iVnbypHbQCgaQIHKaYuMrrAX+assyXDoAy5vmLn1nBUQJvbsowHAcBEPAOAYPkge/nrOnvHY2gCQjYQEDKb4rR1VtskOSKCN86AIrWs9Nn3yWJ5rhCDpWCAAjETWB69ua1eaK2IO4CyAgCnicgHxMltf/2vJrNKOhrB4DnEUsKR65m+7Y1YyNOgQAIuEggbMQ2XZW9friLKqBqELCbwGbKrP2O3UKdludvB4BpPTfluUNSyC/wVywNdPrqQX0gEAeBb+esPWCSDMWRFVlAwA8EoiSNK8VQOuIHZZvT0fcOgDLuuUvmvC6kuLU5Q3EOBEDAeQIFRu07YzJ2DHK+ZtQIAroIyF+JkqoluqQ7KTcQDoACNuC9c37FH/OdhIe6QAAEmiVg/TT3ndxmc+AkCPiLwEKyan/tL5Wb1jZQ0bimzZnW3pJiFa8O6NC0yTgDAiDgBIEeoSOv31Pw5gVO1IU6QMABAttJhAeIkeX7HKjLkSoC0wOgaD1z8TN7LMtQkwItR+ihEhAAgSYIyIpb8lb0buIkDoOA3whEeJe/zwXp4a8aIFAOgDLo+Utnv8gff1DfkUAABNwhMDJjz4o2Rk17d2pHrSBgMwEprvPTLn/xWh84B0AZnh0Jqx2ZXogXAvKBwP+3dy5QUlRnHr+3unt6ZnqeRME3vtBViY/ARkRmpscIMQwDM4MQjQ+ym4BxzarZdUMSyRGNnhxOjuaoa07UZDWL0cAcmRmGwegAIm8VZEQeooA8w0PlDdOP6ar9Fys6L7B76Oq6VfWvc/p01a1b3/2+31fd96tb90EC6SOgGcauf89bNTB9EimJBGwkII2pMhx53kYNLCvalQFA7djaRDweMIcGbrCMHAWTAAl0S+DW3A0bskWCnf+6pcNEhxFoEf7YXQ7TOWl1XRkAmNa/PrZ2r0z4KtHL8UDSNJiRBEjglAhky8T672dv5KQ/p0SRF6tBQO7FqtU1crBoVUOf9Gvh2gDARNV486sfYkTAOOyyU2D67x1KJIEuBO7LW3VESsPV/ytdjGaCGwnoQjduk2WRT9xo3HGbXP9Dbaypa8AkQQ8fN5jfJEAC1hDoLSPvDAns4oI/1uCl1IwSMB6U5VGzQ7mrN9cHAKb3GqvrfoOvaa72JI0jAXsJtE0qWHG6vSqwdBJIAwFD1IvS2JQ0SFJehCcCAHPRIIwMMOcHWKG8R6ggCTiQQH/f3iUX+A5e4EDVqTIJtCfwnjCid0hzoTkPbOgj551t+Ks1fTVNfxcW80nFO26npRYTwJ/IganFcxOFMtbL4qIongSsJLBD6NogWd663cpCVJLtjRaAL4jPHj1jC/oD1OAwppITqAsJOJnAsODWFlb+TvYgdQeBg0Iaw71U+Zte91QAYBqMToGL0Lbj+HWcTVu4kYDdBLDM77a7QusG2a0HyyeBUyAQR4P/zbI0tuoUZDjyUs8FAKaXmqrrnzOk8YgjPUalSUAhAj/K/XB7QOhBhVSiKiSQGgEp7pXhaHNqF7kjtycDANN1TVUND6HJ5xl3uJFWkEDmCeTK+OoR2Zv59J959CwxXQQM+RtZGv1jusQ5TY5nAwDTUTmxrPswUVCd05xGfUlAAQLGxND7BjoAeqojsQLcqULaCMhpoizyUNrEOVCQpwMAc82AnDb/bXgdsNiBvqPKJGAbgbN9R5d9K+vTb9qmAAsmgVMjsFAciYzzynC/E6HydABgQkEQ0Jqla6PwOuDDE0FiOgmQQAcCsUl5y8/ukMIDEnAOgQ9FIFolh4uoc1S2RlPPBwAm1rqaus8TCd9Q7G6zBjOlkoB7CAwIfLrkHN+R89xjES3xEIFtok3ehAV+sNAPN76/a3cPVMyo7o+FTBYiqahdMndJgAS+ICANsfflXnP9eTJWQCgk4DACe4QwwrIsts5helumLlsA2qFtqqlbjcNqfDzfNNQOC3dJ4EsCo7I3r2bl/yUO7jiHwH4sCnsTK/+ODmMA0JGHmFVdP98w5B1ITnQ6xUMS8DSBgJbYNC53/XWehkDjnUjgoDD0YbIsvtKJylupMwOAbuiiJaAW70Z+gFNt3ZxmEgl4ksA9OWs/90s94EnjabRTCbQKKUfKcNxcA4ZbJwIMADoBOX7YWF0/HSMDbscxWwKOQ+G3ZwkUyFjLd4Lb/9mzAGi4EwmYa75git/IW05UPhM6MwA4CeVZVQ3T0BLwY2TRT5KNp0jA7QT0X+Wt5HS/bveyu+xLCMO4XZZFZ7vLrPRawwDga3iiJeBFtAQwCPgaTjztXgIX+g4tuSKw9zL3WkjLXEYAD2zGOBmO1brMrrSbwwAgCaRoCXgBHQPHIytbApLgxSyuItD6YP7yi11lEY1xMwED07v/BL39/+pmI9NlGwOAJEmiY+D/YI6Au5AdqwlzIwFvELg+uPPt3lrkDG9YSysdTkBHh78JMhx53uF2ZEx9TgSUIuoRM6rH45XAs7iM7FJkx+zOIoAb/NNpxXNycmQ8z1maU1sPEkBnbfkjWRb5iwdt77HJbAFIEd2smjozuvxZipcxOwk4jsAt2R+vZ+XvOLd5UWH09jfGsvJP3fUMAFJnZk4W9KQ05H24lK8DesCPl6hPICjbProldyMn/VHfVV7X8CjaYkfinf8Mr4Poif0MAHpCDdc01tQ9hdr/TuxysqAeMuRl6hK4P7T6sCYMn7oaUjMSEIfR7F8pS6Ovk0XPCDAA6Bm3Y1c1Vde/hJaAm3EQPQUxvJQElCJwmi/y7pCsnd9SSikqQwIdCMh9QteGotl/XodkHqREgAFASri6ZkZLQAM6S5kLCLV2PcsUEnAcgcSkvBXFjtOaCnuJwG4h9bAsb13mJaOtsJUBQBqoYrKg13RNvwmisOIUNxJwLoHL/PuWXOQ7yHH/znWh2zXfKjRRKktjq9xuaCbsYwCQJsqzR81cIH2JIRC3LU0iKYYEMkoALVmHf5n3Hmf8yyh1FpYCgQ+FLstkSfSjFK5h1pMQYABwEjipnmoc2bhG0/RBmImK0Wmq8JjfdgI3BLevKNZip9muCBUggS4EjCVCzyqR5ZHNXU4xoccEEPRzSzeBilkVxTIemAm5ZosANxJQngB6/P9jeq/moqBI5CqvLBX0FgEpa0UicqcsFxFvGW69tWwBsIBx04imfTnxwDAME2ywQDxFkkDaCfxLzvotrPzTjpUCT53AU6Ikcgsr/1MH2Z0EtgB0RyVdaYaQI+qrHoI488ONBJQkkKO1rZlW1Hw5/gz4f6CkhzyplDm/yk+xnK857To3iwiwBcAisMfESmFg1sDJWERoPP5Z41YWRdkk0FMCE0MtCVb+PaXH6ywgcAhzrGJ2P1b+FrDtIJIBQAcc1hw0VjX8CRMGVeBP9oA1JVAqCfSMwFm+o0sHBD69smdX8yoSSDuBHULXS2U4+lraJVNgFwIMALogsSZhZk1dc0IaJZC+xZoSKJUEUiYQ+3Xe8rNSvooXkIA1BFZhdr9BsjzeYo14Su1MgAFAZyIWHs+uavggYMgBKILTV1rImaKTI3B14LMl5/iO9E0uN3ORgKUE6kQkOhiz+223tBQK70AArdLcMk0g/GbYn7+v+FFDGhMzXTbLIwGTAH74+18qmmcUaFFO+8tbwk4CCdyNj4rSyCNSCt1ORbxYNgMAG71eUVc1AQ54Gipk2agGi/Yggcrg5gUTQutKPWg6TVaGgPE5Kv8foLPfG8qo5DFFGADY7PCK+lElmiGnYc6AM21WhcV7hIBf6p/UFjWfjW8Gnh7xuYJmrkTlPxqr+X2ioG6eUYl9AGx2dVNVw8K2eOAqqMEo2GZfeKX4u3PX7mHl7xVvK2inNKaKUHQIK3/7fcMWAPt98P8aYNKgioZRP8dwwceQ4FNFLerhLgL5Wuz9l4vmmgEnNxLINIEoCpyIJv8nM10wy+ueAFsAuueS+VRMGoTWgCmGpg8V0tiVeQVYogcI6L/KW8lmfw84WkETMb5fC7PyV8szDADU8odoGjXzzYCumU9ocxRTjeo4nMD52uGl/f17udyvw/3oQPUXCN0/EEP8ljlQd1erzABAQffW1dTtwWJCN0G1h/Hh0BgFfeRAlVonFS6/wIF6U2XnEsB8/sZkoUe/I8uPsFVTQT+yD4CCTmmvEkYJ3Ih+AS8hrU/7dO6TQCoEBgd3zf9laGU4lWuYlwR6TEBixtOEdjue+hf1WAYvtJwAAwDLEZ96AZWNlecZCW2aMOSgU5dGCV4joEljz9+K5ubkyHi+12ynvTYQkLJWJCITsITvfhtKZ5EpEOArgBRg2ZW1sbJx6+HCAyWYOfAXiNi4qqBdjnBouWOyN6xn5e9Q5zlL7YNCyjtkaWQsK39nOI4tAM7w05daDq8fdS0mDpqKhH5fJnKHBE5AICD0jbW93ujrE4b/BFmYTAJpIGAsE5p2myyJbEqDMIrIEAG2AGQIdLqKwYJCb0t/4moMFXwqXTIpx70E7g99sJ+Vv3v9q4Bl6OgnHxa7Y0NY+SvgjRRVYAtAisBUyl5ZV1WFKYT/CJ3YQVAlxyiiyzd80RUvFs4zV5/kRgJWENgsJDr6lbYutkI4ZVpPgC0A1jO2rITG6vp6tOv+E6K45ywrhIKdSiAxKbSi0KnKU2+lCZhDk/8bw/u+ycpfaT99rXJsAfhaRM7IUPFqTYWUxrN4NXC2MzSmllYSuMS/f+HjBUtLrCyDsj1J4GOhS/Twj8z3pPUuM5otAC5xaNPoGU0BIcwZBF92iUk0o4cEENUffjB/xaU9vJyXkUB3BDD6SE4RR/DUz8q/Oz6OTGMLgCPddnKlR9SPGm4Y8hk49/yT5+RZNxK4Ibhj/s9Cq8JutI022UHAWIrlycbLIbE1dpTOMq0jwBYA69jaJnlWVcNszZ+4AjMIToES6KXLzSsE0ON/57+F1nzbK/bSTksJHMVUvr9AD/8SVv6WcrZNOFsAbEOfmYJHzKi+Cv0CzE6CrBQyg9zWUn6Y+9Hi0dkbr7dVCRbuBgKzhU+7Ww5p3eoGY2hD9wQYAHTPxVWp4TfD/rz9RffA2Q9j2CB7hrvKu18ZkyPa1k3r1WyOCuHv+iss3EuNwG48MNwvS2N/S+0y5nYiAb4CcKLXUtR5fvn8tlnV9U/6DXnRFxMIcYXBFBk6IfvP81virPyd4CkldTRfFT4n4llXsPJX0j+WKMUnBUuwqi10eMPIgZquPQMt+VpAbVclrd0ZvqPLni98i4tFJU2MGdsReAsPBvei4l/VLo27HiDAFgAPOLmzibNHzVyeEw8MxrwB9+DcZ53P89hxBGK/zltxhuO0psJ2E/gH3haNE6XRclb+drvCnvLZAmAPd2VKHTN9TF5rIP4AngAmYrnhbGUUoyJJE7jS//lbjxW8U5b0BczodQLo3S+fFr7IY3KIOOR1GF62nwGAl73fzvbKxsrzjDbfo0i6HR/eF+3YqLwLR+1/qddcvUDEeqmsJ3VTgoCO5XpfFZp8gL37lfCH7Urwj952F6ilQEX9qBIsN/w7jBa4Vi3NqE13BCqCWxb8JLS2tLtzTCOBdgTmCaE/IMviK9ulcdfjBBgAePwGOJH5CARulLr2OF4NXHmiPEy3l4Bf6Num92ruHRB60F5NWLrCBFYLw3hEhmO1CutI1WwiwE6ANoFXvdimqoY5A1dddQ2mFB4LXTeprq8X9RsfWreDlb8XPZ+UzZvxJu8udPC7ipV/Urw8mYktAJ50e2pGh1/4YXZ+8b67EQxMxJV9Uruaua0gkC9jq14unsvWGSvgOlvmNrznf0QkIi/Kck4D7mxXWq89AwDrGbumhO/N/l5QiwbHodloMvoInOkaw5xniPHb/HfW9Q98frnzVKfGFhHYjXn7fy8CsafkYNFqURkU6zICDABc5tBMmIMRA7kYMTAeN89EBgKZIN6xjHMDhxf/IX8h5/vviMWrR9tg+ONCjz6LJ/6IVyHQ7p4RYADQM268CgSGvT4sFDiaawYC/4HDcwklIwRa/1Q4f18fX+tZGSmNhahJQIotQhdTxOnRP8srRExNJamV6gQYAKjuIQfoN+DZCYEz++y+1ewjgBuKzdIW+uzawO75k/LfC1tYBEWrTWA1Ovf9ToQir8iBIq62qtROdQIMAFT3kIP0mzx5svbule9XYYphs7Mg1xlIs++kMD57pXhuMCTj+WkWTXHqE1gsDDzxl0VnSdwI6qtLDZ1AgAGAE7zkQB0r6qoG4Oa6D6rfio/fgSYop/LNORsXjMv5iJP+KOcZyxRKQHK9ENoTsqx1iWWlULBnCTAA8KzrM2N45czKC0Sb/y5DGhNQYnFmSnVfKVkisQmT/pznEwaDKfe5t7NF5vz8Lwhd/l6WRzZ3PsljEkgXAQYA6SJJOSclgCGEBRhC+K+44e5GxktOmpknuxD4z9Cq5eHgjoFdTjDBTQQ2oHH/KeGPvshFetzkVnVtYQCgrm9cq1nljOohQjPuxZ9dFV5mBlxraJoMK9BiK/9aNPeaNImjGLUIYIEeMU/oxnNiT2wG5t00m/25kUBGCDAAyAhmFtIdgZENI8/SdW08zv0Yn3O6y8M0kXiiYMmmfv4D/cjCVQR2ojf//wqf/ANX5nOVXx1lDAMAR7nLncoeGz1w9cobpCHvhIU345PjTktTt6qff//CJwqWlqR+Ja9QkIA5bG8WWr5eEHuis/m0r6CHPKYSAwCPOVx1c6vqqorwLzkWN6bZaXCA6vpaq59x5IWiNw+fpkW5/oK1oK2Wvg7T9P5FxAMvyhuPYMpebiSgBgEGAGr4gVp0Q2DEjOqr0EfgdswrcAtOe+4VQWlw5/z/CrWEu0HDJPUJ7MaT/nQh9KkyHH9XfXWpoRcJMADwotcdZrP5imDFle8PNjR9jDCkOa/A6Q4zIWV1NcPYNe0bzfnZIhFK+WJeYBeBVqzENwsd+qaKvOjfOVOfXW5guckSYACQLCnmU4LAsRUJ44HvyoRvtJBGJZRy5dwCt+V8vOiWnA1DlIBOJU5G4ChOvoYm/ulYia+RK/GdDBXPqUaAAYBqHqE+SRMYM32ML+Jvu+5YywD6DaB14IykL1Y4Y7ZMrJ9e1NwPrz6w8jI3BQkcRfP+PDzt1wpfpI5j9hX0EFVKigADgKQwMZPqBMxgoDUQL8ENPQL9BsyWAcdONoTFflqw6M/VqjP3mH47Uek3weaZwog2c+ldj3nfpeYyAHCpY71uVsWroy8UWuJG3OBmMDAMnywnMOmttb7956L51zpBVw/ouBZj9RsxJe8sEW5dgkV4dA/YTBM9RIABgIec7VVTb5w+pjA7K2bOMzAUrQNDweFiFVngxxh/unDR9r6+QxeoqJ8HdNqDCn8OZuZrxgI8r8vSo5ishxsJuJcAAwD3+paWnYCAuUCRnvANNQMCdCQsQzYlRhX09+1d8NvCt7na3wn8ZkFyBDIXowMfKnzjDVEab+FSuxZQpkhlCTAAUNY1VCxTBNq9LjB73ZsVcN9MlX28HPwQD0wtnpsolLFex9P4nXYCZo/9lXjKX4TG/DlCRBbxXX7aGVOggwgwAHCQs6hqZggMn1F9iU8ag7GE8bUYWTAIpfbHx9JleL8b3PrWT0NrzNYIbukjsAOiluGzVOganvRbl6PCb0ufeEoiAWcTYADgbP9R+wwQGPb6sFDwSGjgsYBAiG+jSHNlvgvTVbRf6Num92ruHRB6MF0yPSjnMN7dt8Dud9Ccv1QkfMtkeet2D3KgySSQNAEGAEmjYkYS+IqAuWYBHiWvxlj9awxDmgHBNfgxXYpOhoGvciW3NyF33dLK7M3XJZebuUDgU3zMpnx89JVYUa9FXB/9mL30eW+QQGoEGACkxou5SeCEBAY8OyFwTp/d/bCg++VS1y7XpXEFZvK5DEHBpbio22GIIRn/4JXiOf3xQ+RvsSvZ/cCyUUh9Lcbgr8HrmLWo7NfIksimrlmZQgIkkCoB/umkSoz5SSBFAuYkRfFA/Fy0GFyEFoOLERBchHfS5lDEiybnLT80ILjn+hRFuik7ht4Zm1DBb0AItAGGbRCab4No82+U5Yc+c5OhtIUEVCPAAEA1j1AfzxEwlotccTTrfJGQ52F62XNREeJb74sn3r6AYU5vfCY++Q4DE4W+aKqXu1DBm0vgmt/bhNS2YB/f2G+LbmUvfId5leq6igADAFe5k8a4lYAxWwRFTs7pwtfWG60HfRAonC4M4zRUsKehMs3FE3RIaLIQaXlggBUEZQjpRUg3f+O5OO7UwdDovIiS2dyOxonjmxHD3hF8MHROojI3DmA/jnIPCkM30/YhbT+ClH1Iw7eBY/NbR6Uf24WKHfK4kQAJqEzg/wD03n6tqfpcrgAAAABJRU5ErkJggg==;" vertex="1" parent="1">
          <mxGeometry x="540" y="160" width="80" height="80" as="geometry" />
        </mxCell>
        <mxCell id="zmiHmm3sUyLOldAqRDe1-10" style="edgeStyle=orthogonalEdgeStyle;rounded=0;orthogonalLoop=1;jettySize=auto;html=1;entryX=1;entryY=0.5;entryDx=0;entryDy=0;" edge="1" parent="1" source="zmiHmm3sUyLOldAqRDe1-7" target="zmiHmm3sUyLOldAqRDe1-4">
          <mxGeometry relative="1" as="geometry" />
        </mxCell>
        <mxCell id="zmiHmm3sUyLOldAqRDe1-7" value="" style="shape=image;verticalLabelPosition=bottom;labelBackgroundColor=default;verticalAlign=top;aspect=fixed;imageAspect=0;image=data:image/png,iVBORw0KGgoAAAANSUhEUgAAAgAAAAIACAYAAAD0eNT6AAAABGdBTUEAALGPC/xhBQAAACBjSFJNAAB6JgAAgIQAAPoAAACA6AAAdTAAAOpgAAA6mAAAF3CculE8AAAAUGVYSWZNTQAqAAAACAACARIAAwAAAAEAAQAAh2kABAAAAAEAAAAmAAAAAAADoAEAAwAAAAEAAQAAoAIABAAAAAEAAAIAoAMABAAAAAEAAAIAAAAAABklm5sAAAIyaVRYdFhNTDpjb20uYWRvYmUueG1wAAAAAAA8eDp4bXBtZXRhIHhtbG5zOng9ImFkb2JlOm5zOm1ldGEvIiB4OnhtcHRrPSJYTVAgQ29yZSA2LjAuMCI+CiAgIDxyZGY6UkRGIHhtbG5zOnJkZj0iaHR0cDovL3d3dy53My5vcmcvMTk5OS8wMi8yMi1yZGYtc3ludGF4LW5zIyI+CiAgICAgIDxyZGY6RGVzY3JpcHRpb24gcmRmOmFib3V0PSIiCiAgICAgICAgICAgIHhtbG5zOmV4aWY9Imh0dHA6Ly9ucy5hZG9iZS5jb20vZXhpZi8xLjAvIgogICAgICAgICAgICB4bWxuczp0aWZmPSJodHRwOi8vbnMuYWRvYmUuY29tL3RpZmYvMS4wLyI+CiAgICAgICAgIDxleGlmOlBpeGVsWURpbWVuc2lvbj41MTI8L2V4aWY6UGl4ZWxZRGltZW5zaW9uPgogICAgICAgICA8ZXhpZjpQaXhlbFhEaW1lbnNpb24+NTEyPC9leGlmOlBpeGVsWERpbWVuc2lvbj4KICAgICAgICAgPGV4aWY6Q29sb3JTcGFjZT4xPC9leGlmOkNvbG9yU3BhY2U+CiAgICAgICAgIDx0aWZmOk9yaWVudGF0aW9uPjE8L3RpZmY6T3JpZW50YXRpb24+CiAgICAgIDwvcmRmOkRlc2NyaXB0aW9uPgogICA8L3JkZjpSREY+CjwveDp4bXBtZXRhPgpqckJFAABAAElEQVR4AexdB4AUVdKuntm8sOwuS845ByWoCKKAgaRiwBxB74y/iWC4E9OJ6fT0PMOZODPmhIllVVRUUBEEyTnHZZcNbJj+qwYGh2ZCvZ6eme6ZKl1mprteqO91v1evXr16AEKCgCAgCAgCgoAgIAgIAoKAICAICAKCgCAgCAgCgoAgIAgIAoKAICAICAKCgCAgCAgCgoAgIAgIAoKAICAICAKCgCAgCAgCgoAgIAgIAoKAICAICAKCgCAgCAgCgoAgIAgIAoKAICAICAKCgCAgCAgCgoAgIAgIAoKAICAICAKCgCAgCAgCgoAgIAgIAoKAICAICAKCgCAgCAgCgoAgIAgIAoKAICAICAKCgCAgCAgCgoAgIAgIAoKAICAICAKCgCAgCAgCgoAgIAgIAoKAICAICAKCgCAgCAgCgoAgIAgIAoKAICAICAKCgCAgCAgCgoAgIAgIAoKAICAICAKCgCAgCAgCgoAgIAgIAoKAICAICAKCgCAgCAgCgoAgIAgIAoJAgiCgJYgcIoYgIAgQApO+rAfulBZQ62kBmtYkBfQmug6NQNfzwaXle3RPvqZrWQBaBv3p4EkHcLkAPCmgAX5qmAS/aeDBz2r81PFaDYDuwXQVoOmVuq5XulyuMkyzDXRtj+aBHZACW2t02Ah6zUbI9KyDPfW2wqMDKqRRBAFBwL4IiAJg37aRmgkCBxDQNbj1i07gcfVP8bi66G5o5/HozXGAb4AMOTha44Cu44COw7CdSPeqElVYpUqUYC/+KkYNYysqFKs1j2dVTQosgOran+Dhk7fZqdpSF0EgWRAQBSBZWlrktDcCN36WD2kpJ6VocCTO2Dt7NK0VztobazrUw4EeZ+kJTR6UrhxNDbtQOdjkAn2VpsHiGnB9Bz/At/DVCWiBEBIEBAGrERAFwGpEJT9BIBQCUz7KgorsQSmafkItaH3Ao3fAwa4RJqEZvFAgBHTYh8rBFlzCWO4G/ecaXSuCH7VCUQwCgSXXBAE+AqIA8LESTkFADYHJRa1TtNrzcfV8ME5xu+LLRib7RJ/Nq2Fknht1AijDpYUNLh3m1+ruGVBc5x14tm+5+SwlpSCQXAiIApBc7S3SRguBK+elQv2S4W4dxqL3XB803bfGomRWHy28g+dL/gZrXKD9XKvrb0Lm7E9gyhRaYhASBAQBAwKiABgAkZ+CAAuB+75pklJSdVGtrp2KL1EX9JbPZ6UTptgigI6IaCrYicsH8zWt9hNPevULMGVESWwrIaUJAvZEQBQAe7aL1MpuCEyenefSKi/Ra93naJreHatXx25VlPowEcDdCKgU/Ka54U1PZeZLsl2RiZuwJRwCogAkXJOKQJYgcPZ03GyXd7rmcV2OTnrHYJ55luQrmdgLAV3Tdc2zxaVrX9W69Sfg/mFz7FVBqY0gED0ERAGIHraSs9MQuLmoszvFczUuGJ+M8W/a45Y03LYulGQI7MNAR3+4Ne2dGvA8AQ+cuCfJ5BdxkwgBUQCSqLFF1AAI3PbVCe4azw04ETwO7+YG4JBLyYoArhPoLm0r7jL4uDaz9m6YcuK6ZIVC5E5MBEQBSMx2FalCITDh81GaK+UGfPgHIFtmKNZEuJeW4oJmddOgVX4mNM9Jh+a56dAgOxUa1U2HC19fxBJxUNs8uPjIRrBjbzVs3lsFm0r2wdrdlbBudwVsL8O5MrnaJThhhOStLk3/qBb0+2HqsFUJLq6IlwQIiAKQBI0sIuLGsIlFY9B575oDg37Cbs9rWCcNjmqZAwNa1YPeTepCpwZZ0DI3A4MJBn4K3JNnBb5huHpWj4bw5gXk+3g47avxwLId5bB0ezn8uK4E//bAzxtLoRKvJyzp+i5Nc8+o1V3/gAcH/5GwcopgCY1AkG4hoWUW4ZIFgUmFA/ABvxv/BqHIaYkoNs3kT+pYH07qkA9H46Dfvr6aQcMKBSAQrlW1Hvhl4174bk0xfLp0J37uAbqWiETbDNEy8GZttftOeOSEHYkoo8iUmAiIApCY7Zq8Ut02s5G71nUXOnKNxb35Cem537d5XRjRuQCGd6oP9N0VbHrPeAqipQAYiy7dVwuFK3Z5lYGPFu+ArbiMkHDk3VEAyzS35wnP8l1Pw1tjaxNORhEooRAQBSChmjNJhZlSlOKq1K/EQf96PBmvI7puJdxz3aEgC87r3cj71xG/W0WxUgD861vr0VEZ2A2vzd8C7y/aDqQcJB7pNbi/cI7udt8O9x8/O/HkE4kSAYGE6ygToVFEBiYCt37TVdOrH8Lz6E/E2X4qM5Vj2LLT3HDBEY3hsr5NoH+LnKjUOx4KgL8gFdUe+HDxdnjmx43w9api/1uJ9H0n7id9saa2ZgoefVyWSIKJLM5GQBQAZ7df8tV+yhSXq/K4v+oefSJavlvFCwB6cZrmZED9rBRYuLUM481a5wVP6/jj+jeF8f2aQn5WdPWaeCsA/u1HToRP/bABXpy7GfZWWWcVyE5zQddGdWDNrkrcsRDHpQeNNkvov2B04hsxvsC3/rLLd0EgHgiIAhAP1KVMdQS8a/vaVBxmz8HEap5u6qUFTEEe9qd2KYCL+jT2bnsb//YSWLmzIiCvmYuD2uTCrSe0Qoe++kG99s3kGyqNnRQAXz33VNbA83M3wSPfrIMtpdYN2Of2agRTh7eF79eWepcfvlq1G/bGafkBn+OtqMA+6slwPQJTTqjxyS6fgkAsERAFIJZoS1nqCEye1Qcf0scwYOuxmDimz2uq2wV9m9WB89AMT6b43IwUoPXrKTNXw9SitZbtfR/SPg/uGNIGBreNfRwiOyoAvoeElgee+2kTPPzNWtiwZ5/vckSfzTAOwivndYPjUNki2oj5vvTzZnj11y3erYwWGnKY9dRRw9He9VRVXwOPnrKLmUjYBAFLEIhph2pJjSWT5EBg0qzz0WJ6Lzr1tYmlwLkZqXB6twL469HNoV+LuocUvRlnoxdg4JyvceZoBZ3QLg/uPqmtd8++FfmZycPOCoBPHoozQIP0Pah4URtESikuDe4c1gYmo7XFfwdFVa0O7/++DV6YtxnIOlCNv2NIqFrq3+qQcTU8MJAXnSmGlZOiEhMBUQASs12dKRWu76dUDLoNe8Kbca4fs+kw7aU/r3djuGFQC2iFQXMC0Vcrd8OFbyyyZACi4Dw08FNwnXiTExQAH0bl1bXw7+83wD9mrbFk5wApYK+c2w0aY5TEQPTd2j3w2Oz18NnSHVCO1ohYEaody3S9dgI8eNKHsSpTyklOBEQBSM52t5fU181Id2elPYLm1/G4+J0ei8o1RVPwuH5N4JoBLbxhcYOVSSFu7ylcA/fiX6ThbhuhD8GUE9vA5ejcR7NQOxBXARjdrSG8f1HgSICxloPCEN/55WqYhlYBWpKJhOg5eAMjHB6LQZRC0bwNJeiTsB4+/GM7VMZIGcDQwxt0j+cWeGjYm6HqJvcEAbMI2KMXMlt7SedsBKZMT3NV5t8LOlyP66BRH/hz0vdvq7t9SGtogh1/OCJP9EveXOzdqx6ON9R9itNDHv0PjmwPOekpoVgjvkdjE5WXwnyzo6EAVGEdqPxo6zjzN+2Fq95bAj+tL4kItzT09Xjy9I5exYyT0dz1pXD/V2tgxpIdsVom2KZp2t9qpw55llM/4REEuAgwuwludsInCDAQwBl/Slb6VBwnrkbuwPZXRjYcFjeOQie2z4d7TmkHRzatw0ni5SGnszH/W4DhbEvZaQIx9mhcB54+ozMcjfH5o0E0/yVH9kqcCZejL3kNXihI1yDLzSstGgrAjn1YF6wT7r6DTKxHplvzfufVSI2LrDLP47bBCZ8sj3hZ4ArcevnEaZ0gFevLISr7PQxk9MBXa+GXDXtRj43MGsEocxsGufq754FhzzB4hUUQCIsA70kPm40wCAIMBKZ8lOUuz/oXxum7BLmjt8Edn+reTevC34a2gdO7FjAqdijLN6uLYewrC3HPePWhNxR+ZeAJfHeiuf/GgS3ZA4pC9lCBA2wZjvb0aRx27KIA+MtDFgEMmQDZOLimomJgNa0rroRr3l+Ks/KdEWU9DM9UeOP87pCXqWapIWvRo+gv8Ph362FXufnnhld5baumeybVPjhsGo9fuASBwAiIAhAYF7lqJQJXzkt15+/5J06Y/oLZRm3gz8SRZRya2snBrh5u2TND/8N15b+8uzSig2uOQOVj2jldoVujbDNVCJqGzPt7cdCn2XUoB3U7KgD+QpFlIBs1gmy0Dli9TEDbBm/+eHlEgYQo1PKMy3tBGzw+2Qwt2LwXJsxY4Q13bGWAqMPqosFWfCSugqlD3zvsnlwQBBgIiALAAElYzCPgnvzl5brH9Rh69R+6p858loelbFc/C6aOaAdndGtw2D2VCzR7uwkHD1RUTBGtvV89oDk8NLw9pKMFwCqqxAG/9MBsn5On3RUAnwzU+ZBVIAeVASutAqsw4t9lby2Gb9GSY5ZoZ8BHl/aCI5uZf2zpOOR/4TP14FfroLgielYBPHNgve72nAP3D5tjVl5Jl5wIiAKQnO0efaknfTnSBe7/ooG6STQKI5PyWb0awyPoWBdsGxe3XFrLvfnjFV7zLTeNka85bh988eyuMKSdNbsXSQfZi2v6pdW6d13fWF6o305RAPxlyEBrACkC9GkFeQM2Fa6FB4tWQ43JnQLksPnORT2AAjVFSt/ilsIbP1qGvgKR+ZSEqgc+Mz/qKSlnw32D14fik3uCgA8BUQB8SMinNQhM/voITa95GR+sbtZkeGgu1CnfNqQ13Ih79q3YSkdn1F82/Q9447ethxak8GsIhu59/dyuUIDxBCIlGvjLcODfgwN/KDN/qHKcqAD45ElHw0lOquZ1HvRdi+SzcGUxXPj677DN5PHDtEPgxbFdgMIIW0E70D+ArEyv/7o14m2lQepD+uy7uuYZj+cN7AnCI5cFAS8CogDIg2ANArfOrK/prlcwZO8p1mR4aC6t8zLhX6d2hFFd6h96I4JfFFjmjP8thC+Xm4vASlHkJqEycvew1odElDNbJZrxRzLw+8p1sgLgk4EUgbw0a3YP0I6Oc15bBD+sNbckQO38xGkdMTpkM1/1Iv6swiWd+2at9sYWqKjBNR7rqQq9Q//heXDI3bgx1OSilvWVkhzthYAoAPZqDwfWRtdSJn91v0f33IyVN+d5F0LqHk3qwHNndIG+hrC8IZKwbpWh1/ap0xYARfgzQ3RK3/8witzwjvlmkh+Shtb4d+OM36r4MomgAPgAysYnKhctAsydeb5kh33SMsDNn6yEJ79fZ8rHg/w7Hh3VEa47tvlheUd64RU8h+CGj5bD7ujsHtjpcWmXw/1DJKpgpA2VgOlFAUjARo2ZSJNm4Tq/ZxrOMKyblh+o/HFt8+Bl9KRvXi98wB5VeSMd/Ds1zIYPL+kJdGxvJISTQNhdtX8rXyT5GNMmkgJAslEnlYOrK7Q0EGmH9er8bXDlO4tNR/O79+S2eGJja6yR9fT5sl0w/u0/gCIdWk34qP2ku1NPh38ct9nqvCU/5yIQ6fvkXMml5uYRuHVGA82TNh274+PNZxI45ZB2+fAyrqdH6tgXOHd0rKOZ/0sLTB/oMxjr986F6vvEjfUpQadwMvdHwzabaAqADzty/MzHZYFIHQVnr9kDZ79McR7MHSx014lt4Y6hrX3VsvyzaFUxjENFYO0u646aPlDJWtSgHsMjiCfLEcSWN5sjMxQFwJHNFqdK42E9rvKB9+KcbCJ2JG7LaoFP4UnoSDcNna0aYrz8aFHJvho45bn58KPJ0LGXH9UMnsK14EicDylM7i6c9dNntChRFQAfXrQskIfWgEhiCKzYWQGjURFctr3Ml63S530nt/OeJqiUSJGZFIFL31xk2VHIfsXv9GgwFuMHzPK7Jl+TEAFRAJKw0U2JfNOXR7hStA8w0HwLU+mDJBqEpv43z+8GdFBONInOlh/+wnyYbWJvODmB3T+iPdyCOw/MEs30acZPM/9oU6IrAIQf+QSQNYBCDZul4soaOG3aQowXYM4P5DF0Sr0O4z5Em75CReCCN36HLSXmLBbB6oeHDX2u11afCQ+fbE4LCpaxXHcMAuhrKyQIhECAovjdWviCK9X9s5WDfxdcR1828Rj46sojoj7407nuZ7+60NTgT2cJPDmmc0SDPzn3ba2MzeAfoiUT6hZtkdyOZw6QNcXsMkouRov8cnwvoJMOzRDt639h7iYzSZXSHN82FzbeNhDevqgn1LXwMCkN9JNd7pTt7kmzLlaqkDAnDAKiACRMU0ZBkNtmnujKK9mq41Z5DOhjibWoRb0M+OHafvD7TUdBO5OhVlUkpU3RF09fDJ+aiBGfhtH8XsW48Ff2Nx/LiPb0b8HBP5omfxU8Eo2Xtk5Ggi/t83/ngm5wcZ+mytDgowV/fW8pvL0Qz+iJAY3pVgDFdx0Hj47uCGnkEGENZaIKNU2bVDgfJhQ1tiZLycUpCIgC4JSWimU9b/k8W5tY+ImrVvsCB/7Iw6Bh3Wnm8u7FPWHNrQOgX3Pz4VVVYKAO+ur3l8F0E0F+stPc8MElveDs7ubCC9OslE7F2xnBDFVF1mTm9VlYSNkyQ2TleeGsznD9wJbKySni4EVvLIbPlkZ2CJFKwdfjVsTSu4+HG7C+roj3RewvGdWJXi6Xvs41sfAGlboIr7MREAXA2e1nfe0n4qzf7d6Ey94jrMic1mpp/ZxmLqeZOJkvkjrcNXM1/PfHjcpZ5GamQuGVR6Jjojndh7b30ayUDu0Rig0CpHCRsmV2SWD/Pv/2MHlIG+UKUzTJsa/+HvHR0SoFkyPqI6Paw058r07ppH7iZeCy9FTUJx71WgNuLrIq08BFyVVbICAKgC2awQaVmFKU4p5c+F90ePscvfwtObye9vLvvmswTDxOfWYVKSIvzdsM9xSuVs4mB9eFP8GT4MxaKeh4Xhr8aVYqFHsEaEmA/C1ICTND953UBr371ZUAii0x+qXfYO3uSjPFmk6Tk+6GTy7rCQtxSa0ZnkdhBXmtASm1G90TZ15iRX6Sh30REAXAvm0Tu5pN+KK3q8KzHk3m47FQfP8jo6Y56fDbjf2hCB38yJQea/pq1W64CtdmVYmWKWZc3huObmFO/ynFwYcc00yePaNaXeEPggD5W5ASYNbv4r6TzSkBW0qrYOSLv+HJfybXIoLIw7ncFZ1q100eAE+f2QVS0a8hctLSdE17SZtc+BVMKaoTeX6Sgx0RsOJJsaNcUicWArrmunXWXS4XevgDROwAlIr2/ifHdIL1tx0L3RvFp89YvK0MzsAgL2SWVSEa/D8d1xuOaWlu8CfTM0X1E7IHArRLgJQAssiYIVICJp3QWjnpH/j8jTHx/CkXFCTBFf2awN57joPx/ZtZoMpjFjoMxsnBFphUODxIkXLZwQiIAuDgxouo6pO+bIlrfStwuvp3zCfi5+DMHo28jkl/xWA58aLNOAMb8cJvsEdxBpaFVoqPLzM3+NOQT7N+Mj0L2QsBX9uQZcYM/QPD/l53bEvlpN+gBYp2B8SLUlwueOaMTrB8wgBoYc2yQDZ2EDNckwpfhLOnx96kFy8gk6DciDv+JMAo4UR03zZrrEtzLcdQvm0jFY4Oxfn1hv4wHbdSkQXAKlI1o9Ne/3PQEWt9sdoabArW+XXc6jewtfrMP9JZplVYST6hESDLTDEGYTJDj6Kj3YUmtghOQx+Ux75dr1ykmt0qdPZt8zNgDS4L/Ou0TpacVomlXepqm78KbvrcfESs0FWWuzFGQBSAGAMe1+JQeyctXq/V38ToKRGH3iMz47a/D4Keja0z99O6bTnO2FTDvF79/lL4bo3aca/k+f2f0zvDqM7qZxnR4L8NZ/5m15nj+hwkYeEUgZGWaVSJnpEXzuwEo7qqbwedOGMFfL5MbXsgdcgl6MGoqgCHkuvaY5rBjjuPgyObqSu5h+ertXSlpKxEh+HzDr8nV5yGgCgATmsxs/XFIB9a2/pLMPmlZrPwpaOwvSsmDfCaGa2a8/u2zpXgTC0LY72r0FNzNpqKyPaPU9rDOFwzVSWqK60vi6e/KnLx5adlGtoqqEoUJ+CN87rBMa1zlZJSjIALMEbASjx3QIWy0Sq1GZ8vKw+LqocnKM29ri9Mv7AnpKpq18bKa5CKDsOvuSYXTgeMFGq8Lb+dg4AoAM5pK9M1dU+cdYbL5VmDg3V705lgQg2nQ1NObAOb7hgIbfKs2XJEM+kd2ClvqtCBvlN8dxX6Fmf9N328XCWJl/eGQa1g4mD19V0a9CPZZqZcUUlgKQIULIh8NlTVgMxUF3yER0B3Rm97FdpdXg1nvbIQyqv53oi0klYf34M9aLVYX07+Jaq1DV7DM7sXeLfmDsbwwhETRtjW8vYsgRsL4+f4E7EQyZ2BKACJ3P50et+kwhd0TX8HxUyPRNQ2uJ646faB8LehbSLJ5mBa6tJobXYjDvxk8ieiTk9lcrIRz02nACyqHv+nYez3h0e021+owr/UD5PZnxQVIeciQDsDzCgBeZkp8NGlvaBBttrq2YLNe/F4XzK+8YmOPK5zwBK2C88A2oCKQKVFDx4pM7Mw0BVF5ozUbwd1lbauNFjpnlQ4mi+dcNoFAVEA7NISVtdjyowcrWLQXMz2skiyxhccbj2hFayYOACP6rXG2leOIynNbPy9s3Mwa5Vz3mvQvHrea4tgK3r+q1CvpnXhlXO7oDVDJRV4A8vQzN+iPlitcOG2HIFKVAJ2mrAEkGPdB6gEZKbiCK1AFI76P3M2KKTAI49RIcax2kvkHLhtH3iXBqwyCFBkzt1TBkO/FvWU6hWAOR114g9dk2Y+FuCeXLIxAqIA2LhxTFdt0qxeroqMdTjGHWk6D0xYLyMVfr/5KLgXzz63gsgRexMOojsMYzZ1cvXwfHcV+vsXq5Sd/hrXTYcPL+0JWYqdt3fmL4O/SvM4gpdCNZMSoEpHtagLz52trkTe8skKpXDB9EaQVcz/zaAlKFous+qMCbIG/HBNH3jmzM5K1rfAmGn/p02cOQemfJQV+L5ctRsCogDYrUUirI/7tpkXukDHwD56RGr9GDwEZ+edg6BzA7U1z0DVJ49m6rA2Y8dVQ1MZP6LOrcDQyfndDvj1i2W74KGv1wW8F+wiRST8+LJe0ByjFKoQzfi34eBv1axLpWzhjT4CXiUAn01VOrdnQ7SMtVFKtg8f/vNeXwQl+w6seTFSp2EPTdYxI5EvA1nRyix6MMf3awrrMIAXRfGMhNBP6GhXRfZamFBozawhkspI2rAIiAIQFiKnMGBUv0mF/9FrtZexxmr2ST8RUzGIyKfje8PbF/ZQNpP7ZXPwKzkwbcCBP9hJbbl+Zs6DiUJ82YTr/nS8Lx3zyyUy9z8/tisc0VRtuyIpLrRWbFEfy62u8MUYAXo2zcQJuBsdYkd2UdseuGJHOfzlXbUgQWQdSw/SU+9EaxpZ1YyKtRkIm6CFjJSAv0QczEsvwG5kEUwuPMlMPSRN7BAI8ljFrgJSkgUIYKxubdKsOZjTVZHk1qlBFuyYMghOap8fSTbetDRzpq1M5MAUjGjNv67Clj8a9Gnw3743RKYBCrvxuFbKx/qSekG7E2SffwBAE/ASxQnw90nhiEiK5WvndYWOilYy8gd47qdNnCIO8tRPP3Qp4OAN/EKDPykBZk9C9M+LLHL/wXDe31zVB9JT6JdpSnd5tM9cEwonm85BEkYdAVEAog5xlAu47ZsmGKt7Cb6qR0VS0oTBrWDxzUdDHQsO76H9y+TdH2qfPHUtqlv+/jFrLRSt2K0k5iA8kXDqyW2V0hAzrQ2To5hQ8iBAu1KCWaqCoUDvy1sXdlc+9OqGj5bDku3lwbI97DqNxWQtC0UU52AjLgvsMyyzhUoT7N6xrerhEuBg6BFJkC9Nx209cL9r8sw3AHckBStLrscPAWmU+GEfecl0ip+nehlmZHofLm0D+uavfWDq8MiX7GjAp4Gf9i+HIzJrqkwwft1UCvfOWh0u20PuN83JwBDF3YECuagQDQS0NiyUfAjQLFpV8eveKBtexCUmlZ0lFRgX4MI3FgGFsOYSWcuCLQX48qCxn3arkPWKn7Mv9aGf5CA4H8N83z6kzaE3VH/p2jla5aAf4MbvM1WTCn90ERAFILr4Ri1396RZp7nc7rn4lqstbPvVqGVuJmzHUL7Hto7IX9CbI62hksmf05+RY1PdAI5NflU75Gsl2jgvwohqKp1lWooLo551h4bZCgVhqTSLUjUFH1JZ+eFoBHxLP6p+H2ei0+y1A1oqyf7rxlK4r2iNUhqymnHUWYqtQbEDKjgvZJga3H1SG2/cgBRFRdo/WzxVsJ8rvXIp3FxU4H9dvscXAVEA4ou/qdJdk2dNwOXw93DwV1hBP7Sos9CLedXkY4COwY2EfLN+WkPlErcT8+V3+2crgY5ZVSHauqh6tC+ZTmn2L5TcCPicP+lThR4e2U55T/39s9bAj+tL2MXQllmu8kzV346xA6ywBlDkwK1/GwS0ldY06XoLV4q+Gm6Z2dN0HpLQUgREAbAUzuhnhutpT4KuP4gHdXMmAodViMyUz53VFd7EE/BMZeCXI631c2f9vmS0pYksAFyiUL+Pf7eBy+7lG9K+Ptw0sIVSGprxmYkOp1SIMDsGAVJsaeBUIZohv4pOgSpKNQW0oqWAvVX8NSdaPiNFgEs+a0CkvgG5GAlxA+4SGNklkkm8Xsflds2DSbNO5tZf+KKHgMJjFL1KSM4MBPAkP/T0/xh07WoGd0AWil5Gjn6X9W0c8D73IlkVKRgJZ63fP09a81cJ+EP7pS9+U23LHx1URJ2wynqs2Rmfv2zyPfEQIF8AVYtQu/xM+Dd60avQKjws6Da0cnGJFHdVB1pSZcg3INKdAvRefYhnIjx+upqMh8qmo/6iz3BPLLzo0OvyK9YIiAIQa8TNlDdlehqe5PeNBvpIM8kpTbv6+9f7OxZEFqSL9vWTo5/qGinVQdX0f+unK2Ht7kpKyiIX9k7kjKW67k9BikLtWGAVLkwJiQD5g6g6hF7YuxFccGQTJTzoREuydnGJnAF9ZwVw0xAf+bj4Dt5SSWfkveboZni6YH9Ic5seQlxow/wfhg++yZi3/I4dAqZbL3ZVTPKSMKymVpE/DxXvAWaRoPX+ZROOwfjl5pubZhBkIg+1rz9U/bLR1UAl1j91hs/+qLZX+vqBLeHkjmoxDMh3gQ6HERIEgiFAW0JVFcSnTu+ISjdf2aYYFxQgiKIFcikXlwLo5EBVIgseKfGlZrR4v8KObFYHTwY9Fhqg1c08aY/gscJTzKeXlJEgYH5EiKRUSctD4IaiXAyruQD9fnvwEhzO9cCI9t71/sPvqF2hQZI6G1q/V+1zyHmYOisuUSf4V+wMVaL9dcP9yvef0oZbhJePTLxmIsApFSLMjkeAlF/yB1BxCqTQ09PO6aq0BXUJOrre/9VaNl6q75UvY0pHyjgpAqqKjS8P32deZqr3lND+LXN8l9Q/dbjTNbHwBfWEkiJSBEQBiBTBaKW/5fOGrgzPIozpb2qDPpnDPx3XG245rqUlNczCDoNM+I0zNGiepUET/KTfNLMPZ1jIwcV/lZnKP3BrlIrXPzlfPX9WFyVzJHV+ZPoXEgQ4CNBASevnKkS7UP4PrVIq9EDRWvh9K3/HC71/4Zxq6f0kPnpf6b1tnqlBQ4wsSEp5uHeXU3dSKOZc3Rcu76u27HFI3hpcpk2a+Rb2d5ibUKwQEAUgVkirlHNzYSuXO3UJbvNrqpLMx0um/j8mHA0ndVAzh/vSh/ukN5Q6DlqDpNPKfJ1KI+xcqFPJRGXBN+CT4x932xKVS53fg1+tC1eFQ+5PxkNZ+jWve8i1cD9o8CclQEgQ4CJAvgC0hq5C9+Ie+i6N+KE6qmo9MP7tP6BWwdxAA7uP6L0jZZ2OEqb3scUBZZ3eU3pfrRjwfWUZP/+LSvijozsYL7N/o6XzLHR0/gTQ4ZmdSBgjQkAUgIjgi0LiOz5v40rRFqImnGcmdzrQY9MdA6E9eiPHkmgWQI5JtM2vAc4umuEsoyn+USf0Z/cUukZk8r/ynT+AOkEu9WpaF+4Y0orL7uWjdX8y/wsJAqoI0K4AFbN5OgakegmPDk7xacSMAudiXIBnftzI4NzPQhYAnxJO710Bvn++qIHcd49dWBjG649tAV9ccYTS0od/lljf4Vqbgq9FCfBHJXrfRQGIHrbqOU/+tLWrJmUBDv5q09kDJfXDc8rX3jYAciIM7qNe8cApaPav0O/BS/M2w4/rSgJnFuAqRft7Cb3+KZwxl+hwH4pfICQImEGAnhzVwDp90To14fjWSsX97YtVsE3h0Cua2ZMSbgca2i4Plt5yjOlzRTRNP1ZrW/CVnB8Q/dYUBSD6GPNKmDKzrUtP+91saF9yOppyYjso2+fMqe3uihqlvdAE6oTBraFn42wevsjl7bzRo1uGfzZkwhgAAbIAqCqRf0crVaeG/Ge12MT7EKCqcbmEhjxIQ+3/lsEtTZePW54H4vkBogSYRpCX0CY6I6+yCct1x9dtXNU1aPYHfg8RAozGddPgYtyHTNv/uuFBJRk4U7Y7Xf/hMnjy+w3sarbHeAYL8KASMrFyidb9VU974+ZtJz4yAdM6MIfck2dx2GB0t4bw/kXdWbw7UMlS3TvPythmTORIp7K19Xu0bg1+6mf27hYKuvPtVX3h6Eg87GOEWSkG7fpl4154a8FWeBEteXR+hxWELoFz9IzZA9EaYE2GVlQqgfIQBSDejXk7OvxV64swdJ0lg38gcfo1z4Erj2oKJ7TLh5Z56WiWt1ezk+Nfn3/9hOea8+bmVP2Z44+A49HUyCXaxkhxDJKBRAGITSvTyhOtvauY3v/67hL470/8+BZHNqsLP1zT1/SaerSQqEAzCO3U+WDxdnjmh02wvawqWkWRxe57PXP2IFECrIcY/UKF4obAhBntXLWwAAd/fsQQE5Wdu6EE6M9Hg9vmwUVHNoaj8cxvCl2aprCG7svDqk8yF17/wVL24E/ljuvXVGnwp2G/GpULmhVT7BP6Y+oaVokp+SQQAjTg+/xb6LS9bPrBJIrL8cmSnbCpBE/pYdAveGLg83M3oQLfjMEdPZZKlJNCFhet3OUN0PX7lr3RK8yQM6I7ACoGzcbFu4EYhYReZyGLEBAFwCIglbO5/fMW6PD3G6q3UR38A9Xr61W7gf58NLxzAZzTu7H39LxWuem4VYjfofnyMPv5xm9bsS78EKgU63/q8PZKxZE0OYZARKQA0DZAn0JQi5oIWS3pGv2RvVGUBCWYE4KZdGF6/OnTN8inoMnJ+xtXm+gT/zdN9TJS4JFR7eG81zDEB5Pu+HwVnN2zEeThYTyxor3oLbtkeznMXLELpqECsmxHeayKDlgOYj4AJhV9oz8AgwIyyEVTCMTuiTJVvQRNNKWojru89m1c34qa2V8FuU+X7AD681HPJnXg3N5NcJadC50bZEG9dOaCsi8D5ietE97++Uom9362h0e2t6QjpE6e/nDX4gE6vFtHPcCrBPiUBZ9iQMqC9/sBZcGnNPhykk97IeAb0MlbhAZw+tt/bf/A7rsf6eDOlXosDua0Tv7Fsl2sJDvLq+F+DI71IFoPokH0nBfjvtg/tpdB4Yrd8L+5m2HVrvgO+IHk9DoGTpx1q+fBIfcHui/X1BEQBUAds8hS0ME+5fpbuqb1jyyj6KVesHkvLNi8/GABLfMy4DxUCIa2z4Ou6FRIh+1QZxkp/evb9UqH/QzAJYvz0FIRKyIRfQPGn4oClX648D5lwacY+H7vtyTsDyPrsyqQQnHo/VhJ5NxyaJCmAdz7edj3/evw1Cr+930DvR2lfvzUjtDrsZ/Ysf+fwCOx/4LLAHSoV6RUgWavjbgE8TMuL3zyxw54d+FWoDV9R5Cm34eOqztrpw551hH1tXklD+/JbF5hR1dvyhSXq2LQ6yjDWEfLgZUfhH4Eo7o0gGNa5QCdMFgfzZPU+XJpR1k1dHxoDuyp5IVWo9DG31/TByP+RRBznFu5OPCRUuBTEEg5IN8I76ffd9+ShAfvGO/7um/iycWobxnMzRHcXQCn4i6A95i7AIpxtwWdPU/OmvRI0J/v2Tj4iVf979N3X5WJx5fG94lZJBzd8skKeHT2OrZc5/RqBK+d143NT4z7UCPdXFrljbD51crd8N7CbbBmd4VSHjZk9uDTc17tA0Om27BujqqSWABi1ly65iovfAp7NuXBvw6a4I/HAfcTNNNTx28Hmo0+BPTnIwrGMwS98kegP8FRLXKgHSoFtGZJHXgguqdwNXvwp/SX92uSsIM/yUeDnncADAYYMR0kFtNBbiu+hIs3718GKSBC4RG4c1gbeGP+Fu8AHZ4bYDpusbt2QHMgS1ggoqWpnahYL8W1++/W7oG3cbD/FWf5dqVc9Ic4Anc5FKFiokguVIFfTpk8s6Rm6rDPFNMKux8C8qb6gRHNr67JM/+B51zcqlpGLg6in487AiiaGG2ToxPD3vxtGzyG5vPyansH/aFZu1cp6FIf9zLXgw5oviR51uyuhG6P/MgO+UuRDf+45Wig+AZC1iLAtQCc1aMhvHkBLw6AtTVM7NzIF4Bi/3PpGHyPZl/VB3e1eDBSYDUswi205ND77u/bYPkO+8/s2+KuoxsGtYDRXQqgRW6Gd4LwT7SCTEBriAkqR0PTifDA0O9NpJUkiIAoADF4DFyTCq/CYv6jWhTNoL/A/e60F9hIZAlYV1wJny/bCf/GADrUETiFKGphWRVfeXlkVAe4YWALp4jnqHqKAhDf5qLzLwY8+fMh23TD1Sg7Fd8fmyv//jKcicrjZXhSICkvNAEIRFPxFERVh+AD+exAXehoeGiomjdxoEok4TVRAKLc6GimOsWjax9hMYGf/CDl10Wz/5d4qAZ3zZs86snc9xaa/f774ybbWweCiH3Y5fb1s+D3m45Sivd/WCZyISgCogAEhSZmN2avLobjn/klZuVFu6BmOenepYrTujWA9mj1c/scP8IUfPfM1XAX/pmgpZ6q6gHw6Cm8bRUmCkjUJKIARLNlb53Z1eXRvsMiclWKSXO74MNLe8KJJo/zJUewNWgdmLmiGF7+eRN8v4a/z16lnrHibZCdBid1zEOHw1xvaONWaDqsjzsRsnAmxOxbYlVVx5UjCkDsmoyW8ErxrI4tpftwm10lzN9U6jXff7tmD3s3QOxqyy+JQo2fjQ6KFKuAwhaTQ7BZuvnj5d7lTdX0OJB9U1u+7yR4YgQvwpJqAQnKLwpAtBp2QlFjl9vzAzpst1IpgrTlV8/thi9TQ5VkIXmr0BOYFIKilcXwwk8bYZ5fVMCQCR1wk5SD/i3rei0lXfCwleZ5mdAUj0TOx04oC49IEwUhdCOKAhAaH5W7+Jp5l7Z2ltd4t9mtR2/7hRgx7yc83veHdXucs9UujNDk23NSp/reLbkDW9eDFvUovHiYRMzbtLR5yVt/wKu/bGam8GPTtGmeqUMu9bsiX8MgYFGzhSkl2W7f+H2mO62iCJ/lo1REp61Qj5/eGa7GuP3RpHJcLli2vQK+xKAf0+Zu9Mb0jmZ58cqbOiqKW9AXdyV0bVTHa44k60GDOqneI5MzceaC/yc1iQLAa358l6EaR/i9uPa+Bw+W2Lx3H6zZtQ+j5ZXBQoybMW/9HnZ4X16J9uFy4TsyvGMBnIvhwwfgOr6VA34gKQnnkdMWQCH6NymTDnd4Hhx6n3K6JE0gCoDVDY97/bWKQW8jsGNUs77r5HZwxwmtVJNFzE9x8tft2YczlVL4aNF2eAf9CGrQsyYZqA7uMGibnwFdGtaBdhj1sA0qCM0wHDKFHK6fRYqC22tJiGV45FjinuwKAA3stfio78N/StExlY6l3ra3CgfzKliHu1VW7iz3bqubiwP8PooVnQSUiXs+T+3SEE+AbAD9W9SFVvUyYq4ol2Eo4hOfnw8/rlVevsQAq/rFtQ8MeyUJmipiEUUBiBjCQzNwTSycinsrJh16Nfyv6wa2gsdGtQvPGAMOMmVuxU5w/qYy+HTpDnjt181A55MnM+XgnuUOGNuAlhla4TIDbWFqiJaEAvRFoP3MtFUxCztOsipQTIQUXHtwwsuVaAoA+b/QWjsFwKHodntxUKdgU7srqoGCT9FzTdtQV+Je+RUY7nYZftZSoiSm1rg1j84CIZ+j7mgxK8gKHr8jljBtx6WU45/+Bbc+Kx88VOnRXSfAgyf8EMv6OrEsJ/RRjsHVPWnWWAxQ8QZWWAnXM3s2hjfP6+qNjGZHYal73IPOSyvxNDBaz/wUw4d+iYeEVDFnRJReCRA7gmCiThS3oBV2rs1zMqAJekbTHykN+WhZoO1Q9VBpqINbIsmJKhVPntm/JLFfefApENH2YbCTAkDjsO+cBfJbIStUFYatrcDnrBIHczpzvgSfw904MGzH+Pjb0Ay/aU8VBtKphA3FaJLHNfcSZmRJE82ZEEkaoGVrTPeGMKR9PvRuWgda4DOZoXCaYaxBWIvtOvA/P6NFplK16E0ej6sPPHTCFtWEycSfjP1ydNp30pc90OVsDmaudMBP/5a5MOuK3pCJDmtOIhrUqbNdjqeEfY9Rx97HpQOVU/2cJGs865qJOx1yMty46yHNG1kxLxOXJfB3bkYaZKe7IC8jFShSJCkPRHW9lgg85Aa/p+M1UiDok5QMjZxMDlA67jQh6vZP3iSJZoePje7oHaBphu2jGhyoK2tqvbNuWkqi3xRWnhRGn4K4G58Tmo3vQSsSzciLK6q8pnayKhXjzJwOu6FnyT9fX/7yaR4BehZO71YAp6DDXh+MJUJWK3oOnEa/bC6DIU//7FUAVeqOBwfPqc3aeTxMGVulki6ZeP/sEZJJaqtlnTw7z6VX/YTZtlfJuiWakudc0xca46wwEYiGBZql0azMe7LY8l3w2vytSiF/EwEHkUEQiDUCLdFvZSSG4R6KilqXBtnQtF6ad1kq1vWIVnkf/LETxr68wISSqD3peWDItdGql9PzFQUg0hYkp7/yQR/h5GqESla5OJP7BkN6dmuYpZLMy0sTsGibhpUrFSTBmS8v9FoHgtyWy4KAIGABAm9f2ANN+w0syCn6WZArpRk7xBNzNsENHyxRrqCm6+NrHxz2vHLCJEhgph2SABa+iHi6332qg38KOom9dn53U4P/nmodNlTosAn/duGpa+UYUfdPgyy/3rHg/APPLfhw8Q52UQ1xfZK2HAkJAsmOgNcvRGFz/X2z1tjmoDBj29GEhfop6q82Hui7aJlIla47pilceXQL1WR4BIv2b5g8s59ywiRIIBaACBoZHajO1HX9LcyCjSMtwz59RlcY30/9XPtSdMTfjS+RkahwXBbGP3Qkw0+7+PRcOn0xvPwLzweHnN4o5C+F/qV1YoqWtnpXhfcYU3I8pBPDyItbSBBIJARoV8ngtrnew746o+m+Ja7T084S8tu4v2gN3PH5Kra4n43rbTp6KLsQJiMdB11B/iE48OOOvsOIdJtGGejwyu4592dBfiKjpi2EL3F3kiKt87hS+8L9x21XTJfQ7IrwJzQWasJNLmrv0j0/YyKlA+r/b1Ar+OdI9e1+ZTj47www+AeqNL1U6BeGZ8LjufD4qTCRCJSdqWu01arzw3O8wVM4GZx/RGN4+ZyuIVlpuxZ5gZNysBRPPpuPAVh+QeXgJ4xsuB23dwkJAnZEoAturevTPAe97vGvcRbGncj0DvIUytrPL/OwqtP2xTZTv2f70ByPx3EX4vkh8SAa5Gmw34fvKH0ePk05vFbUTzVGJUB1OZMcTI/FnQF/bFXbHoh1+kLPnD0cpkwJoJIcXr9kuCIKgJlWvnJeqjtvz2x8oJQi/R3XLh++HNfLu0dcpVjSprdV4gZDlUR+vD6FIB3fNLIQxEIhuPGj5fD4d+v9ahH8K3WC867r792WFJwr9B2cbHgtB6QgkFf5Woy1vgT3eP+G8da/WrULtpaKghAaQblrFoFWeRl4rn0OtMc4EZ3wr10Bbv3E8LgFuN2zLm7zVB3g/Otx22cr4YGv1vpfCvn9h2v7sg8QC5lRmJu4O9M70FfSLB/7JzLzmyEMneG1BKgORMt3VuIpinNhF77rSqTBZM/UoQ8opUlgZlXcExgKvmh4vO+jyH0DPwV4t+D8eG0/jDCn5vFPa2Vb9+mmX7BAdaQdh7iDDP80r6VA1QwXKE//a3TgSav7v2PPXEbi2eAfXtLTPwvLv9MWNe9WNKwbBYPZggrBGlxioG2MS7aV40mKJV7FwfKCJUNHI9ARzfLdGmfvjxSJJ9vRwN40Jw3PmsDB/cD2y0gG+HDg0LPa7oHv2ecIXIjheqeNDW1JC1em8T6N7dQP0USEAixFMuAb86bfNClpkK4+FH28ZBec8b/fVAM5UfSSwfDA0O8D1SXZrqmjnmwIGeR1Tyocji/EJ3iZjV0GjrizruwDR2FYTRUirXoLzvxJ244mkUXAqxDgF/okrTwSeuzb9UCnenHp678eCQNbKx2YyM1aiY+sCBR0psy7V70GduE+dVIUNu7BQDMYKpmixq3C0LDLUGlIlrCwSgA6hJkCMXXCtfeOOFtvibP3lrl4gBQO6jRjp/V3GtjJPE8BctgveRRlv/q9pfDMjxtZJVAUyhUTB3gVFVaCAEzU79BgX4Vf9g/6PJN+gKzYl+rgAYL5aepo//3L1XBf4Wp2OV5GXVvvqa7qLccHK55Rr4ZyAnLfXthMr4H/oWTsJ3W/018X5cGfxvxtOPOP9uBPrUQDH3npltMXJBKOfAhIESArAX1ylw1onf7J7zd48+H8cxQe1GOHwZ/qSjLWQWWN/hrhQBCKyKJA0erIqkAKAy09FOOa7fa91bC9rMprZdhUsg82oC8ERaij77SmK2QtAo3x5MfmGKu+RV46NMNP+k5WtgIMnEQnQlLExT8HdBc+1+prztbWWD23Wwa3hOfnbmLtgaeDdEhZuOektuyCfLN734BPv2NNe/HVIEtkTujX7rBq3TWsDSzYUoZnmGw77F7QC5reQktLeRZ7u7OC8iTJDfZAliR4BBdz/yE/XyJgQ4IzHX7HbIz/7Tj446FjtiDSzElD5xBFBKS9/1x6/+KeMLprAZfd0XykXtHBM/tj1Xu8VgSyOJSjB5VXiaiqgVJs9BJUKMjCsBN3PZTh6XN70atqR3kVKhu1GP622hs9jwIurUfLhJPObKqLZybQoNwIB+1sXBtviIM0XcvG2XYBDtq09Y3OVaDIhjQDp4iHdAYD8dLRznQ/DSMYpuEgTrtGuEqpox+aA5W/4PVF8MZvW1mi0CFWa24d4MWQk2ArWhlppm8HKsClgCycfKgQOQUe/e95aKErU0lGvFd7Hhj6lGqiROIXBYDZmq7JhVPQC+9OJruX7dg2ed4wv9RZqVAx7vUvUfRtUclfhZeq3iyTbwo94Zlf4JvVvBO8aAvUwhuPCukJrVLXZOUlxYLMtkQePFCdzlQny1MtzgY9B1xHKZZ+IGpw9+xAlw+7Nhr9NF44u8th1934gJDZmciNhbrwN9WFrvue+mQaqA8DyKIL8zaUwlH/nsvO7akxneDKo5qx+Mn6twMnHHYgemZoZwDqe0q0YGs5DEKnQNpCrECVnlr9KHh42AKFNAnFqghzQsnOF2byrD7Yj97GTwDeo2RfOberssc/vYx2GfxJXtLGfR15OPl/2VjKHvwpr+uObS6DfzhQGfepfWiQpT86tphmyPRJvic0k6Y/WvcO9MfI3stC+9IDpa+HM3RfGcRD5ZKZncy5vjpxyxC+4Aj0bV4Xjm1VLziD4c6/vt3ADgwUq51BhioG/ElqCFk/fQptQKYAF3s2yoLHx3QOcCfkpQyXW3sdphRlhORK4JuiAIRrXHw4XLo+DdnYq1M0+3rqzC7QEj2GVYj20u60iSbuq3cdhS0C//mB56hEeeehKfhC3PsvJAgIAjwErh/YgseIXEvQHM61xGF3BdnMJT52BSJgJL8nUgJUbRKXHNEIjzVuolpyV1dl7d9VEyUKvygAYVrSVeGZiizdwrAdcvvaY1vBmXgKlwqRxktmONWHXqUMVV4yw3F3BJCD25vMNUqqxyV9m3nXdlXrJPyCQLIiMKZbA9y1kMkW/2kFhVxF0WdXIAJG8kkIFPU0XJbPjOkIHXDrphLp2iSYMHOQUpoEYRYFIFRDTvpyIN6+LhSL8R5F+3pgeBvj5ZC/adAnjTcWHv8hK2K4WVdh9v/yz1vQmY23/kbrw9dgXG8u+aKM2Q0fbv2FTxAwIkDvPD3PFDUvsHeGMcV+v4or+vPfG3LIpTgCHKJXnbYA24loZwD9qRDt+Hgdz1mh5S8FcqHvyku4FFBHIU1CsCqhlBASc4XAhwFPU38J2dkYkcfymxd0wzVQdhJvbYoxxK9dvHB98JBZUMUb99mfNvmShv0cgceWUjhULpFlhLZE0gFI68t1b2wEukbOknQ+Au2WIB83O1lPuLIJX+IiQLtqSXn1+fXQYTj+zzE9z/S7BJ9jLl19dDPIwl0RHKrCLScvzN3MYfXy2M0KQJUiKwBhqEJHNMmGe05ur5KEeNviUsB9qomczq82UjldWoX6u8o9FO2vnUISePL0zniYDX9go7ypc6BBzG6UhWuCOFFn0bdrimGRQlzu649twcqXmAgf/5k/dZX+nSp1EGQ92YxbmUg5oNPGKHiST0GgGQQpCJRG1bGIXUlhTEoEaIAnxd03wHOeRZrx+z/PBBw9o1wVgOIajO3F9535LyrmtDOEQyrvPCc/K3io5vQuq767Nw1sDiO6Kh6PrGvXpkyceYIV9XZKHqIABGgp962zRqDr+/gAt4JeIueT83s3DHo/0A3qCGhWYEdSmQ089QN/9k+hVU/A08+4VKowO6I8A826SEEgpYCOUSYlgWZetPeZDlfytyKQkkDp7dkiXMSEL1IEaLDxBcehQ7hoVw4N7jQQ0XNESua6A8omPUc+ZdOsNYrKo3K4dO0xvO19lN9aDEL1xbJdrKxVrX6sTC1gon6SexCaf3EvnNnZG3PC/1qY7y6PS3sRpsxQOuAtTJ62vo3zPKFDEJjyUZZeoT95yLUwPyga2eOndgjDdehtGmTMaLaH5hKdX7R8xl0PpIN33vudH4Xriv7N2Fv/aEC2emmEcKcOhf7+zJuuHkpk/aBtbKQh+7az0T537zW67nefayk5tAT5FSsEqHVpkPX+4XdS8uiPZsZ/fv/zOvHHmmgZgKt0H9G0DhyJpwv+gqdgcuipHzfBKZ3qc1i9ddhLL4fNiKx4pIipRApsgNE8n8XdWKdPm8/eEonafytXZfp92PUo+X7ZDC52dUQBMEDlqsiidaDWhstBf9KWv2fwISsg+5kCmVnbUsg+ItZsGuWY9OovW9lx8ckx59I+jZg509JI/Doi34BxaGWD1+egYoAJSCH4U0HYH3qWfhOq3nv4Sc8NKRf0Wyg8AoQ8WbKxYz44mNM136C+v70o8JFvcD/0Hl62NdGjTssDdHw3h8gZ8CqmAvDZkh1eZ8BGddLCZk27fuiPlG+7EVnrKMYEd3JC9R/VOR/OP6IpvPoL30qJSsDVcOvM1+D+YXPshoHV9VEbtawu3W75TZrVC7uZa1WqNa5/c+9DppKG1gxVvVtV8o+UV2VP8LRf+E5GY7o38gaT4dSPOvRyBbMoJ89o8vhmkoeXQcNUaPJXDnxKAn16//CfQ6/9Gcvepzz4eKkUUixS8c93L3TJ0blLgxnh4Vt69h9LqF0Jkf2D+f6ohd7fB6/tv0fXfLy+z+jU1j65ksKbwVS+L8Q975NmrIASxvkSFHr6tV+3wo2DWrCEzcYtAVU2XZokqylFCmTC5JX3ydM6wLdrduMR4RUs+ZHJ5fJoz3iunNcHnu2LdofEJZqECBECZ0935bAivwAAQABJREFUu0F/Hr+xlaJWuCf34ZFKfoJe07Nd1/0JBpqBcF+uRVvLYP6mUkrGoquO5m9hUnGMYhVuYyYa4GjApHVnmnnRTJBMnqQo0towYUHmzz34R7Mgen7ojzpD+iMfB/Impz9ak6bjWq2mP5dLwudMu1qoHr46+epJn1Rvsn6RHCQTrZuTfCQnyUuyU1mEw0FFInyRCcFBbU7PAYco+uLYXnxr2gt4mBCXsrEPIKXSjkT4qPaftDXwubO6oFKsJFUPV36J0pHvdsQrXJ1EATiAkKtt/v/hs9UnHGC++/Qw0UNVl7klx5eOOkHq8O1KKub/5xW2GJHzn0ooUzuuQ9q1zaReiYOAynN/FTPWP6GzeFsZ/MpU1sl6xF2KiAfypCipWlCHoOPx+KOaq1VX16fA5Jlt1RI5i1sUAGqvSV+2RJ33LpWmu+bYljCkHd+bnfLeg7MeO66t+eQm/ZjignOIzIqvz9/CYfXykPMflwJtleKmFT5BwMkIqAxsvQ84A3LlVVHYs7hmQG7hFvORFSnI+VZBS3poRFtoWz8r6P0AN7I0Xft3gOsJc0kUAGxKTXOR1z87ClQrDGJz30ltlB4CGvjJ5GlnosGfu3b82dKdeDQtM8oYdiYXHck3V6rMguyMp9RNEFBFgEzcNMPlksp5GhSqm46Z5hD1BTQhsCuREZW2BqoYU+ugtfbfeEqiykoAYjDcPWnmuXbFIdJ6Jb0C4J5UOFrTYZQKkE+c1gnj2POhM/OwqtTHKl5y/uHSixj6l0sndqgPtCWHQ6odICdP4REEnISAigJ8EToDpuEpjBzahVt2P1myk8PqnQhwrYGsDKPARJMqsqqq0Mnt85QPDMIS/gkTv62rUo5TeHlPjlOkUa3nlOlp2LgPqyQ7q2djGNkpXyWJ1+lJ1VylVIAFzCrrfiX7auBT3FrEpcv68k/oImcwtVeaWwvhEwScgQBZAMgBkkN0RPPJHXl7/Cm/V37lK+5ZChMCTl2jwUNWVVoyVKF/jWoPBdnht0T+mafWxOWqvPXP34nzLakVAFdl/RuxKTtymzM3MxUeG92ey+7lo4dTZV1PKXMLmSnuP3f+/86C7WxTImE2qjO/gyrjukFbKLtkJQjYDQGVLbAqCjYt3dHJnRxSWRLk5BctHtoVwNSXvFUoQGvkfaeo9eOgazfDhC/Uor1FS2AL801eBeC2mY3wqVHS6u4b3h6a1OVrjuTtbyaEpYXty85Kxenn9QVb2fme3bMRpDNNlGTSs7ulhC24MAoCESCgsgwwEhXshowgP1Qd8gH4cBHPekcTApUDwSIQN6KkZC2hracqNL5fYxjUVsmSm6a53HQ0fEJR0ioArlrtfmzJetzWPLpVLvylH9+UTfnSXmcnTGjJ4Ze77Wd7WTV8vXI3FzaM/Mc/uESl02NXQBgFAQciQIMaN/ZCCq7fnYWKNpdeQ2dALqlMDLh5RoOP4klw8fKV/zQ6BHInJ5QGu8kzUiYXnuRLnwifyakATCzqi413CbcBU3CEfErRe5QeRieY/gkDFS3/7YXbgLYAcqgdbrk5uiXvXA3KkQLBCAkCgsB+BMq4jgDIftERfEW7aOUuoDM8OKQSGIyTXzR5VJcCOjfIhJsGt1KqEnZ9D1PQOKVENmZOQgVA19wuzz+xTdiyX3lUC+jZOJvdjDSYqUarYmceBcZMhT2/r8/nzx5UIpWR4xNTr4gCApKlIGA/BEgh5qnaAP1b1GXvca9Gs+TbC7ezBbb7bgCfILR8qLor4PbjW0Fr3NatQD1cbetfqcBva1b2IGhrKRQqh9v+zsE45IO4Schb9O4TW3PZvXx0spdT1rJVvP83leyDOWv3sLE4txf/eGSV2Q67AsIoCDgYAVKIVWICnNmD/76pLAOoTBDiDTftClAJtpaJB5Tde7KiQyDA3Rg8jr18HG9MQpWfXArAlfNSddDuCQWI8d6dJ7WFvMwU4+Wgv2ngt3vAH//Kq2j3b/y2DWfpvDlJl4bZ0L0Rz2pCHZ3qVh5/GeS7IJCoCKgoxucpKNxz1hSzA3nRMgA3QJgd2kHV+nperwZwXDslh8ACl+aaYAdZI61DUikArvw94xAwtrrXvXFdZcc/1XWoSBsw0vQqTj7vLuKbDcn7n0sqpk5unsInCCQCAqQYc5fGejWpA51Q8eZQLWb6/mL+boAMB40UZAFQ9b96bFQHIGdKNulwA0wo4jtesDOOLaODmjVCYG78PhMX1G5XyeWfozuAW+GhoIdO1RNVpT5W89LjzvX+34He/z+t45v/z+vNN0eWO2GrhNXgS36CAAMBsrepLAOcpbAM8O7vfIXeScsABCvtwOIqTsTfq0k2XNiHf1opJsnGM4Nvo7ROpqRRAFzpFddjQzXnNtbpPRrBUIXDfuhhU3VA4dYlWnxk/ufqvB/gbIFmDRzq2bQudCzgHbpBY7+Y/zmoCk+yIqASHOv83nzL29erdgNF9eSQSl/ByS/aPNRVkRKgQlNPoeVeXsjyA/n+1emnBSaHAnBDUS7O/idyHwbaG/rQiHZcdi8fDf5Om8iqaPUq5n8VZyTZ+qf0mAlzEiJACjK3b+ncIAu6NKrDQqkKgwJ98gf/bIB0nDA4iVQtsnReyYTjW6uImOrS4U6VBHbjTQoFwJVRS4M/28uDzo1um5fBbity/FNdc2JnHkVGrgPg3qpaKFqxi12TM7s1YPOWK+x1ZmcqjIJAgiGgsgwwumsBW/p3FPx6VPyF2BWIMiMdG6xCNwxsBi3zVLYFahfCpFm9VMqwE2/iKwDkqKFrZP5nUZ30FLhjSCsWr49pN87+1R4zX8r4fap49n6GJ4hxjxHt0CAbujTkm/+d5DMRv9aSkpMdARU/GRUF/As8G6BS4Yhgp7WDqkNgutsFt57QWkVM9BLz3KWSwE68Ca8AuFw6bdfgucYi47XHtoCGzKNrqSHJhO3ENWwl8z/TW5jwGNWFP/sQ8z8hJiQIhEdAZTdAn2Z1oXkuz4JZhta9wuW80N4UL0zhFPTwQsWIQ9UhcFzfxuzdFCSCBtppMHlWnxiJY2kxia0A3DoTj6HT2VGb6uPRmpMGt2QDTLN+1UMo2JlHmZG7rYcc/75YxlsnpCqfoWD+r+AubEYZC8leEHACAtxlAA0H6pEKivhHS3nbAQkj7rKhnfAkh8AShaVG2vk15cS2SiJouu7IHQEJrQC4PK6bsBV5HjHIOPGENpCj4OlSilGnFJ4rpQcqmsx0zDcGwGLRnPUlsJsZN7xx3XQ4hhn7n15KJ1pOWKAJkyAQBQSitQzw+VK+f0+GQtjwKEBgOkvVvnpsjwbQtzk/2B92qWPgtqLupisYp4TMYSBOtYukWG+oRv1qbhZkMrv2GP4+UFWtkluPWPBx9/5TXT7B9X8uDe9cADT74BB3NsPJS3gEgWRAQGUZ4Pi2uZCPFk0OrdtdAYu3lXFYIR1HDIXQKKw8Y8FE1lrVbdr3DVfaCaa5PPrkWMhiZRkJqwC4wHUdApXLBev2oW0gg3luPeVJJiVSApxIKlr8Z+gkxKXTu6ms/zsUPC4YwicIWIwAvTGVuOOIQ2TGHtYRV0CZ9DFzOyBlx10+ZBYdM7YyDHmgck7AMIwDoxQiWNfPhclF7EizMRM8REGJqQDc8jk5/bE9/2nbx2UK59bT0jWZlJxK3Bd4S2kVLNxcyhIzA9cUhrbLY/F6OzJ0nhQSBAQBNQRU/GaGd+IrAJ8mwTIAIa26LfAuNV8APGjWM0mtRePLnZAKgMudchXCyt6MfgueCZ2qYNcir1Knzl9VTHgzcPbPPPsHBrbOAzpZi0NkynQqfhz5hEcQiBYCKktnozrls0OZz1lbDKX7eFq5Ex0Bfe1B245VMDyudQ4cg30bmzS4BG4ubMXmjzMjr8eOcyWVip9ShPtfdHL+Y1GTnHQY349/pgMF/SFTklNJxfxPCgCXVGYbKrMYbvnCJwgkAwK07MiNnUE+AEdgWG4OVdd6YOZynjMg+QEydX1O0THnUfUFuF0tLkyqKwVujrlQJgtMOAXAXamfjzszm3DxuGFQK6DgD1xSfXi4+caKj6u912BPoxL9b2QXvrlRvP9j1dpSTiIioKJAn9yJ75czQ2UZgN9l2q4JyA9AxQowvGM+9GvB3xGAAo8D7xZ024l+WIUc3IyHyeK9oOs6e+2/QXYaXHU0W1cAmv07OXgNrXJwA3nM3VAKxRU8U0fb+lnQoT4vfCZh6MStk4GfNrkqCMQeARUFelRnvmJetJJnASCJVSyJsUcofImqE7mJxytZ9bNcujY+fC3iz5FQCkDK5MIhCCk7LvO1A1tAdir/hAvVhyb+zXtoDbjOf5SKaw4k3hNRQ+aSiubNzVP4BIFkQoBmsNwYWn2b1wGa6HBo9a4KWLO7ksPqPUacueOXlV+smQhDlcncGDxfoUcT3nKKVxYdroMr5/H2YcZaeL/yEkoBQBeW//OTLeTXXDz28bpjmofk8b/p9Nk/yZKuEMSjaFWxv/ghv49Q8DZWMV+GLFRuCgJJjABXkXZhYI4TOvAV9C9X7GahSoO/Qsw0Vp6xZlKZ0FF8k1uOU7ICNHPnF58Ra5lUy0scBWBCYTtNh1FcAMYd1QzqKUTEUXlYuHWINR+3sengnx/X8RSAVPSfOAGDjnCIHJhU9uFy8hQeQSAZEajkmgAQnGHM7bmEYyFTASBeiijqZFKd1J3fuwG0weVONnk09oSUnafFjNwxweJirc/O5fau/bPkScGZ8LXHNGNXQvVBYWccY0Zun/Hd2j1QSUIzqG/zHMhO4y2jkPcy6gBCgoAgECEC3IBAVMzJuB2QS1/hsd/crb/cPO3MpzKxI2vKVQpWY12DY+DWWUfZWX7WgGlnAbx1m/htXTzy91JuPcf0aAQt66Vz2ZUOkmBnGgdGbizxL1fwZv8kwmCF2YXKrCUO8EiRgoBjEFCxpjXHrc7tmDPX7WVVsIgZFjgRrHk0z+Eup9DD8Zf+TYCWj7nkqtVtbQVICAXABVWXYYPkcBvl/wa04LJ6PdadvO/fX1B6YcPJQh76RSt564CU97D2/CAZKrMW/3rLd0FAEDgcAZXdACqK+qfLwr//ZM1LBAWAUC1V2JZUB62dFxzJ3zmGZwWfBbcX8s3NhzdzVK8khAKgufSzuCj1x/2cx7Tke3OWYtS/RKJdVXpQ71fShteU1MD8jSUskTNxB8UA5ul/tPzAXFVglS1MgkCyI1BJZgAmDVNwBPx6dXHIWTG9yzv38ctmVjFubKRIqSgz/3dsc3aERRQq1VXDH59iDUJCKAC49599AMN1uPWPS/R+leHDkUhEr+0OfHm3Vuqo+e43f+3Fz52oGGzGawu27AWKCsah/i3rQTrzACWV2QqnbOERBJIdAYrcyx2Gh+LBNrSGzaGNxRXePoJCnvvrGFQWbZ3bgv2EwqSZU2TceUoUJnrt8jPQr4IfYAmF6xl3AYNUICEUAIz8VxpEvkMuN6uXAXTOM5doYPR/AbjpnMBHJjw6GGM7KgNkFfAtDZRU8E85GsT0/ic8VGYrTsDPznXkOnFRh067ODiUxuSjvLiDEqdc4QmOAOHMDN8PBRgWuGvjOsEz87uTlZbibcMS7Ao2VOiwCf9o0N+InzR54DoT+2Vp+6+k2KgoNVcoOAPiAcr8TjXGSPHe/hhXSrk4Xf+Kk+Zy3PqXwjz0h14ulbUhTvlO4GmOJyNy6dg2Cuv/CWZJ4WIUDz5uR4a7PaFFLh6dwSA6MZNL3PK5+QlfcAS4ijUN2tzjgY9pXe+QAqk9yUSeqJMhn7AqVoA+LXLZgYE0Xf/RV4bdPhNCAfC44REENmQIq6Y5GXBJX74vRjnO/hNR0w33AHYoyAb6C0cU/rdzoxwWRmT+T0Ysw2EYrfvcYEs06xnZrWHYapDl+MTOBSwfDvLzEF+PsJBaxkCWO5qshCNq6wux/6uXkRKSlTzcL+jD7ydDZuawm4Qlp58i6ynxTRzaliGhvrnWUzOdwRgXloRQAOD+Ycs00C5BBKsCoVgfzV9Pn9MdUlLcrJeF8kjG2T/JTZ39lOEdQjq5kNn43pEdkTn8+do0a6C1RKHYIUCzNVq+CkU0q6Nn/IpjWkCr/NCzexo4ujSqA7sZ7cjhCVUvuaeGAA1E4WauPp76GBL46bHdg8btoHge/zm7GxBfMhL1UrQsGor8eQa2zYcrj2kZir3M43GdBw+fXBaKKZ73eBFc4llDZtn6d9MW6QMu+7hz46wB+6r1RlXoyNawThqM6dkYHjuj68F9sCk4woU7EIe0ZXKQS1ZqgebeTg2yYfaqXUBRAf2JlKlHTu8Cx7fff8gIjQnUwdDhIEYXIxpkaM1QxcPWvyz5bh4Bsrq4gzzr1B7k+0HtRk6cQzvU90Z+3L73UP2ZlMGL+jWDv5/UAVy4dEbtSbN7b1sbGpsUPXIkVdlTbV46SemPAM1I6e0LFJqX2ms7tgu1HVHz3EwY2bUh7EXngc0l+6AS32+yCozAa4+f0Q26q8S7359lQv0bqj/zPeOEt48GtcsHWh5bhrETfIenkbNleqr726pqz5nw8NCffLx2/DS8xnasolqd1pZ5FmGKrrXYWu4A6/10qWF6cCWAXhTykKfOMdmpGB0CP/p9KyzeWub1nejSKBtO69E44AyCjhnIQnUyFQEm6KoQf1pGERjj+xSRspuJjUNhW6nfomBMgQZpel8Kl+2AOWuLYTc2XMu8DBwUGkDnhoc7jtE7lI1tnXbg/aK2pt0y+CEURwSojbPRwk+THGrrfQfaOlSzeNBjlLs7II6ixbxo6s8Iy1TSgpH2UX8W5hknhWonBlJqhn41eZlpd7bK1u6OecUVC9wvnWIiu7Kvq9CP0z361+HqR/1WbqrmbWAfAPSS0IBFJkzpyMIhKPcFAUFAEBAEQiCwvmWW1kbTNFQb7EuhPULsW++ANdN1zxXehemAd/+8SAM8bX3bjRbP1ANeEDTzl4H/T4zkmyAgCAgCgoBpBFqsL4NhmPpz0znEIGFiOAEiUKt367l4HsCZKpjRrJ/WQ+lPBn8V5IRXEBAEBAFBIBQCuqaPD3XfDvcSRgFwp8IYBDS0O7MdEJc6CAKCgCAgCCQDAqNW7tIPDapgM6kTRgHwaPpYm2Er1REEBAFBQBBIXgQyUtJgtJ3FTwgFYG2xnofOfEPsDLTUTRAQBAQBQSDJELD5xDQhFABIxSMXcVdSkj1aIq4gIAgIAoKAvRE4ef0ePd+uVUwMBQDE/G/XB0zqJQgIAoJAEiOQprvhVLvK73gFYHOpTsf7HW9XgKVegoAgIAgIAkmMgI2XARyvAFS7vOb/hIpnkMSvioguCAgCgkBCIYDbzYdtKNH3x063mWS+QHg2q9aB6kwobOdy6adgcJ92eKUR/qUaKzqwbd7xORmpZAUQEgQEAUFAEBAEbIcAnhUwb8WOstUBKkYHBW3QNP332oyqT2HKiJIAPFG7ZEsFIGXyzFMwRPU9Omh9oya5ZCwICAKCgCAgCNgHgSo80+lNTzX8DR4ZujYW1bKXAnDL59maO+UlrBR59QsJAoKAICAICALJhkAljoHX1z4w9L/RFtw+CsANRbmudM8sFPiIaAst+QsCgoAgIAgIAjZHYKrngaG3RrOO9nACPHu6W0vzvIqCyuAfzdaWvAUBQUAQEAScgsBk16SZf4lmZW2hALja1L8Oj10eEU1BJW9BQBAQBAQBQcBZCGiPw+SZbaNV5/grAFNm5KDjw+3RElDyFQQEAUFAEBAEHIpAmgu0KdGqe9wVAHd5Gp3iVxAtASVfQUAQEAQEAUHAsQjoMBZoohwFirsC4NHsfVpSFDCXLAUBQUAQEAQEAS4C6e7K9JO5zCp8cVcANNB6qlRYeAUBQUAQEAQEgWRCAOPiRGWcjLsCgI3YJJkaUmQVBAQBQUAQEATUENCbqvHzuO0QQ78Op6pndCuA187t4mV1uVxAfxpuHRASBAQBQUAQEAScgIDH4wH603FKT5Txt9nMamt1mYxKbHZQAJQq7Ha7vYO/UiJhFgQEAUFAEBAE4oyAb/JaW1vrVQTiXB2wwxIAGwMfeOwEwigICAKCgCAgCNgMAZrI2sGC7SgFgEATEgQEAUFAEBAEnI4ATWjjTfGvARMBO2hLzKoKmyAgCAgCgoAgEBIBUQBCwiM3BQFBQBAQBAQBQSBaCDjGAhAtACRfQUAQEAQEAUEgGREQBSAZW11kFgQEAUFAEEh6BEQBSPpHQAAQBAQBQUAQSEYERAFIxlYXmQUBQUAQEASSHgHHBQLitBhFWfJFWuLwC48gIAgIAoJAfBGoqPbAvA0lUFxZC61y06FnE1aQ2PhWOkDptGPNKbvWElIB8IVbDNA2ckkQEAQEAUHARgjUenSY+vU6ePTbjbC3qvZgzToVZMI/R7aDoe3zDl5zwhe7BPnhYCVLAByUhEcQEAQEAUHAcgQoJP6lby+Fe2atO2Twp4KW7qiAU19eBO8u2mF5uZLhfgREAZAnQRAQBAQBQSAuCLy5YBu8tXB70LLJOnDV+8thR1l1UB65YR4BUQDMYycpBQFBQBAQBCJA4Ll5W8Km3lNZE1JJCJuBMARFQBSAoNDIDUFAEBAEBIFoIjB/015W9vM38/hYmQnTQQREATgIhXwRBAQBQUAQiCUC/k5/ocot3fenc2AoPrmnhoAoAGp4CbcgIAgIAoKAIJAQCIgCkBDNKEIIAoKAICAICAJqCIgCoIaXcAsCgoAgIAgIAgmBgCgACdGMIoQgIAgIAoKAIKCGgCgAangJtyAgCAgCgoAgkBAIiAKQEM0oQggCgoAgIAgIAmoIiAKghpdwCwKCgCAgCAgCCYGAKAAJ0YwihCAgCAgCgoAgoIaAKABqeAm3ICAICAKCgCCQEAiIApAQzShCCAKCgCAgCAgCagiIAqCGl3ALAoKAICAICAIJgYAoAAnRjCKEICAICAKCgCCghoAoAGp4CbcgIAgIAoKAIJAQCIgCkBDNKEIIAoKAICAICAJqCIgCoIaXcAsCgoAgIAgIAgmBQEpCSBFDIXQd4N1FO+DZuZvh5w2l3pKPbFYHrujXBM7q3gA0LYaVCVPUuuJ9MO6dpfDj+hKoqtXBjXVrkZcBDw9vB6M654dJHdvbC7eUwUPfrIevV++B4soaaIP1PLtHAVw/oDnUTXebqswezOeJ7zfCWwu3w+rd+yA/KwWOb5sLE49rAV0bZpnKM1qJ3l+8EyZ9tgrWF1eCB5+xNGyso1vmwEtnd4KmddOjVaxyvvT8T0c8n8Pn/5dNe8GFz9SRzerCX/s3gTHdCpTz8yVYvK0cHp69HopWFsPO8hponZeO7d8Q278p1MuwTzfl8QBM+HQVvDJ/K5Tg80VULzMFLj6iETxwSltbvf/FFTXw+Bx8/hdsh7XYF9TH539Iu1y4BZ//Lg3s9fz7ngP5jC0CcR+uXJMKsUsJT2fi4Dr9wh7hGZGjtrYWPPSmWky12DOPe3cZvPHbtoA5n9OzAbxwZidwU68YZ/oGB9KR0xZCNQ78gei6Ac3goeFtA92K+TXC88r3lqOScnibdaifCTMu6wEt6qkNgmt2V8KIlxbCql2Vh8mTnuKC587oiANMg8PuxePCDR+vgKd/3Byw6DR8lj4b1xMGoDIQb6Ln/9K3l3oVqkB1uRAHwWfHdEClQO35J4XiCnyv9tUc3v5t8zNgxqU9UCHICFRkTK9VYf26P/4zrMNnKxBRHRf+Xx9IdcffsLqanv8XF6Lie3hdM/D5f+GsTnBGBApbIPnNXMv422xWMqrra+d2YfHGm8ntdoPLxXsG3JNncav7lueBoWO5zFw+Xi25uSU434M4Qw02+JPob6KmTTzxJuqoTnv596CDP9WPZsYfLdkZ76oCzfyDDf5UueU7K+C81//AWXFgRSaQADRQnfP64oCDP/HTQDMeB5zft5YFSh7Ta++hNSnY4E8VqUJZRr1EbXn44BjTimJhU79eF3Twp7q88utWePTbDUrVojYY/07gwZ8yIgXuXGx/atN406kvLwo6+FPdSOkc88rieFfTi9U5ry0OOPhT5Srx+b8cFbkl28vjXlepQHwREAWAiX9FtQc7t41huf+JHSCZnuNJfy9cA1TfcHTTxyvDsUT9/n1FawPO/P0LnrexFD5busv/UsjvnyDvb5tDD+6kBNw7a23IfGJxc8KMVWGLKa+uhSkz14TliyYDPdOc5/+h2RsCzuSD1e3Br9eHbf/5m/fCe4t3BMsiJte3llbB16v2hC2rcOVu2F5WFZYvmgyE1QJUrEMRKQG05CaU3AiIAsBs/582lEDJvvADe+m+WrQSbGfmGh226WiJ4ND6PftgM3Zs8SIq++MlvIG9CJc0uESdMIeo7HjLv6FkH6eq8MaC+A6A9EzvraoNW1dad/4ZfQO4VLSqmMX67E9bWHzRYiLFRsf/whEZqh6eHX6iEC6fSO5zsZqF/hZCyY2AKADM9i+pDN/5+bJ6fl7g9Vzf/Wh+LttRAZtK+IP6tJ/j17FS2TVM0+6u8mo2bDQIcYjKjrf8nHoSz8bSfUBtGy9SeaaLVdqKaS2bvaY4rvJ//AdfAfsgjtYKekYIKw6Rs61QciMgCgCz/VspOCGR+e2nAzsEmNlbxvbCPLUB/UUchFXW162qKJVJZXOpTX4mlxXaKvA6RX6afKq2LRuwMIz0LIczKftn0UoB/9a5Gf5Jg36nmXU85V+DXvRcIl+AeL7/XHeZVkzsuXILn/MQEAWA2WY9GmV7t6Yx2eF53CYVa6J1bdqepEK0PWjmCp7JXCXfcLxUJpXNpRGd+NsWR3Wuz83WWwcnyE8CUdsG8pRnC2uSUeVZpu2bXRW2mJ3alb910Any+yBWwcyXJtJP1fd/pMJ7EmndJL09ERAFgNkutLPp0j6NmNz790pzTdHsTMMw0l7yHWV8U7kvu+cVrQa+dJF8PjeXP/vv2Tgbjmxah11cH4zLcIQCv93l9wlObfvBH7HduUHOf2//zjd/X9ansdJe+HF9+fxOkN/XVrS10c7vv2p/5pNLPhMLAVEAFNrzkiMb4x5f3h5n8sKnbYGxJLMD2Scxdobbgs5/ny7jOf8RfldgkBlVooGIS3aX318Os23sn4fK99cxRkMZw/mP8kzBmAUXHclXkikN7fM/rk0ufWWRneX3F8Du7/9gxJxibAglNwKiACi0f+O6aaBiin4uhs6AKs4/RpFj7QxH6+7BAhQZ61YnzQ0UYEmVzuvVkB1B0M7yG+X+Gr3mY7l/+6Wf+UtKFF2yCb4jqjQerQBcsrP8Rhns/P6P78fH3CiX/E4cBEQBUGzL8X35s1EKchMrZyBykOI6/wQSmWZWsQi2Qs5/Lyk4/43FwT8nXT0ULIUPptDMXLKr/IHqP+0X/qAcKD332o/rS4H24HNpPIbDNkOnda0PDevwFQe7ym+U3a7vf0F2KoyW9X9jcyXlb1EAFJt9WPs8r9mSmywWzkAUQvdVRec/Y/0pJkAs9gWrOv9drjA7NMqkktau8htlot//QwWAArlEm1S2/lEYXIozb4bSMHTuBb0bspPaUf5glbfj+0/nFlA4bCFBQJ4CxWeAnGcuUVjnjIUz0HuLdmL0MXXnP6PosTBZqjr/9cWDZsxSv+Z1lZwB7SZ/MLl34j77D6PsDEjOf+8oOP9djj4XqmcA+MtHh2lxjxCwo/z+svh/t9v7TxhfFoFS7S+bfHc+AqIAmGhDuzkDWuUYFW1nuFg4/xmb007OgKryG2Xx/21Vm/vn6f892s5//mXRd7s5A6rIb5TF/3csnAFVngVx/vNvHfkuCoCJZ8BOzoCROP8ZRY+2M1wsnP+MMtnJGVBFfqMcxt/RdoaLhfOfUSY7OQOqyG+Uw/g7mpYl1fdfnP+MrZPcv0UBMNn+dnEGjNT5zyh+tJzhYuX8Z5THLs6AqvIb5Qj0O1rOcLFy/jPKZBdnQFX5jXIYf0fTGVDl/RfnP2PLyG9RAEw+A3ZwBrTC+c8oPjnDcQ/TMaYN9fvL5WqR/1Qc+EKVS/dU8rKL/OFkovvRcoaLlfOfUUa7OAOqyG+UIdjvaDgDqr7/4vwXrHWS97ooACbb3g7OgCrOf1wHK4JDZU2RC59KnhT5LxLnP2OdVJ0BVepqLCvYb6U8ebGmIBrOcLF2/jPiFW9nQFX5jfUP9jsazoCq7784/wVrneS9LgpABG0fb2dAlUGlQ/0stqRWOwOqOr9dYSLyXzjh4ukMqCq/SoQ2lWcgHEZ0X8X5zUzkv3B1iLczoIr8box8mBLHyKAqbS/Of+GevOS8LwpABO0eT2dAVeeficc1j1tkPBXnN7OR/8I1YzydAVXlnzCoeThxDt632hlQxfnNbOS/g5UP8iWezoAq8o/GyIcjFQ6pstIZUPX9F+e/IA9bkl8WBSDCByBezoCqzj9n92gQl8h4qs5vZiP/hWvGeDkDmpH/XAxjHI/IeKrOb2Yj/4Vrq3g5A5qR3ynvv0T+C/fUJed9UQAibPd4OAOadf6JhzNcPJ3/jE3rFPnj5Qyn4vwWSeQ/Y7sYfztJfie9/0ac5bcgIApAhM9APJwBzTr/xMMZTmWd0mrnP2PTOkn+WDvDqTq/RRr5z9g2xt9Okd9J778RY/ktCIgCYMEzEGtnQJVB1ej8E0tnOFXnt2g4/xmb1ynyx9oZTsX5LRrOf8Z2cpL8Tnr/jTjL7+RGQBQAC9o/ls6AkTr/xNIZTsX5Ldvksb+qzeck+WPpDKfi/BYt5z9jWzpFfie9/0aM5XdyIyAKgEXtHytnIFXnP6PzDznDnRmDY3KVnd/QSdHMsb+qzeck+WPlDGfG+U0VdzP8TpLfKe+/mXaQNImLgCgAFrVtLJyBzDr/GUUcp3AamNnIeKrOf+P6NTZWM2q/nSJ/rJzh7OL8Z2xwJ8nvpPffiLP8Tl4ERAGwqO1j4Qxk1vnPKGIsnOFU/BSi7fznZPmj7QxnN+c/Y1s5RX4nvf9GjOV38iIgCoCFbR9tZyCVQdXo/GcUM5rOcHZ0/nOq/NF2hrOb85+xnZwkv5PefyPO8js5ERAFwMJ2j6YzUKTOf0Yxo+kMZ0fnPyfLH01nODs6/xnbyinyO+n9N2Isv5MTAVEALG73aDkDRer8ZxQzWs5wdnX+c7L80XKGs6vzn7GtnCS/U95/I8byOzkREAXA4naPhjOQVc5/RlGj4QxnZ+c/p8ofLWc4uzr/GdvJSfI76f034iy/kw8BUQAsbvNoOANZ5fxnFFXVGfC5uVuMWRz2+7l54Xl8iWLt/Ocr1/fpJPmtdoazu/Ofr418n06R30nvvw9b+UxeBEQBiELbW+0MZKXzn1FcFWfAGUt3webSKmMWB3+T899ny3Yd/B3uSywi/4Wrg1Pkt9oZzu7Of8Z2c5L8Tnr/jTjL7+RCQBSAKLS3lc5AVjv/GcW10hnQCc5/TpbfSmc4Jzj/GdvKKfI76f03Yiy/kwsBUQCi1N5WOQNZ7fxnFNcqZ0CnOP85WX6rnOGc4vxnbCsnye+U99+IsfxOLgREAYhSe1vhDBQt5z+jyFY4AzrJ+c+p8lvlDOcU5z9jOzlJfie9/0ac5XfyICAKQJTa2gpnoGg5/xlFtsIZzknOf06WP1JnOKc5/xnbyinyO+n9N2Isv5MHAVEAotjWkToDRdP5zyh2JM5wTnT+c6r8kTrDOc35z9hOTpLfSe+/EWf5nRwIiAIQxXaOxBko2s5/RrEjcQZ0ovOfk+WPxBnOic5/xrZyivxOev+NGMvv5EBAFIAot7NZZ6BoO/8ZxTbrDOhU5z8ny2/WGc6pzn/GtnKS/E55/40Yy+/kQEAUgCi3sxlnoFg5/xlFN+MM6GTnP6fKb9YZzqnOf8Z2cpL8Tnr/jTjL78RHQBSAKLcxOQNdfEQjdinTF26HV3/dDtvLqllpKP/L+jZm8YZjImfA3k3qhGM7eJ8iA6o4//VonA19m9U9mN5uX5wkv6oz3BsLtsE7v+9gQ35Zn0bgoofLpuQU+Z30/tu0qaVaUURAFIAoguvL+tI+jSHVzetMK6o98Mi3G3xJw36GO/Y3bAYGhssVlAmKDPipQuS/K/s3MZRmv59OkV/VGe7h2RugrKqWBXiKS4OLj7RGqWQVaILJSfI76f030RSSxMEIiAIQg8ZTdQZauaucXavx/aztqFWdAWtqdVZds9PccE7PBizeeDI5SX4VZ7gVOyrYsI7qnA9N6qax+ePF6BT5nfT+x6stpdz4ICAKQIxwV3EG0nljKhRkp8LozvUtlUDVGZBb+NgeDSAnPYXLHjc+J8mv6gzHBXV8P/tbakgWJ8nvlPef+4wIX2IgIApAjNpR1RmIUy3yLUhPsb4JVZwBOfUknnEWWyq45Zrhc4r8qs5wHCxa52XAkHa5HNa48zhJfie9/3FvWKlAzBCwfvSIWdWdVZCqM1A46ax0/jOWpeoMZ0xv/G135z9jfZ0kv4oznFHOQL/t7vxnrLNT5HfS+2/EWH4nLgKiAMSwbVWcgcJVy2rnP2N5Ks5wxrTG305w/jPW2SnyqzrDGeX0/+0E5z//+tJ3J8nvpPffiLP8TkwERAGIYbuqOgOFqprVzn/GslSc4Yxp/X87xfnPv8703UnyqzjDGeX0/+0U5z//OtN3p8hv9/d/c2kVzF6zBz5esgsoaBTtSBJKbATs75WVYPiTM9AHi3dGJFU0nP+MFfI5w7308xbjLaXfTnH+MwrlJPl9znDb9lYZxVD67RTnP6NQTpLfju//R3/shIe+WQ9zN5aCvwNyVqobRnfJh78NaQXt62caYZffCYCAWABi3IhWOANFy/nPCIUVznBOcv5zqvxWOMM5yfnP2E5Okt9O7395dS2c/8YfcPZri+GnDYcO/oQx3X9zwXY48olfYNovW42wy+8EQEAUgBg3YqTOQNF0/jNCEakznNOc/5wsf6TOcE5z/jO2lVPkt8v7T2d4XDh9Kby7KHx0SApN/pf3lgGdTyKUWAiIAhCH9ozEGSjazn9GOCJxhnOi859T5Y/EGc6Jzn/GdnKS/HZ4/x/FaKMzlqgtRd74yUpYsZMfUMrYRvLbfgiIAhCHNonEGSjazn9GOMw6wznV+c/J8pt1hnOq85+xrZwif7zf/9J9tfAQhoZWpX01Hri3aJ1qMuG3MQKiAMSpcVQig/mq2AAj/53axdrIf768g336nOGC3Q92/WyHRP4LVn/fdSfJT85w9Iyo0jh0TE0EcpL88Xz/v1i+G4orakw1OTkMyu4AU9DZMpEoAHFqlqHtc4Ecr1ToIoz8Rw5PsSYzzoBm0sRaLm55ZmQxk4Zbn2B89GzQM6JC9AzSs5gI5CT54/n+k8OfWaIDpX7fWmY2uaSzGQKxH01sBkC8qkNHrZLjlQpFsh6vUo6Rl5wBW+elGy8H/d0GeSlNopCT5Pc+I7yDJ73N43TnP+Mz5hT54/n+R7pdlHtUubFt5Lf9EBAFII5t4j1yldlZN8tJj+te3NFdCthIjVLgZWcaZ0anyE/7tZsyT/KjR8/ux/6qNruT5I/X+5+T4VaF9RB+WhYTSgwERAGIYzvSkavNcWDn0Dm4ph5PmnBcc9Dwv3BEHBMGNQ/H5rj7TpL/3J4NWfg2q5fuiGN/WcL4MTlF/ni9/50KsvzQUvtKlouOBRIUSA01+3KLAhDntnl8dLuwNSCP+rtPbB2WL5oMDbPTYBhjrfikjvnQsI79z5JXxcpJ8t89rDVkp4V/tR8f3V4VBkfwO0n+eLz/I/EIcRrIzVB/XNprlIDvtxksEiFN+F4iEaS0sQwjOtWH6wc0C1rDNLcGH1/SHVLwM9709v+3dx3wUVRb/8ymhxRCCQm9994tiISmCE9ABQt2H89nr6C+InwWqr13VBQERVEfvXfpJaGXECCNNNLb7nznLCzGsJu9d2Y22XLOT9zN7J1b/nfmnnPPPeWujtbkK476Qb7YC+/o4Ohnj7/uKeOnZ+W3e7tUaTBKz9yIdnU8fk7sDcCTxl8T73+z2kEwrqs2jeIk1AQyeQ8CLAC4wVzOvLElEHMhi2ybkX8QLuLXt4yEQ8/0gauaRrhBLwGC/E0Q/2QfeOqaRhAZ4m89ECCxpDZ+p2sJT/WBQCzjreRJ478an5mDz/SCQS2jrPNGc0IyZAt8xuhZo2fOm8mTxl8T7/+04S2EbUVsz8l4FBpGoPaAyXsQqPFtpWnyalUEzls614cFE7qIFAWz2QwWC2eyEgKLCzECjIBPIrAvpQDGfBsPyZgF0BndiNqi78d3gJAAYwX84P9sdNa09fexnerB97d7hnbRz88PTCYxnPxeWCM0fiy00DJj8DjRwqLlxHopWhuXYwQYAUaAEfAIBLrF1oLN/+xhTX3tyCagTmgAzLihBfyEWiOjmb9HgOTlneR0wF4+wTw8RoARYAQcIUCeCF/d2g6mouHo75gb4BjG+s/GKIExaOjXH4+RhqLhLxkhM3knAiwAeOe88qgYAUaAERBGoCkaBj7Sv6FweS7oHQjwEYB3zCOPghFgBBgBRoARkEKABQApuLgwI8AIGI0AZacrMwvZAhvdNNfHCPg0AnwE4NPTz4NnBKoXARX5/PpTOfD9vnTYfiYPjmYUgQUv+pkUq1vagBaRMKZjPbipfR3NwWqqd0TcGiPguQiwAOC5c8c9ZwQ8CoGtSbnw9O8nYG9K/hX9NltUOHOhBL7fm2791yk6FKah9fmwNt4ZrOgKAPgCI1ADCPARQA2Azk0yAr6GwPtbz8Hgz/fbZf72sEhIL4S/fZMAY787COdynfup26uDrzECjEDVCLAAUDU+/CsjwAjoROCdzWfhuSUnrap+2aqWoGtar/d3wec7UjTdL9sel2cEfAkBFgB8abZ5rIxANSNA5/3/WpGoq9Uc9Et/7NfjMAQ1CKQZYGIEGAFjEGABwBgcuRZGgBGohAAZ9z37v5NQjuf7RtAWtCHo98FueHbJCSgoNRtRJdfBCPg0AiwA+PT08+AZAdchsPhgJsSnFRjaAAkTH2xNhj4oCKw+nm1o3VwZI+BrCLAA4GszzuNlBKoJgZ/iM1zW0smsYrjp63i4c/4hSM9nI0GXAc0VezUCLAB49fTy4BiBmkNgHZ7/u5oWJWRA9/d2w5xdqUAxBpgYAUZAHAEWAMSx4pKMACMgiEA+ntFnFJQJltZXLKuwDB7+5RgM+WI/HDrPRoL60OS7fQkBFgB8abZ5rIxANSFA4X1FKbJeAJgMSDi3+fQF6P/hHnhlTRIUl1tEm+dyNYhAmGCmwYhgjlnnimliAcAVqHKdjICPIyBj+N+4fTDc/EQMNGgWpBu1EmT8r609DT3f28VGgrrRdH0F3RuGCTXSPbaWUDkuJIcACwByeHFpRoAREEAgxF8RKHWxiLlMhagGAXDTw9Fw3bi6EBSqf1mqaCR4vpqOIoQHzAUvIzCxb+zl746+1A7xh9u61Hf0M1/XgYD+N01H43wrI8AIeCcCIQHiOv3yskvqepQZWvcMhbFPx0Crnsbs+MhIsOs7O+GLnWwk6I5P2m2d68P4ro6ZOyWJ+nh0W6gbGuCO3ff4PrEA4PFTyANgBNwPgWB/EyiCSoDySraCIeF+MHBcHRh2f30IjxIXJByhkI2RBB9dfAyGfbkfDrORoCOYauQ6PSNf3tIOXh7cDMKD/jrXHeqHwu/3dIbRHevWSN98oVGvtKwwmWjxEVx9fGGWeYyMgCQCKvrUWSzaDeno9SMhoMi2u6+ifXO5ff+9xu2CYcwzsXBgfR7sW5sLFrP9clVU/ZefNiZesAYQevLqxvCfuKYQhP3zVPKmNc4P+f6/B7eA5wY2g51ncyGnyAzN6wRD5wbGaIGqe449ifd4pQBAE+BJk1DdDyi3xwiIIOCHK7PZbNYsCITiMYCIAFBe6ljQ8A9QoMeQCGjWKQS2/JwF6Un6gv6UoRAxe+MZ+OVgBrw3qjUMalVbBAq3KUOMn+bFGyk00ATXteT0z9U5t54rAlcnStwWI+CjCBCz0SpMBwsaAporHQHYg7pOLBoJ/jMarhlbBwKC9C9bxzOLYMTXB+CBn45UW7wCe+OSuUbz4K3MXwYHLmscAvrfJOP6wjUxAoyAGyKglemIGgJeNgJ0MnZigO361oJbnos1xEiQIgd+vzcdur67yyOMBLXOgxNY+WcfRoAFAB+efB46IyCCADFeLVqA0ACx5YXcAGUoNNxkNRIcem89CDPASJAiCZKR4PCv9sPRjCKZrlRbWa1zUG0d5IY8EgGxN9Qjh8adZgQYgZpEIERQAKjsBSDa5yYdQmDsMzHQdWAEKOguppc2nLoA/T7cDa+uTYJSs2O7BL3taLlfiwCmpR2+x7cQYAHAt+abR8sIVBsCwYKxAESPAOx13B+FjN43RsLfHmsA9ZsE2isidY2MFl9dcxp6YYKh9Sddn8xItHPklcHECBiNgMcIAPwCGD31XB8jII6AlvdP/AhAvB+OStZtGAAjH7EZCerXBhxDI8Eb5lw0EszEI4KaJi3413Sfuf2qEdDjZlt1zeK/eowAQEMilyQmRoARqF4EtL53FAdAhMopcY8BG1xSk1uNBJ+NheadQ0SarrKMzUiw1/u74Ts0Fqxp0joPNd1vbt8+AiwA2MfF4VUCzB1Ac9hB/oER8DIE9LxzohoAYv5mnUF+KsIeGuEHcRPqARkJ1orUH+okNa8UHkR3wdHfJsDpnJKKTVXrdz1zUa0d5cacIkDCnDtodcREdKfDqb4CBJy7gFd9o+aWGIHqRYAWJ9u7prVlUTdAqr+81AAVQKWOkpHgLc8aZyS47GgWdH93Z40aCdrmxB2YRyW4+U8BBEiIKy8vd5uNrH7xWGDQTork4e/hTsoAJfUI/s9GZ8X4d0aAEdCJQKCfCZrVDoLbMEnLk1c3gkiNudhFvQCou+UYDpiSAYeACYZBFPSEMKgN/pAL5XAACmEFZEMOfpcl/0DFaiTYvOvFSIIZZ/Wd59uMBBdjJMH3/9YG+jVxunTJdrnK8tZjiT2p8DkmN9qTnA8FpXwsWiVgXvOjSnzScHIHDUCK4aPiChkBRkAzAuQCR0Zwr6M73FUf7YHE7GJNdVEoYFGicMDREAAvQ1MYCXWgIQRCKAoDMfg5FEWBqdAM2qN4oJXqNQpEI8EY6DeqNgSgUKCXDqQWwPWf7bXGD8gtkRdMtLRvtqhwz8LDcN+PR2AT5jVg5q8FRU+9R0l2Rc9rXABAxd9+VwyM62QEGAH9CJzMKobx8w4CMR9ZEg0FTPUq5Qo8hmy/LgoB9oiEgUfw9yjUCmglDKMPna4Jh9FPxQAlGtJLtBunNMPd3tlVLUaC09cnwcID5/V2m+/3QATQvtUlfLLGBQCTCr964HxwlxkBn0FgX0oBLDmSJT1emSOA/gEREIu7/aqIjgduQBFAL4XX8bemGr5oJCiupXDUbsolI8ExcxMgyUVGgnT08Namc466wNe9G4ESsyVomSuGWOMCgBmCfsGBsVjritnlOhkBgxBYqyEojswRQLfAUKGedsSDAaOIjATHPB0DHa8J0xTquHI/lqKQ1B3zClC2QS0ak8r1Vfx757k8yOfz/oqQ+M53RZkPM691iQ2Adn2aUfDTwCavfgWre9eoKrkeRoARMBaBtEIzZJfL7RcsJvHddZhJbCkiw0AjKTDYBP1HRUGLrqGwZVE2ZKfpMxIsLDPDv1ckwrx952HWqHbQo5ExRoLJBe4VmtjIOeC6qkSg2KKa/1tlCR0/yr3ROhqq6lbLycwPVVVxiYqjqnb5N0aAERBDoFHtUChWTVL//PzFBYAywdj7gaDfgM/eiBs0C4Kbn7hoJEieA3opIa0ARn6xB5757RhklqhSuNnDuX6kdgNIvWPh+2sOAUVVH4MZQ5Nc1QO3EABg4TizWqrcgYPc7aqBcr2MACOgDQE0QIIbOtSTvlkmDgAecgrVb0IBwM9FQgApLMhIcAwaCTZqq99I0IJWgvN2J8PgD/6ApQf1RRJsHx0Greoad/whBDYXqlkEFHWaeeaQL1zZCfcQAGiEbw/KsZjLr8NvC1w5YK6bEWAE5BCY0LsRdGgQJncTlg4WzAZIFRdROGBBcpUWwNY8GQkOf6A+xN1VF0LCxLUYtvsrf6bllcAjPybAg/MPQPIFbS6VJIRNubEN+BmQ9bBy//hvt0OgGHf+D1mmD3nJ1T3T/3Qb2cMtc8vUzd/86Dfg3q1YbTv818jI6rkuRoAREEeAmM7dfRrBf4e1AZMGxnM+vxQW7BUL8zG6bzR0DK8l1LnVGBKoxIjkAU5aq90gANr1qWUNUqQ3gBA1dSqzEObvSUEmDmgbEAkmAliCmkaFQOt6obDxRLbbpSuWGAYXdYxACVqjfocB729RZw5d57iYcb/IPYHGtStW03PLW5hMATeixq8V/muAwZOr9BPyNyl+g9vWG4lScpXlxBrnUoyAbyIQgByqaVQwjOhYH0j1rJUSUvNg5Kc7hW6f80gnuLtpA6GyL0Eiug3pM9YTaqhCodTEEquRYE66Me12igmH10a2hW4NIyq0IvY1C7MT/h6fBvGpHAlQDLHqL5WeX5K4M+nCDoGW8zEKxhlFUeOtrn4usvZ31A/3FgAc9bqK60kF5vdVUB6togj/xAgwAtWAwAnc8Q7B828R+mhie5jYsqFIUYwWeBqSoVSorJGFLBh1N35TLuxZmQtmDF2sl3DDAhNQw/LcoJZQK9C9lLF6x+br96uKcnXzUIU02W5N7mMDYBBMimr61KCquBpGgBHQgUCIYDpgaqIIQwGLUiAGBKoJIiPBrgMjrLEDGrbWbyRYjtEV5/xx1iokLT/EoVBqYk5d0qYChz2B+dPYa+ZNcgnqFyttEqZQyEQR1YsLe8FVMwKMQJBELgDynxclVxsBOutHRF1/uOGhi0aCwbX0L6GpaCT48MJ4q5FgSm7NpRt2Nm7+XRQB5RPRkjVdTv/TW9MjsNu+8pndy3yREWAEqg0BGQ1AYYm4BiDARW6AssA07xIKtzwXC+361sJjXNm7ryy/5mgGDP9oO3z1h/GRBK9sja+4CIHSQDN856K6Da/WKwWAkFCYhy+kS0InGj4DXCEj4KUIyLgBFkqEua2pIwB70xQUYoJrxtaBEROjoXZ9/VEK8zCz4P8tPw6jv9gFB1J4CbOHuTtfU1X1p9hwxWPOc7xSAIhWlHz0GPjBnR8U7hsj4O0IkJtboKAdgExq25o+ArA3bzEtMJLgkzHQY0gk+PnrVwfEI/Mfi0LA1OXHOO2vPcDd9Zpq+txdu2avX14pANBATYqJjwHszThfYwSqEYFgUQGgWNwGwF2OACrDSIy/x5AITDfcAGJbBVX+Wfpvm5HgjZ/sgPUnMqXv5xuqHYETzcJgbbW3qqNBrxUAmoQq2xEXt3fD0DF3fCsj4PYIiIYDLigRFwDc6QjA3gRE1guAGx+Kth4N0BGBXjqTXQT3fbcfnlx0EDIKqt/9UW//feZ+RXlXQYd+Txqv/qfTnUerKG+6c/e4b4yAtyMQIhgOuEBCA+CORwBXzCOeApBx4NhnY6BlN2Ni+P+KwX9u+Ji1AVdg7R4XskNC4Ev36Ip4L7xaAGgaAj8jFMfF4eCSjAAjYCQCwYIZAfOLyoWbdXcNQMWBUC6B6++oa80tQDkG9FImagAemncASBhgch8EVFA/stqeuU+XhHqi/4kUaqZmCqE6xpxYqL6DiRXek+2B3yU7HrNHKXRkRylf3masVVXkMsIuFIOmBGCkM4KvBEEsQg0vQymPt947AlHED8UJoTkhRzuai0I72nYzBqVZdSQDtpzOgRwMNUtx5ykUsL0kQJQWoBbOb+Cl/ACleG8B1okfV5CoJ0C+xBGAu9oAXDH4Chcou+CYp2PgwPo82Lc2Fyw6FhayDXh28SGICQ+Cvs1qV2iFv+pBgB5nTOAovE5RCmsKm42EwSWVS+AAAEAASURBVBtM7+tpu6bu9WoBgEBdfjD726Ky4mlbE3PCctHFpmHExRjnvZtE2sU8HBEJD1DAZshL72k+hv3MxRDgdtY3u3V428VyBGHOjjMwb1cKnMTwrkTN6oTAPZgl7t6+jf+SoSwiACAS8cN36TKFI5gUOTUD86JLBHy7fD9/kUeA8I/CvPZhld5wmguaA5oLWzRbOmP+x4J4OJSGYckr0AebEuGuXo3g5eFtwP+SREyCXR2s9xLvt5auhbMdifObVXqlcCEsANiTSir0peJXjzgCqNjhS9/98b0gI8FmnUOseQXSk7QH/aF38vlfD8OKf/aFIEFDSztd8vlLtM7TehWCz7VVAEBE6DTqQpn9tYrCW7+34TSsPZYBucXlUDskALrEhiWtP3VBv9VnDcxGxXW6Bpp3cZMvrG1tUi2/YCudKrf0t84NYNbf2l92UyIg6gcpEIwPgj2iRTMdF017uxx75b3lWhFGaHsAVY7bErPtDmlgq7rw6fjOVhxJeCKm44gIu5RiFXRsfhxVzdcrIUBMujLzr1iEmH8qzkUOqt5HfbYTklAIcEQkBLx6U1vruxGN70hVRO9IxeP8+77fD+uPO7dgr4eSY9pLA6qq+vJvmyAXvgbPVoGjvzgc3lYAu5ZfgNJi0s1oo6k3tIF7UAhnkkcgCDfvtOZXFGYr1pKJAm1BhZMp8sT454IEoDXRDuVZLMoomBW33s5vbnvJe20AXtgYhcx/NSJ/BfOn2aAztJf+d/TyxJAU6Ij5UyFSpdbGMt5GtZBp00vQMESBmGDFysBJKrbR7LWnHDJ/KkMvxdvrE60vUe0qmD+VpRfNGzGksbkT0bNaFfOnvtIckzbgs61nqmT+VPb73ees2oEogee/chlRDUBekTgT9MQjAMKxIuHxJHS4KgzGPhMDFFFQK83bnaL1Vp++j9aielUwfwKHhGibDWs6prZ+bOFBR8yfioebTOpCeHFVXfrDU8hrBQATlDyPk9C0qon4aV8KbMczT+J3zhZMqofK2B6Iqur1hN/oBWiADL8uPuSk/iKGQIyDdvGxKAzQtQuo4vpu5zmnw/lmx1nMjmb+i9rf0U2hWD/hzeQ6BOjMX4RInb/kYLrTonQuuuLweaFnn96Piu+IqBFgCe6qLIKHbJ56BGAP6NAIP4i7qy4Mu78+hEc5UD/au/HStcPp+UC5BJjkECDh19lrQm8RlSN6Fzc5+aUV1AHWq1f8r77JbJp4xVU3vuC1AgCoyi0iuL+FE0uMz5EaqHId3rKDJcZPKjB7RI88SccHU3KhpNz5zowMA0UDlVDdJFwwuQ4BZwubrWU6Oj6TU2z7s8rPM9li5aiSS2umtT5RN0AqXCosADh4cK0teub/GrcjI8FY6DwgHEySwzvIIYOlJp3eD7JVEiFaI5MvFMOCvWKaFlWxDBSp113KSD5q7tJtoX5Uufu31UBn21tRCyBKxLwcMU7ROmq6HPXfGRMmRq1YnDN/21iWHXZ+zmsrGyLKoWw38KcUAqhdFiIqRpbMIlQqWI7qqti86BEA3VdKqgYB8oYjAHvD9EehvO9NtWHUYw2gfuNAe0XsXjvPwYHs4uLoYgQeZVV8Rh2Vo+u0MXx/42nh98SkKhFV1eduv3mzAJAlCvYsPOeWIWdn3TJ11UTZYEEG3KmB+NnkqqOZQK5kIlSVrYXI/VzGcxAI9hNX95SoYsKINx0BVJ7JnPQyOLWvCPJz7BqaVS5u/ZtyLjCJIUDaKZHjXlttJ7OK4cd9qbY/nX6qCpxwWsiNCuCJrNfSChzZfSKj25aYAyuOZcOwNlEixa0aANpBk2+7J5Ig/4eO9Wuh22QQJAvkKM9E3/GtSblwbXP77pUVcaL2SQshkQG24u383YMQCMFdrSiVkMZJYEviSYGARMZeXGCBE3sL4PiuAshMRn9jSYoOE9cWSFbtdcUruyg7G+BraxOFd/9Ul6IqC53V6U6/C7xu7tRd8b5Y/ExvYGmxLQUWfHnFSfHKsaQn2wKYBVWttLEY3q6eMC6/HuJjAGGwfKRgcICEBkBQg+QNGgALbh6SDhbBqm8yYP7r5+CP33I0MX96RzvEhPvI06RvmGScSl5PonQCd//z94jv/rHeBHPoht9F63eHcl4rAMDrg+JRIU0xAIRo+5kLsAy1AKIk+zCJ1lsd5Sr6aTtr728dxL1almIkOVFyZoMgWg+Xc28EQiSC1Fg1AALDCRBREwjUUxNFaIdPzJ6YPjF/EgJIGNBKXWLDgTUAYujJbtqmrpbc/SvKyzBlivCmU6zXri0lIQ+5tiOuqF01q1MVP2UM1i2khyQtwPDWvUD0SI0eqEKMqCJ28u2KEWqrk1TvtNkS8XwYgsciZMhVXOb8uT6Ymg+JaC3ePCrYacdIgKJ/AtU6rYsLuC8CchoA588YjdTTNAAlGOMg8UARHPkjHzLOGZvNbwJG42RyjgDZHclsOhLSCuEHQct/a+sK7DcHb/jZeU/cq4T3agAI59lD9iN7XiQK+U7UAvxw4LxocasfKVmUeiKJ2i+Eogr3upZithGEw0/x4vjJvJCeiDH3GSBYQgNQLOhp4AkCAMX6P51wUcU/79VzsHlRluHMv029WjC6SwN+zAQQqBygytktk5adAAq3LEqKRZnqabt/Gpt3CwA4QBVML+OH2NYCC7609DgmTBEubvUnrej3jFV4BBVJPNyjOojbAfycIC4AiAas8QhAuZN2EZDRABRhMCkR8kOFnklMqSdSnaFlaIe/7bdsVPEnw+pv9av4HXWO4v/PGt3elozGUTG+jghQcDPSNorSxsRcWI6Br4RJhXg8+xc+bhautxoKSsBSDb1xRRMz4hJQjhPWApzGmOgfbE0W7gnt/z3RLVAmO9/ojvWEj0X+OH1ByGuAAKYATJ4oPAk/HFzQenwkCkOxLTuRwA3upAUox3Osg5vz4Ze3U+HX99Ks38my31UUiMz/3bEdoVtDj3I5dxUcVdZLx5xk+S9Dk/53zJoVUPQexQT/9cTdP43P+wUAHKTqZ5qKH8Jv5PQ1p+ACZg4UJQqp6mnBgUi5JZqBlVwBu6KxkQhZ0MPgp3hxY0AKDczkvQjIHAGIagAILXcRALJSymDRm6nWXX9WqrwLn+zMN4wMhrkTusGw9vVlb/XJ8mSnJWLrZANn/v7zQAbh4qTuNU+P88jdP43RJwQA8gjAsc4XnVTyaX91TZJocWu5qrLgSVVUjYVljgHGdBJfcBbFO48vbxsmHwPYkPDOT5kjgGKBsNM2lNzBE6Ao3wwrvkyH/Gyxowtb37V81gkNgKcGNrem/+3TtLaWKnzuHlL7ywT9KcVj0f8sPyGFE8YUfIm8/6VucqPCviEAIOAWc/m/8UM4a8ZHW85AYo5w8cuJdNxobp12RSIFO4zvFu20PluBzRhY6XyB2G6IjwFsqHnnp0wo4EIJlxB30ADEb8iDwjxhxaL0BPvh1vX61nXhg1s7wdanroYnB7aAWoHicRWkG/SyGyibnwy9v+0cnMwsFL4Fuf4a84zBS4VvcMOCPiMAwOzhp1BS+0B0Dijn8+QlctIgnTWJRtkT7Ycry5EdYKng+tW2Xii0j64l1B0KCbxIwhhQJjiHUAe4kNsgEOIvzrAc5Fm3OxZ3EACSDhXZ7Zvei2Td/+LQVrAFmf5Xd3aFER2jgc79mcQRoJ2/zLEsbVheX4UsQpwsqqJMEi/uniV96qmyKAGv4jQIh6v76UAqrDqeIzxzdNbkaUcBou6ABMKYzuJagPl704Rxq8WWgMJYeVpBV2kA3OEIoPCCcar/iGB/uKNnQ1hwXw9Y8UhfmHhVUw7wo/Fhp3VYNujP5GUnIbtITGt5qVvfw/S4XRq76Da3+ZQAANMHZONxzTRR9Cli7pO/HoFywRClVC8ZBHqSf3uhhDvguC7idgCbTuXAOYEcAoQZ8X86CmDyPgSkBABMKy1KQW7gBhgcJq7dsDcuUvEPanNRxb/jmWvg9ZHtgM/37SEld418/kkIEKXtZ/Jg7i5xzy+st9SiqC+L1u/O5Xxu2bUEZ72HEyKs2z+cXgDvbDknNYekBZB4/qTqNrowHbuKHr12jQ2D1ngUIELkDTBvn7gxIGsBRFD1vDLBEkcAhaJuKQiDO6QEbtzOecRLezNWUcX/5R2s4reHkdZrFPFP5kiRNnmPLz4qnMn0Ur/ehelDTmrtozvd53MCAEwZV4rs+b8yk/DKypO4mxUP4Uk7WlnfU5n+GF1WRgswprO4FmDeXvFEGqQ5YfI+BPxxK+YvaBhTKGqQgjC5Q0bAzgPCwU/y+GrGqHas4nfRY06bLlnDv093pMDOszJuf5BjManTXTSEaq/W9wQAhNg8Y9A8fFi2i6KdhzEBnl8qrDSwVhsR4DlqbRlvgDu7iYce3XsuDw6fF7OqJR5B0juT9yEQ7Cc2sfkSWarcwQgwvI4/dLpWLD6GbVYXolBMu04m4xGgTZeMPJZVWA7/lXT7w6gyU2DaEGE7MuNHaWyNPikAkN+mWVEfQygFbeABFmBiiHWnpCRFqOshRwGyxwAdG4QJP4VzJYwBw2TeXuEecMGaRkDUDqBQwgbAHYwACdducREQGi6+jFK+kaWHxI/GanruPKV9svinTZcMvYCGfxkF4ppdrPuAJcRP2JNMpi81VVb8ya2pHrqq3elDdmDVX4hWT1L7P346BEUywUoQXU85CpA5BhgvoQWYh/m0RXc8ZDwpY7wjOndcrmYREBUALmAALlGyuEkOzgAU8nsNlwvM89qKEyDj8iiKia+WI9V/3SD6vzhtOp0Lc3bK2XZZFMsTMGWQeIhY8e7UWEnfFQAQcktp2Qv4IRy39nhGIbyy5rTUZJFUKuOPKlW5gYULJB7re3o2EM4NkJhVBOtOirlS0itcS0xbbODIuSpXIyAaC+B4RjGq5MT042kgLiy4enyte4VC/SaBws0k5xbD51vPCJfnglUjQLlYZJSHpZjsbSJu5iheiQSh29/QdRLlPaKoTwsA8NYNWWiu/x+ZmXpjXSLsxLNtGSLDFDn5VKZ2Y8pSHhZRG6ymtYOhX5NI4Ya/3JUiXJa9AYSh8piCohqAbAzGsg8KnI4rE5n/MXBNEB6njdspoCgK9BuFWgCJl/zDzach+UKxndr4kgwCtLmibH8yNGXVaTiC3l0SlGfxB48P+mNvvL4tACAiluCNn+J7K2wQSDEBHl50REp6pJjUnpAxUOYY4M7uMfaeJ7vXFh1Ig5wiMRUDxQPgmAB2YfTYiyGC4WvLS1VYiAq5fDA7HCsZ7cyFdCwhtXtzWJ9RP0Q3DYJW3cUiZVKbxWh4M3PNKaOa98l6SN6SVf0npBfCWxtPy+L1f/DaYLnzAtkWaqi8zwsAlMbRrJoeRfyFDQL3nMuFWRvlVHgkpbq7lTsaxQoT5QYIEHTvosXuh/3ihk9sDCg8DR5RMMhPbJkpL1PhPO7uZ8NZOGcnbUcusv0PIRniQcyzpLrB6X1jJPijtk+Ufo1PhR1JYsdjonX6UjmKtyKj+qfYJA8uPASlEnZciOchS3bkO96Kq9ib6a2jt41r5qCduKH40vanyOerGDf6aIacGpK8AgR5pkgXDC9DxwCinlj1agXADe3qCffhq50yxwBsDCgMrAcUFNUAmC9FpDoHpTAVkuBtFAMWY+Tu3yELPoEUeAkShY4ISDmQdLAI1i/IgqWfp8OauRlwZHsBmOkBdyHVivCDrgMjhFsg41gyCCTGxCSHAMUNkcn0R7XP3ngWdkil+gUVDf8egU97u4/BiRxMTkuzAHAJIkup6Xn8KhwPkqx4H/jxsNTLS8xfNlCF0xk0uECBRGjgh/rECrdOL16C4Lkb7aE4MJAwtG5fMFgwkY0FdXCWS9p/YokJuNMn5k9CwE48GCgRUNKVFFpg2ZfnYdU3GXBidwGkHC+BxPgi2LwoC35+KxVy0l27lne+LhzCopA7CdK+5FxYtF88YJZgtV5dTMs6egjjkbyy6qQcLqr6mTca/lUEgQUAGxpvD8pRLOo/bH+KfG5NzIbp6+WOAsjVTdZoRaQvRpWhYwBR49gb2tWFmPAg4aY/wnSbohQuo9sTrdRNypGAQ4sYDZHsHehoiAQeCmFKuxryHCH3UUpoQgIjaY7qoZtTffwXjf9ighWIxX8NQy7+a4SfjS/9axqquJ3wFByAgxMks5x69i+1ZqeVwa/vp0HyMfvGdbmZ5bD8iwwgIcFV5I9z1udGObfAWatPQoFEDARX9d1T6qX3QcZdmOy27pl/EGTiTGDAnxSLKYi8xLyaWACoML3mWUN+xz8XVrjk9CtJlbuT852Wq1iADALd1dCNdl6ikQEpzOtdPcSNAb/bnSq80JHhpLu7T9IiREyc+kmCHTFwEu6IeRPjJqZtY9jErIlJN0EGTf+IadM1YuZUhsrSwkb3EeOPRCGABAESCKheEhCoDRIW6NkhfKht+kfCBPVFZlGs+Dy6+ruoFwD1g+wAtNDZI8Xwv4/SIS+rakOWggvlsGu5XEAv2f606BoKsS3FBeP0/FL4YONp2WZ8sjy9F7K2VP9dmQi70W5LhtCz41Fr8jiZmzywLC4jTBURsJSbHsG/z1e8VtV3Mii5a14CFEvsXHCtdusogQUSZ6UP9Y0VjgmQW1wO37t5ZEBipsRcaZEhxktMmIyNiDkTo6adNzFv2mkTQycm3gCv0e6cylBZWqSIcRPTtjFsYtTEoGnuPZH09DtY0AiQcCFPAFlK2JwHK+dkQGmx2M7+yI4CyEpx7VFA35FRoEhIZJ9vOwOnMt3TuFF2PlxVngRt2cBqf2Cmvzc2JMp2aaF5+uCfZW/yxPIsAFSetTcGZSiqSvYAwnT0fAFMXip3vkRMRtaFRbhDOguW4DoqKgO0xeyAMjEBPth6Vrh3ochEiSEbQVQNMWFaRCoydmLctAu3MXX6JCZPzJ4YOu3GaVdP9xAzp3kzqk9GjKu66pDgZVd0Se4IQFwAIKO+DQsy4Y/fcjDapPh9KqqEty3ORi3vFV017ELdhgHQtneocH1lGJxmOh4FMNlHgN450pLJEB2r3D0/Acol7Jqw/gsW1fyUTDueXJYFADuzZ5455GsV1OV2fnJ46cMtZ2DVcVxUJIh2iLKWrBLV6yoqowV4sE9D4bYOpOTDtjNi6jh63UVdAqksMWebjQUxblowbMyd1O623XpFxk7lSaXui0xdeNKwoNzS+9eag3EuREn0CKAw1wxLPkmH47u17ZpTE9E4MEHOi0d0DLZyPYdFQmCI+BK74vB52Hgyy3Y7f1ZAgN5Z2Xf0id+OwwlJrYqiwtMwc5iwMXiFLnrkV/Gn0yOHp73TKABMxLuFDwvJlecB9DHNEgx4Y+sZqYzd8aw7v+qjVFv3rZ+3d4+GyBDcIgvSB1vPCZa8eKZuYx+0ABBWJDTZGDyp32nXTgyedu60oydMSXVPAhYzd2Goqyxom4MqCzn4UTQUMN0ucgSQmVwKv32QDufPSCVyuaJ323/PQZsDsWODK24WuBAS5gfdMVmQDL2y7DiQ0RrTnwjQuy577v9TQgZ8LRnrX1Xgd/PMuDl/tuz931gAcDTHM4YmKWDNGOioxBXXz2Foz7vQ2lRCG2ndWdFOVY+K9YqOGHCBtGaiMQFC0cp7Qg9xl8Af96dBap7Y4k24xCKDp/N2YvTE8MlQzsbgSSCQ3RkYAI/PVaGHTcoYAVqcnD2d3FdoNfYjYz69lJ9TDgkb5Qx4ZdvseHU4RNYXF46PZRTAvF0+swF1Cidp6Ohdl6HTOcXwjx8PSa3DWH+Gajb9nTLFyrTl6WVZAKhiBs0zhszFn+dXUeSKn1YcyZCOEkgMrB4yNXejfCeLccX+Pn51I2FjQDKc/FDCJdBmQFexPf5evQjo2ZSG0NmMIDnUAOCyvGdVLqybn6nZU8BeF/atzQMSBFxFJmRgfUfIuQW+ue4UZBe51kjRVeM1sl5670n1L0NluHMZ/12CNH5o9/VPmDXI5wIyiL+ZMrPgRWUtJaZ/4nCSZIb0n+XHYWOi8OmBtWpScZGqy52I3AFF7WfaoDHgdS2jhLv/6bazUp4TwhVzQZcgoGdbFOyPD7cgldsROsvQM2DVtxkoAOA7pacjdvpARwC7VojZpNi5XehSkw4h0LhdsFBZKpSDzP/dDYnC5b2xIGn+6DhPVjP63JITstH+6Jn6HO2+fvRGHJ2NiQUAZwhhgCCToj6IxYSXHrI6vfP7BDiP2c1kiFRdZG3uTiSjBXj0qsbCXSdsvt/jcwK3MD7eVFDmCMBcKQ4ABe/5/YM0a2hfV2FyYk8BkFGgK4ncAkkbIEpzd5yDw+muPZ4Q7UtNlKOdv4TiyNrFXw9lwgdbpPZqeJ9yygJBz9TEGN2hTRYABGahfPqQVVjsXYGil4tQzu8JkvYAdDOdb7uTUSAZA4pKPjd3rAeNIsQDoLy96YzsOd1lfH3xC80DqeJpk0z/KH0z/SO3TbLXoH8yWpvqwjBIRgNQIQ5A6qkS+P3DNKAIfy4lxHK7pCuhbH9qox1Ah6vChW8jQ8BXUJPoi0SaUDr7lyE6939ggZz9FdaP0afV+2DmtXL53WU65uZl3Wy/6b5oWUJML5iKLEOwh51Ee7nqWCa8vu40/GtQM9FbLhsFphWrwr74wpVrKGgzBhR5ISky4N/7NYQpK08JtZSQVoCuk1kwtE0dofKeWAh5i/UYhQxDyZCOGDhdo0/rP/wrr8QMuSXl1pTJBcjRLxSXQQlyeMo3Qb+V4jJFQZRKUF1djDvk/NJyKMWJycd7iCjEKZ19EtE10yWR7QLeQ1SKPuY1GWo2RCLspe0I4NDWfPTvz6YVWhP5o2FNLTROtWHgrJKMc6VwYk8RtO4p7rvvrM7Kv3cfHIFtFEBxgdigtpzKhtVHM2Bw23qVq/Lav20xOmQGWII2Rbd9Gy997o+L7TSYPniDTFveVpYFANEZnTKo2DJ5zXhcXLfjLcKrxNSVJ6FbbBiMbF9XtCWrVTt5BpAQcHFZF75Vd0GyQqD1Oggl8EBk6LJW9g/3bwzT154WPt+ftT7JYwQAG+MmXkv/iIFbP3GWMvBII6uwDDIwmQJ9ZuM/+iS3UGLoF/AzHxl1ATJoYub0PRfPeonBe3s2uCDBZED08JahOmPbr9lwcIt29XdUSAB8eFsnIK+c5xYfFn4ndizJgWadgiHARSq4IIwJ0HNoJGz5RTxeyCsrjsOAlnUgUAJD4QG7WUGCnTSgsvTwL0dhl2yoX4AN5mDTFNm2vK08CwAyMzojLkGZtPox9Bf9UvQ2M3KJezAa1bbH+kDbeiGit1mZMAkB50uI7biOyMiGXrwgYvZWpq8v6Et9TBM8oWcMfL5dzJVpNWoAtiZdgKuaRrpukE5qtjFyUqvbmHsB7rLJVTEF47Rn5JfhZwmcx78zkcGn5ZVAVkGplcGTwRZZbMu4fjrpjlv+LBNpr/IAaCcuSgfW5+lK29uhQRh8Or4LNK4dbBWs5u5Mhr2CzKEo3wz71+VBr+Guexbb9a0Fh//IFw5FfDqrCObsOAsTr2oqCqHucrQmkMbPX1GsGNqOmly5EpHFPxn9ybL/tzedhW9wjiXpvNkf7oQpgy6qyCRv9qbisnh709g1j8U0efVXePN9MhWQlfz2x3tDRJCczEVn8FkVzkVl2rRX1hoOF19uK8NHxi9raGOvzsrXjmDqzc5v/iG8s725U31YdHeXytUY8jcx94qMndTpqcjQz+KZYUpuKSThZyp+piJTT80rhnRk8sTga1JlbsjADa6kT5NI2PZoL6FaM1BorZhQisLctn99g/DzINSInULXt64L793aEcIC/3zH9pzNhVu+2iUsoJnw6GDsMzEQUffPOuw0petS6oliWPKZcLoRqBXoB2se6w/RYYG62hW52ZbMioSAikTMnwQBsjMpwZcKFVeGaSeprQbI/GXXog2ncmDY53vx+EvsSOXSeCwmUEaUz4iTivRaEQtv+u66p9ybUKo0FktpyCOmwKIeeLlbpZ8c/nksoxCTBh2Exfd2QdeWSm+Xw7suRr0jBpar0Q6KYgzQDj8Yv9Cn7EtWRdcc/tSufigMa1sHlh3JdFim4g+/HjwP8WgP0LlBrYqXhb7TwkS7dsrFRDgVlpvhdDaGecWdExkGJeH3MzlFkIzq4OTcEkjHnbxkbHChfnh7oQzUeGilAEwG1DAyyCp0aa2jqvvodXr02ubw9PXNr3i3ejSOgJs7x8AvB8Q8Tiz4MO1YmgODJ7ju3D2mVTA06xwCp+PFQhGTMPrG2lMwY1S7qmDQ/Rsxf4qiaY/o6kVNIf16sYxNICjWIRBQTbTzl12X6N2+bW68LPOnrk8rn87Mn2aRiAWAizjI/f+tq4ssL64aZ7IoO/FGYdPeJYcz4L+rEuHVoS2k2iOrWDPqmAsEFFYkTQdXM8O3N5inr20iLACQ+nzmutPwzfiO9qq64hqdt+9MLYCj54sgMbsIzmQXw1lk8Gfxk3by3n6mfgUg1XDBZmSotalBberCt+jaZjSRfcG0ke1gTFfHaaknD2kJK4+cF9bqEGNOPlYMDduI++7LjouCA509XCx83PHj3hS4s1csdGsoF1pYtF+0UaA05TJEtkL0LwK5KgnipBWwCQPkmSJClBCNBAsZKkJj2LHfHkC7GzmhFEfH5/6VgJab8Uo3+/qffpPX3INmel/L4EC7lfl3dYFbO9eXuc36gpE9gL3wvPQS0pldCL7F9N0diJh6z3e3w35M/iNC5EFw6Ln+0LLORTuJHDSaO4aJPI5nFAFpT47ivxOZF79nS+ZbEGmfy1SNQNv6teDQs/2qLnTp18pHAHR515kLcOtXu4XuFy0Uiy6nn+B5f5dY5zL4+xsTrbto0brrxAbAzY83kErpK1q3rdyu5Rdg31rxIER9mtaGH+7tIRxx09aOyGdVu3+R+yuXQaWA1T21CDUqtGaRdq4ykbaB2pUhWlduw0h/P8enydxGZdMxy18PX0r0IwIQCwAiKFVRxjRp1Sf4Rk6sosgVP4WgUdTqiT0wja6cNE8vVToKAfQy2Xb5xPhJendHokA/d/9wULhr7aNrQWx4IBzE44A0NL5jch8EBraqA2v+3l2oQ/YEALrxwfkHYA26tRlBpNr/ZFwXqC94Lk6uYkM/2o7aIjG1O/Xx6tFR0L5/mBHdtVsHRTj8aXYKUGZDUXp3bEcY1bmBaHHhcmR978rMpJRzqRj/kUBAmgIKehapIfLp5GUnYfa6ROFxXSpYjvuL4eXTB6+RvdHby7vJftFzYbbk1H4Md/XrZUZA/t0jv9qHO1zxxYjqtxrLYDIcSoxDHgL0wror86f+ju/WAMj4UZQOpxfA2hPZzPxFAavGchHBkls1O337z7DWYEQ9t3SLhfn39BBm/tQVOip4cXBLO71yfGn3ygtQUiSoy3ZcjcNfApDp9r5BLk/A9NUnrfEhHFaq8Qc7G3SNNdm/jc74abcfjetWY8zcqYX5f7YjRQvzR2tF5Vlm/vbnhQUA+7iIX/20d5nZpI7Hh+yM+E1o2Y8+4n+bsx9dyAQO9itU7Kab/Qo9BDTCK4bfDmbANIwHEEa+hUyMACLQHI93Ph7XGcgoUAv5oQT8r2GtYPbN7TX5xd/YMRr6NxdnuBSwZy8mIHIlte4RCtFNxK37yZj1U+lwt85HUEKWtNVEWtawNcez4fFfjsj3UIFvLTPjpKK4yjfiuXdomQvPHa0re/7Cyh4m1bQJmxDf8mLhq3FBWvVQd+sOxZXdM7JuWipsD85x1GLsRFerHWdyYS+e9+9LzpMWaozsmy/WFY3HJiGXAsU0qR1i1RSRtijikvAVibv3WhVc42jubILZrPWnhSAb1Skafrm7s1BZR0cAtpt3JOXAoz9irgyJY556tQLhjdEd4Do8itBDh9LyYdRnO4Hic4gQxe8f/WQM1I5GnbWLKD2pFH7/CM+0xboEdIS46tG+0DDCOCNFeiZiULsoa43vIkj+Ui15CA34aJc1gNZffnD+x2702LoW0GjbeVHfLEHzzmQQAn6TVt2lKspc2erGdmkAC+7s5BLjHtm+VC5PaxKd35FV7xl0o9uZlItRt/LgcGou7MZP0mQwiSFA4WmbRIZAk9pBaOsQBDERgUCMjRg0MeTaGCMiDNNChuIqTAw7EMuH4mIfgJ/0j/6m4Cy0E6Z/tI8mRq+H/F4QOxY1UgCg/pIF97sbTsP83clVunKRtoAs/Ceh+r5uqDFM+F//Owrf7xL3SGjUNgSGP+A6t0DCY/2CLDixu4C+ChHZAZA9gJFEzJ/88fU+U0b2KRnjcvR/f6c1qqNkvWkW1dQbZg46K3mfTxXXuXz4FFZCgzVNXvMGivLPCBWuUOgFzBfw2vBWFa7UzFeb9W4e2insOJsH209fwM9c2I/R1FJQAGBC7Qe+Nc0w0lxLtG9oijvuhmiNHoO78Ab4rw4yqdrIxCngEwVwCcFVNRiZGDFw/M/tqKYEABsQ6agFIMPAjSezMSBTiVUwIDuBRojvVc1qw/AO9RFb8QRTtnqr+sxEoTXu/W1SO8qh99YDSuvrKipAQ8BFaBBIhoEiRM8geQSQZ4CRRM8ouR2H4nl9TT+ulMch7tPdsDdZzJOoAg4UomAQzBi8pcI1/moHAZxmJiMRsJzMmKS0rNMJg1oOl6mX4ufTDueZAU1lbtNdljwKyCo3FRfiLcjst6Mqfye6bO1PzsXEM/ga+RBR2lryROgQHQatMWxzsyjM4x4ZaI3AVgfjy4cjQ6fdOTHzml4cq3taXDVeim53e8+G1n/VNSZ6z564rjm8inH2RemP33OscQH8KJSmC6hWhB90vT4Cdq24IFQ7ucNNXXYcfv17L9yxG9OnbYnZsCUxx5qUqhlqqcheom/jcExRbrKGCTemFaHhQSFuQG7+er8W5o8CuvJPmB7HzF8AahYABECSKrJwnFmdtOk2RSnZiPcJRwqkNiYtOW7dOT7Ut6FUkzKFydaH/HKTcLe1Fg1rNuMLvwtj8R/PLBAOlyrTnruUDcMdeR90u+yKPuOUk4EM0mjXXg+ZAe04Q3BhD3An3ae7AHepH94Gzb19G8OCPSkYTEpM7Z6bWQ6UobDzAOcxB7ROXefrwuHYrgKgtkQoITUPKEDQuB761gsKff3UzwdhG64FlSkUhd6ejSOhL+bquLZFbejXNAIi8RoquVwmBFPQqfHfxcNGDPUrTQq8Zp4e96X0fT56Q3UKdb4F8aQVDU3gvw0UtYnMwOls97vbO8FtXaNlbnNYlhg+nd/TWdq6kzmwCV+qbZhm9FiG2MLnsGI3+4F25Z0wEUwvXKy6YvbFtvVp9x4MlJyIjOGC3FH/7gYYih4BjOkcDT9OMMYI0A2Gbe3C+uOZcN/3+4W7E4jBN255LgZCwpD7uYgSMQrhmrnisRIoDsL6x/tbDQO1dIlckm/+bJfwekDulN0bRUD/ZlEwsFVtuKZZJGrGUEOgzbHjii5TFM8J8w/CD/ukA/1QXQssM+JuR9EEVz0mEQRYAyCCkpYyM4clW15aO8JkVjfh7cLpxazZAzF4TjgyrRvaiacQrthFYvhZeH62+ngObMCz1a2o2juMlrSeHiK3HjLzuFZR0BuDwHRAVX3zOsHQABdAOm8nAYCJEZBBYCAmD6IEQutQEBChUoxksxtV9NeM1eeJUFVbzTFHAIUgplDEIkSeFD/tS4UJvRuJFL+izBfbzggzf7qZAir9cTrH+u+dDWC1cyE7hAH4XtK72R01bLWQq2h5HelY41FM7auF+eMpyEZzQck9zPyvmOIqL/CqWSU8+n/0f2HVDRZV+Q1rkhK2yIBsOboHyqTJPYiBdJZjAp6lR7JgI6rzSvFl9XSiM+KdmEq5AVrMU7hgJmMRENUAjEYNwE9epgEgJE9iuOnhH28XThCF58vwt8ejoW5Dcd992RnLSimDxe+lgSroqtgebVaWPtxHthlr+eEYHVH0GESkgfro1TKkTRTciJuXYW3rWjVwIvdRmZeWnYAZ606LFq9Y7oiltOxqeOuGrIoX+btzBFyny3Letk+UsGz65rjp2nspFdkomQHTOdii+PMQ1zoKGqGVuT3KLSmHJYcz4Z1NZ+DxxUeBDAlXHMuCU5gJT9TP2V697nSNMqGRn/sAPH9kMh6B/1t1SqhSygVwezexYylKBVzmIUrYKLQByUMr2N1nxYzvCKyc1HJo2xszV7pIHg0J94Mi9ArIOCcWDjuzsBQm9GlsdRkVmswKhV5BQ0gjNYNkvBePibp+TjgPb248g5uRTGsWTrIloDDfJEDZo6n4HL6+JtHeT86unccM33HwxrBkZwX59ysRsD8bV5bjKzoRQPfA19A98CXZamqH+MOyB7tDH1R7E53BSGAUZe+XhAzYgGf5erO0yfZHS/koHMOYTvVRmKljPZ8nl69HUWARpTBcPChRELnbMRmLgKgGwOg4AMaOQl9tueRuhm6B5B4oSoPurAstukrF/BKt2lqOohD+iG6BpYKhiL+d0A2ubSl/NNFj1ia0+hcft9QgKhUmbd5wTBM+qkM96/EmaTmJiPmLCqKVqixAX/8h6Ou/rdJ1/lMQASm1tGCdXMwOApYZg/5tmrwWD/XVf9j52eElyoo35NM9cEePGNylYPAdjLRHZ2XuSmRZb2P23dAYrxHmgQ++FKXO1ucO0aHw5c4Ua0Ah27WqPvNRCzB56Qn4VjBdcFV18W+MQGUEyAvk2biW8NLv4qFmdyzNscYF8NeQ0KZy+/b+Dq5lsnockM2BCBWQL68G6ouxFlYcPq/hTvlbKObDt7tTrf9oTRjSpo7Vdudn1HRqoFLcvd7GzF8DchVuYQGgAhiu/aqolpApj5iKBpBBIFqqihMxwM/+EI9cJl6zvpIU9OZmTGs8GA2pejQMgxboO0xWws6I/JZnjmgNgz/b46zo5d/n7U2Fh/o0hIEtfe8owHYUTBYdJPyR/Gf9h/+zWXlcLoPXUOECLuJLl+fD276M6x4Lc3eeg4OpYkFn8rNR1b0hF7oPFrbvFYasHM9P4jfmwf51ucL3aFXjP3xNU1iNgZiq+8iwGO2Tfj8k7u1QCQgzRuK42zwjbmml6/ynJAIsAEgCpqv4lCkWy8Sd9yhROeH4AN+kq65qvpkk9lGoxr+hXT3o1SgcmkcFQxi6/2g9Q7oeLYbJy2EZnhGKEDG+Z34/CtvRIJBcJT2BiCnbmDZ9Wv++dO3id9Xu71jEyuBtTF12rGQsiRGEmSQQoGdq6o1tYdyc3cIatv3r8qB1z1oQFmXcMnrmUBFs+y0H8rLEYgHYhtisjrbjiB7o0vfy8NYwBYMKaRUibH2opk+Mtg4Po6//gmpqz6ubMe7J9WqYDBwcZg9Up/w2zlQcugyZ2gADaza0KlLlT+jVEIagESKp8ilgjtF8dwZqAVai0aLo7oNCgn62PRke7q/N5UkvQMSQ0TbTyrTp0/odJ/HP73/+rpV56+0j368dgd5NIuHGDtGw5GC6UCW0U9+5/AJcf7s2d92KjWQml8IfyPhTT8mH2w5E4bxlXW0CAPXhHjQg7INj/xY1ID8fSMN0wza9UsUeusl3RX3ePH3I527SG4/vhmdspTweZjsD+NfyJqYyv2NoFusWlm1d0H93Qs9YGITBPShSHoW9rQ6a+NNh+GKHuAEv+fzHP9vPoWeElj7bGDiFRb74/SJTtzH8i4z+4q5cS/3VfU89TOgSKjh9bAT419lJzi2GIR9sRyYoeKaOK+iIidEQ00Lba1xSaIE9qy9glEGMxKlRarwJMzW+f0unvw5E4C8S6CPxrCgMt4E2RkBdSCsowwyfebA4IR1+2JtmDcsrUJ3Li2DXdqgzBvd1eUM+1IBt3n1oyG401EmrBuF5+ErskeBybVzfyRDvDgwhSj67nTCoDqnza4JSMEJhx9mYmAVdGkWJoiTOv1MsKh3ViQuHNd/BRQavgo3RU5gEYu70uzcRCwD6ZvONtafg/Y2JwpXUaxwAox5t4NDFzV5FFnzwDm7Jh72rc4ECDOmh7+7uDle3iJKqgpg/Zf6jDIBVEQkEmWiIvA9tI35FY71vd6dIJVGqqm6p3xT1nCXYrz1MGSRmpCFVue8WZgGgpud+8urr8B1cjd1w6XEMndlP7NfIGqCjXf1QIWO96oLmjQ1J1jwIMu39ck9XGNVRPEVrFmZZyxeXMWS64nZlWQDQNyW0+x/y4XZIRpdbURpwax1oQ7EBBCj5eLFV3Z+dpt/9jrIlfnybuDBs657MM2K7x/aZjW6DlBKctANz96RBqVmfAGOr19Gnqipn1JyI9vBp70JHZfi6NgRYANCGm7F3PbP8apO//zrUwxmT8Bx7R3nk7+zeAO5E98EejcKs4XKN7bRxtZXjNqP3uzvggKAFNrXcBNPFxj/TDzUXYsoT2smkFl/c/RvXc/esSWZx5yMA+3P4y4FUePrnQ/Z/tHOVgvfc+lwsBOCu2hHlpJcBZRU8d1RcsHBUF11viLkuFj3QE9NQyx0/UJjeRiGO+1lVm5V/I+NcyiRKScU+R/ucVcezhI0oK9dl729VVc+oZaHt4K2ri+z9ztf0IWDMU6CvD3w3IfDcqqtMfqb1qJDWJASQSm94m7pwT+9YGNA8EmIwaI4nTe4azEw49HNxt0CC7Mlrm8CbI9vQVyGiHAlpKAR4O7EAoH+GibHd+tVuqQiBXQdGQO8br3QLLMFgPntX5cKhbXlgETQtcDYCCqoz/94e0EKD8V8Iysz1qxBUnLVd1e9mBO5kZpE1QunHfyTrCjOsKpCoppo6wJxBxkhMVXXcR39zcgLko6jUxLBnD9mKbjjX4oG0Jr0g7XAD8UBvdKd6EOthzJ/gppDHY7uIhZq1Tc97m89KpQyljGURmsQrW4v86SsIUMTaqTe2Qc8XcTE6flMeXMj48/XF3Ssc310Ii95IhYTNxjH/a1rUgV//3lsT86f5Ex+R/Gz7IV5t6oXCSIz2lyMRWbFySyqoJ9UTMe2Y+VdGxti/WQAwFk99tc0cvN0SYLoa31CxIOCVWluM8bf7vb8TLmBoU0+kN0e2BooZLkrkt3z/wkNAgZJEiayea8jeUbSLXM5NEOiMnjFjusYI94YM+3YsuRi5L+VECSx+Jw02LMiEonzx57OqxmJQ1f/WmA5AYX9l1f4V63V1noZNeBzQ9a0/IL1A0zKGeyDliJpduz0s7KStgoqD5e9VIsACQJXw1MCPrw3aaVEtvbFlTWde+1Pyof2srXA6p2a0ZuRCXIDyBxnd0Zn7+RJxlXsTPNP8z+DmUqBT4qN/Lz8pfA/tfkhFbnRMA+EOcEGPQmDS4JbWlLeinU46iOrvT8/D0s/SISv1T22A6P32ylF0zccGNIfVj/aD0V1i0NvAXinxa/SO0nGYK2geGgYO+mQ3UKQ/LYQ7/73qyYxOaPBnDHhaOuFD97AA4I6TPWPoAUuJqSNqAsRjgVYYRzr68ZJr3fYzmm6vUFPVX8mFjjK/5eCWIh0Z/dkiFVKQ6WdesrgvxTWgCH+nMqL0zICmaLQYLlrcWu6DLWdhHSYYEiV/XECjOFauKFw+XY7O2h+5tpkUBqknjRO+49rWg5X/7AvPDmohpR1z1uFMfF/p2NBIemX1KZgw/6DmetHaf5s6Y0gPWDhOYsUwcgS+VxcLAO46528PSrQoJa3xHdUUMJsk8Gs+3AmLDmhKtHEFKrRYFONrmYtyeQYuHueQ2dM/+k7X6DdHC0o2CgSiaw2Fsf1kbHugT1Gio4CHfjwsdRRQC50uKQAKEyPgDIG/X9VE83m7s7od/d4xJgzm3dMDvri9CzSJCnFUTPN1ioVBQrsRQf/Ii2f89/EwZeUp7I/om/7XruPb/rM6M+6qv17lv1yNAAsArkZYT/3TRpxXQzJbkB+slmqIId/23QF46rdjul1zSGVI6nza7dOOnnb/okRlL0gcPFKugSeuaSJavbUcHQU88at4imG6KSqQ7QGkQPbRwgF+JngBjwKqg6JCAuC/GJv/14d6Q//mrk18hXKz7qOwLDT06/b2dvhxv1j4ZHsYIvP/yjxj8Fh7v/E11yLAAoBr8dVf+5Rx+eqpDNQEqHLcrULL720+g5n3dusK6UmuQ+Q7rNWALg+1BDK7janDWmB8c7mdz9eYYpjOIEWJdAxsDyCKlm+XG9a+PgxoWcdlIPijc/59/RrD+if6w/39mrg84VUEar9i8X2mmABaaR/aG7WasRUOpxdorQJMqjoLmf8DmivgG3UhwAKALviq6eaF40oxBnYH9Iv9Q2uL60/mQJuZ2+B0tvbzSdLKxwQruHOW7wUpDLIltAAUyOij0e2kDZ4e+eUIJEqMkewB6qImgIkRcIbAS8NaSR1NOavP9vsgjN+x/OG+mJWvDYRjrgtXEr3DDfAdrq3zmZ+3Lw36YPAumRDelcZFS8Lz5TOHTKp0nf+sRgRYAKhGsPU1pVjU6YP74/v7o9Z6UvNKoB16CCw/mqW1Cut94cg1G2rYPZCdgIxB4JA2deAfGL5YhnLRBfJ2PI8skzijIO1GbTYKlIHZJ8u2jw6Df1zdzLCxUwY/OuP/8o6uurL5iXaIEkSRFo/iYWglOjaYvPQ4TJh3EI8BiYdrIosFlPssMwbP1nQ332QYAjoeBcP6wBVJIIDqstsUk/KexC1/KVqGhgEjvtoLr6w69Zfrsn/QzpmEAFlDOnIPdGQsaK8PMzFlsOxRwA70fvg/tEiWIQoQRIaBTIxAVQg8NbA5DGylL/1vRLA/TB7SEpY93AfIyt/VRPotOuqif/RdK2VjUqCe726H2euTsArNzL/EYlLiYEbcN1r7wfcZhwALAMZhWW01mafFPaGAZSI2qNXZFqagANDnvR2Qgy+1VqLFpA6qEulYQNRon5g/CQGiVAsDA30zvqP0mej0tadh6ZFM0Was5WgsWm0cpBriwh6LAJ3VfzSuEwxtJ8+4/fAluatXI1j7WH94GDUJZFzoagq6tOsXTQ/tqD87UahuMX0zUJwR7aResChlnWFa3HrtdfCdRiLg+ifQyN5yXZcRMM8Y+pnFYr4OJfGSyxclv+zGjF4tZ2wB+tRDxDRJtSiqDaBjAJmjgKuaRgLFB5Ahcg2cMD8BTqJ3gCiRQEMx0vUYRom2xeU8F4EQtE/5ZFwXmHpDG4jE3bwIXYsGhL9h+N5Xb2oLdUJdH4+anuV6mCOIUv6KCueOxvEOhtzujy7FeSX44mokjO53yqIGN4HpNxzXWAXf5gIE6Dlh8mQEnl7V0hRg2gWKqtlniBaIt0a2hceuaawbCbL0T0N3QWdqfmKysRKagxKMa9AXwxzHS2QMpMFQUKFN/+wFwRhNTZRExyBaX3WXI1Wv6I6PswHqm5380nL4aW8qLD2UAQdScqGwQljqpui/T54Dt3TDjJyNI/Q1JHE32bSQYatexk8GfmO/OQBrT4gH2bLXTQXUlXh0ORyzEIir/uxVxNcMR4AFAMMhrYEKp/wWqhSF7sLJbK+n9UGt68Av93QRTrFbVVu5aPGfg65/VRGductY4CekFUB/FAIKMV+7DN3VMwa+GddR5hZrqNR0jGroiSsWCwBSU21YYTNKvTlohFpSbobawQGGRu4T6SQt5jT3JADopT3JeTDs871Afv6aCV8eE6hvoqX/s5rr4BtdioD4tsil3eDKdSEwZVQhuQlijPB5eupZi7m8m76+GbYlXUxooqeuCLSqJyPBqozrKWcAhQoWpU4NasFbo8TT/9rq/W53Knzyxznbn0KfZCldFxdTJkZAFAE646+L6v2GEcHVzvzp+K1xqH7mT4b9r65OtLr46WT+ZotFvZuZv+jTUzPlWACoGdxd0qp5+uA7QVUm4bZV88aVMgle8+EueOTnI1KudPYGRJ4CFGyEziIdsVJZr4CH+jaE27s3sNdcldeeWHwU1hyXU2WSGp2iBTIxAu6KgPUdw6M0MmDV+6Sm5ZdaDYNfXnlS+wJCQCmQb1GUXjB7yFx3xY37dREBFgC87EmwzIybZVGVkWgcqCuVJu2Y28/eCscyxY3oHEEZigf+tDuxZyRoRlFFJkAQtfHxmPbWnOOO2rN3neKVj8P4AEczCu397PBaOO6sOEaAQ3i84geyRwlGYY/+eYoBKDH7OhiQy6plM2AVX7AvHZpP2wKk+tdDuPc4ZYGipujmt09PPXxv9SBgwKNTPR3lViQQmBW3xBIS3AJ5q5zeu1ITFFGv0xtb4WNJ9Xmlaqx/XlywLh4LVHa1o6MA+idK4ejbRK6BAZKrdTaeZ9789X4gf2YZikCjbfrH5F0I0ONDZ+bkwRKNn/SPvru7J0gtFFQuCtT0Vukjsuwf++1+uGNePJSatXkV23qAvVmkhmxqDdNHyqnabBXwZ7UjwAJAtUNeTQ1OuTZZDdnYFF/K3/S0SGvCo3gcMBBzfJOKUC+RypLiBtTD3UvF5YuOAihDmSj1bRIBb45sI1r8crmj5wth3HdykQLpZtICkDaAyTsQoOeQQuLa85YgIzp6RiXlS5cDQ4Iz7fjJNqXiu6O1YToSazZtMyxO0JRwtGKz5RYTPICW/rfAlCn6pIiKtfJ3lyPAAoDLIa7BBvBlxJfyb2gceD/2Qm7bW6nbm07lWBeL97acrfSLtj9DcQWmXYwtrwDxfkotLCEDwCNXNYb7e8dKd2ANGjveu4Dylsu0dtEegIUAabjd7gYb86dPR0TMn87V3YGoL6SdIKGkqj6L9pW8aP6x6DAMRSt/svnRSRl45IjBfQZ/pbMevr0GEGABoAZAr+4m0ThwjqXc1AXb1SXqU3z9pzDlbi9MApKUoz2pkG38tLxSXoEmKAiEo4q9FPcOMmmDqZ73MWFQr8bhtiqFP3/AZCYvLTspXN5WkIwC+TjAhobnfQbgikc7f5HdPWkCRMq5CgV6P8iAlo4lyD7BCFqC0TEbvbYZPt+ejNXJCcCV20f//g2W7MiGMDPuSOXf+G/PQIAFAM+YJ/29fGPQYUuIKRaVh//TW9leNBRqjWlAp687Lb2Lttc2LXRRqGJvjAsdxvsBShokShTg58cJXaBeLflD+lnrT8Pbm86INnW5HB0HsGHgZTg85gup0GknLcPUK9urVNdgI/FxJg0ZGdAaQbTTHzc3HkbN2QeUMEsXYRxyMJleNM8YMhA+7a0jUICuXvDNBiDAAoABIHpMFVMGlZtnxI3E1/d5lP51ndVRJrB/LTsBXd/eLm1Z7wgvilxGRlkUtM9ZJMGKdTStHQzf39FJU6rW5/93HOajNkCWSAvALoKyqNVcedpByzL/muhtBNqZNEFBOBKFTGNYP8APaOFPu/6f4tP1bvrp/hyL2dzLMm3Q9JrAh9s0FgEWAIzF0yNqs8waPNsC5T1xhZHnfJVGeAij83V8Yxv8/adDkF8hDGqlYlJ/0jmnbBjTwRjF8AM8DpAlsgO454eD8OMBXBwliewBSGAxaqGWbJ6LCyJAhn5k2S/7TFH1FBa6OogEStKA1SZ/foMeqBPowtsPI2feiRb+RZLRM+2NGXu22hJqioVZw/ba+52veR4CLAB43pwZ0+MZN+yzBJsaK4ryg94KyZbuyx0p0OS1TTBnZ4re6jTfT0GCnrimifT9FMKVhIBlktkDqSFiLtF4pqyFuUh3lG+QRkCPkHYBjVLWnsiCL7edgbk7z0FCqj4feXudpx2/lfHjjt+oZ6gIpZbJS09Y43jsPJtrr1nJa2opMv97UXs4BKYM0m/8I9k6F3cdAgbJmq7rINdcDQi8tHK4yeL3I6hqmBGt9UEXvXmokm9RJ8SI6qTqIGY++tsDsASTs8hSMFqI/XZvN4hrHSV7q3WneB69GGRcGaUbEbyBtBL23Nvs3e7NyYDIit9e8Cl7OFS+tvJYFjz002E4W8nYtX/zKHhjdHtruN/K98j8TWf8ZABrFNO3tb3rok4VAAAVK0lEQVT44Hl48MfDQDEvjCDM4ndYLbZcD+8M0a0tNKI/XIexCLAGwFg8PbO214cut2RFNEApf5URA9iBucPbztoKz/x+TDpxj972KR47CR/dGsrLMsW4c7r5m/2wAV0eZYmsy8lNy4hELLJtc/m/IkBMlc77tTL/7/akwciv9l3B/KmVbYnZcNtXeyCzQD4mBi22FL2PvF7ojN9I5k8RLq/6YKc1e59BzN+C5/1T1BlxHZj5//X58qa/WADwptnUM5ZPexeiim+oolgeREsf+dWtUttkxPcOWtjHvroJvkCXI1mf+0rVSf0ZFugHv+JOvnFksNR9VJjSuY74ch/QDlCWaEGns2Z2E5RFzrjyNkFMq9vcF3iUdf/Cg+iN4thFLvlCMcxcc0q402TIXx/d+WzR+4xUu1LCHtrxkx3OdhS8jSBVgSRLmdrBMnPwVCPq4zrcFwEWANx3bmqkZ+bpQ7+0KMUxaBuwzYgO5GOo0YkYdKQVug2uwfPU6qLGkUGw/KHuUFeDeyAZTFHI4MUJ5zV1l1wESQ1v5A5PU0d87CZKL60nWM6HW89hgJxDQMdIzuj3hDQoJZ/VKij4klaI/PhDDHLnszVHMTnex6BclL1zzs5kPL2z/aLrE3k/fKYGb2wBbw45qqsmvtkjEDBSGPWIAXMnxREwvbjqCbAos/AOVFwaQz0bRcBX4zpAZ0ztWx20A42gBn+6Bwo0eCj4IwefM64j3KEh+yCNjewBKLohBTiqTvI1GwBaxMglU6vKn+Zm9oYkeGHpcSlGuvrRftCybugVU0saIDrfN5jnX27nFxRMJ6J9QqZB5/zWihU1xWL2GwGzBrGF/2Wkvf8LawC8f441j9Aybci7ltKQWHRLWqMzaNjlPuw+lwvd3/4DxmM8/nO5JZevu+pLn8YR8PM9XSCIggtIEqmByTvgI9wZaiFyZ6Socxw+WAt6YveQyp8w1sr8aef8/JITMHmJHPOn3lEQKhtRP0jNT+f7pAFyBfNfiyGsO6Gq/xY0cjWQ+WPYLfVNS/Cmxsz8bbPpO5+sAfCdudY30hdWjzGp8DVWIh9310HLpCK/q0cszBzRCqLDDFMy2G2N/PzvnJcgpN61V8Gkgc3g9RtaafbRLsJllhIeUfpjV5OvaABop60nYA6p0e//8RDM25MqPSWxEUGw+cmr0W8fUPhwDcO3dWrL6Qvw+OIjsDc533bJkE98FBPUENMN6Np31pAKuRKPQ+BPEdbjus4drlYEpg/+GeN+10We/Rm2awgbo6PWb3enQGM8x3wQF+J0A7INOsLk1i7RMOe2DkBeAlpoJoYNvmt+ApQ4Ofd1VDd5B8TiTpXOqZn0IUCaFbLyp522ttkEa9CqEWjpr4X5U++fvKYxNKt10ZrfFbt9amN/aj7E4fHVgI93Gc38ixTF9Hd1xuDOzPwJad8lre+P7yLGIweYvLIL7nkWYzKQFkbC4W8ywWNXN4L/DG4BtUNcwym/w93e/QvFDL3sje26FlGwCI8UonT0j7QB2ZLpj+31xdE1b9YA6N31E2aUyOpvaOR5IEXbjnpkh3rWYyWTUSH7Kk3kPuzX078dhfXkjmqIqG1rQFEVRf3RHGy6hwP62DDx7U8WAHx7/nWNHoPITFRV9R2sRN7froqW/XBhvb1HA5iGKvdGqGo1mhbsT4MJ8w9qPg5oVTcEhYCuugwZaV2nzId5GK/F0DUe6/VGAYCS8lBgH73JebYkXYBbvjmgWds0on1dWIjJpyqe/xv1fO46mwfPoS3ChlPZxj8UoCZj2t4xMHPwdqP6y/V4PgIsAHj+HNbsCF7YGOUHZd9jaqHhgBsMIztD2vpbujTAs/eW0NLgqILf7Eqx+k9rjU8QFuQH36CHwM2d6usaMsWaz0ZBQCYDorMGvUkAIPU6qfqNODqhcNWP4lm6M/c9R/je1jUavh3fCQIM1vkvOZIBk/53Ag6lFzhqWs91srSdYpkRNwPwBdVTEd/rfQgYumB7Hzw8ImEEnlvV1WRSvsND2c7C9wgWpIeUwvPOvqkNdI2Vj/DnqBnSBNz7wyEoNWvz0yMN8L/jWsDLQ1poNg609Y0EgBwUBIxwGfQGAYDmPAIZP6n89S5SNL9P/X4cPtmq3dZtQs8Y+PJW7TYktnm2fVKsgQX7060ZNU9XCjdsK6Pz04LsfpEZgh6Amdcan8RAZ+f4dvdAQO+75R6j4F64DwKTV99oUtQvQFViXdGptvVCYcqwFnBr52jNBn0V+7XiaBbcOveApjgBtnqGt62L8QI6GOLJUEiCgE77AE8WAGhBCkemH4GWfhrtNW3TYv1MzC6G2+bGA7mfaqWJ/Rphpsm22B/9y2VuSTl8tTMVXsNIgpkFxsTrv3Jc6gFLQOkYeHXEiSt/4yuMwJ8I6H+i/6yLvzECFxGYMsVkKh74PFgsL+P2zSUZgaJCAuBRNBh8ErP/1QlFjqGDKFjQTRj+V49vdX10Y6QjgWFt6+joyZ+3kiCQq1Ej4IkCAC1E5MtPu36jNOy/Hsywuvnl6AiYQ+6f025s9efEaPx2DGP1v7omEebvTasyzLDG6q23qYp6RlVMd8C0uM166uF7fQcBFgB8Z66rf6RPbwnxCyx8HzOK3YuNoyOc8eSPu7IxXeujGr4ldKh/ZVQ20Rb3o+X1iC/3Qkqe9jQItEN8YVAz65EARRE0guhoIBdDCsrYCHiSAEAufeRHT8zfIMisCagmYXCfj7edlYrsV3G+yF30w9HtgFJMayWyL/n9cCZMWXEK9lEqYVedwCuA6g3lRcv0uA+19pXv800EjFmlfBM7HrUoAk9tiPULKv0KBYFheIvLnrkWUcHw9HXN4L5eMVALEwLJUjJGJqQcALvP6Tsy7YfpkL/AmAMdoo0Ld0xhhfPxf/nlgImVqh6ZJwgAFBehFjJ+0bTFVY/4z18pIc79Cw7C4fOFf16U/EYW/t+M74gGqNGSd14sTs/RB2hvQBEkLxTjhLmOSkAxzbYEwxR063NpQ64bAtdckwi4bDGuyUFx226KwAvLWvup/p+qYLoet0Mue/YC/EwwulM9eB7Vt70ayQUuzMPkRXfOi4cluHPTQ8REpg5rCU9f28QQWwVbX4j3UxyBQhQG6NOeLOCuAgCFy62F+n2y6DdKzW/DhaL6vbL6FMxYd1qXij0mPBB+ursr9G8aYata6JOM+lZhqN7X1pyGLYk5dudFqCKxQiX4+nxgKQv+N7x1dZHYLVyKEbgSAZctwlc2xVcYgUsIPL+5lZ+p+BPUCMS5UhCg1igr4OMYte3BPo2Eg/fQYv7M78es2db0zhkxks/RetxIbYCtT6QJICGgCJlfMToy2DQD7iQAkN9+KHJ72vGTAOAK2oQM95Gfj0BCmj43OhIWKb4DPTOidBBd997ZdBa+xwBThZhF0qWkWNN0f24pCX2OGb9LkfaZylkA8JmpdsOB2jQCqnI9Hgy49Fmk6ns3CYNHr2oMt2JsgRABbkQqXBIEtLoJ2hAPRI3EU6gJ+Nfg5hCm4WjCVo+zzxIUAopRGAjC8+tgwRMQDObkrFrr76M6RcMvd4t5eOahdsKEeFMfjN7pV+xsdlG5NYPfFzv0p8Md360BCmrtITTAOXBnLhTDVxhTgNo9e8H1Ca1QSC5FlcIcS1noU8z4Kz4B/F0vAi5ddPV2ju/3EQReWNrcTw18Fze0N+GIXbRP/BNLMjYb0KK21YNgRPt6VQZ22YqR48ajG5kRmQtpZ0mxDCigjLuQKwQAV4+NjOvm7EyBfy0/qTmin62PZLg5dWgLeHFQ8ypjOeSgsEFxIz7+Ixn2pbjQoM/WMeunQur9jyylrOr/Cyz8h2EIsABgGJRckW4EJq9s6gd+H6pguRFtBV0uCFB/g9AQjfz4H+zdEIaiC5+9tMFpmKToju8TYP1JDNFqAA1qFQXTb2wNvRvL2ScY0PQVVYgKAGQQt+AuMQ3AFY0YeGE1nrM//7/jyIS1xfGv2BXKQDn39o4wuLV9101KTjVvXxrMwaiRB5ILcBNuz+KiYo2Gfc9DBcqbloKSafDeiOpQMRjWca7IsxBgAcCz5ss3ejt5ZaRJNb2KW7IHUf3pkjgC9oAk173+zSLhXvQiuAUDDUUGo7XaJSrHA/Z/LTsBb2xM0uxaZquLPimmDGUo/D80FKTgRjVFogIA9fWHGhQAyE3zJcR/6RF9xpk2nAe2rI3MvxM0rJRr4nhmEczF83zy1z+WQRvwamP61FQ6OstOswSZ3merfttM8acrEWABwJXoct36EKCAQoUDJqom5SVFVZvoq0zubrIZaFM/BCb0iIFxeD7cBhMAEVHkwPsXHoRUHfECKvaEhI77e8di/IDm0BzdGKub3F0AIMb/f2jd/0vCeUMEL1ushikYvpl8/Umw23r6Any3Jw0WHzyv+0hBev5IraCo+yx+pufg9bjV0vfzDYyADgRYANABHt9ajQi8sD7OD8qnq6rSG7dK1f7cRgT5w3W4a7wNd8L9UEsw6X/HgCLNGUUkCJAh2qTrm+nKMijbH3cVAHZiZrzp6xINY/yESzMUsL5Ajwz6/CUhA346kA67MEQwuRBWO6lQhlqgxeZSQMO+weeqvX1ukBFABKp9IWXUGQFdCExa0RDtBGajCHAr1qMvBrDGjtBL0yQyGJrUDoKd5/KhpNw49y86GiDDxGfQa2Bgy6gqDdM0dv8vt7mTAEC7cdrpv7vpDGzGXbmRdG2LSAwO5W/d7ee6NjiPs27n4I7/I3Tle4Ut+p1Bxb+7GgEWAFyNMNfvGgQwzLDJv3Aixo99HBto5ZpGarbWdhja+O8YivbeXrG68x04Gok7CADkVvftrlT4FC3s6buRRJak2nI9GtkLMCuKss1sskyF14esNLRmrowR0IEACwA6wONb3QSBZ1c38/NTp6qKQloB4+LvusnwKKrgWDx6uAOPCIa0iQKKK2AU1ZQAUFRmse72v0YL+9XHszGIUQ2o4Y0C0VE9ZNRnQje+YNNsNOrT77bgqB2+zghoRIAFAI3A8W1uiAAaDfqVXneraoYX0U6gG/bQ655vynw4ulN9GI+xBOiIIEBnpJ3qFAAoFS6FWP45/jwsQ2v+/FLjjk7c6GksxoduqVm1/AtmDj3kRv3irjACVyDgdQvkFSPkC76JALkSKn6PqKr6ED7kLb0RhPAgP4hDH/YbMH7BMIxloMWLwJUCAO3qyV9/7YlsWHksC+Mo5KC9hBso5I1+GC5a8scrYJptDlG+Zxc+owHm+lyFAAsArkKW63UfBF5c1dakwrOoEBiDTlf13adjxvakNboq9msaCZSNsC/mIOgeG+5UQ2CkAECZ7/ZgJsVd+G8bRlAkhp9ZWGbsIN2lNivTh0Og+H1uCS78AqaMwJS8TIyAZyHAAoBnzRf3Vi8CF/MPvIjO1yOxKveJyat3XHbuJ1uBNvVCoF39WtCxQag1IVGLOiEY/CYQomsFWqMeygoABai2p8iISdnFcAyD5hzLKMTUuwVwMK0QErOLHPrq0wm/Fyw26KegHsFxzLGYzR/A7OH6sg/ZmTO+xAhUJwJe8E5WJ1zcllchgKGH/VW/Zy2KeguOq5FXjU1gMDIW8hdzNdG218cIYwWh5LIfXQk+t4SYvkL1vrFuCj4GJw/XvRBgAcC95oN7U1MIPLc82uTn/zgyuFsUUNviftV5Wria6iu362oEClHg2Y5BGD43B59fCFPGlbq6Qa6fEagJBFgAqAnUuU33RuC2BX7Qqv4gP1DvQ0O26/ElaYgd5nfFvWdNT+9QtQ8pGIxxpbnc9AbMHhSvpzK+lxHwFAR4UfOUmeJ+1hwCj6wN84tQ70T99x2oBO+JHYmouc5wywYhkIW7/K2YfOcbc0bEz/Bpby+1VjQILa7GKxFgAcArp5UH5VIE/r2+jclsnqBYYBimLu6IygEWCFwKuM7KL1rsZyiYdEcF0xKLav4SZgw1Ntawzi7y7YxATSDAAkBNoM5tehcCU5ZEQFHAaD9QxlpA6Y07yxgMRMQ2BDU3y2Wo0j9tUtTNZgw4CKFZS/gcv+Ymg1t2XwRYAHDfueGeeSwCmKrohWW9TZaAMYoJrkeXw7Z4fBCFwzEuhq/HYmN4x8uR2Wcgs4/HoE+rMczQ97i7TzK8Fa6QEfBCBFgA8MJJ5SG5KQKT1nfwV8pGIcO6CjUFnTHzXwwKBpS7gN9DZ1OmoCOequariumsCSyHUJW/2RIc+BNMuZaZvTPs+HdGwAECvPA4AIYvMwLVgsCUtf5QXH6tv0WJQ6bWB7lcKxQMKFphGP7zr5Y+uEsjKBmhKFSCR/Z4Pm9KsTJ6RdlssSgrYWbcEXfpJveDEfAWBFgA8JaZ5HF4HwKPLwmC0KBemNC2l5+qdEbu2AYFhMbon14HYxWEg6oEIMP0oHdYRcUHFKuqkouf6SZQkxSLcqQcYB+YTTvgjUGHvW8SeUSMgPsi4EGLh/uCyD1jBGoMgae3hEBgblswBbUwWcwt0cigqaqaMMSxpY6fn1/dqBBTC+S6kaXlFv9ys6qWYmADCwW0tXYYdQ1gubQGOFoKLpbEHTnehN9R8qC7/FEKCfD3gwB/BTAnUWmZGdKzisuSkKlnY4kMRVVSyk3lSaD6n8KiRyB4fRJMmeKFmYBqbOa5YUaAEWAEGAFGgBFgBBgBRoARYAQYAUaAEWAEGAFGgBFgBBgBRoARYAQYAUaAEWAEGAFGgBFgBBgBRoARYAQYAUaAEWAEGAFGgBFgBBgBRoARYAQYAUaAEWAEGAFGgBFgBBgBRoARYAQYAUaAEWAEGAFGgBFgBBgBRoARYAQYAUaAEWAEGAFGgBFgBBgBRoARYAQYAUaAEWAEGAFGgBFgBBgBRoARYAQYAUaAEWAEGAFGgBFgBBgBRoARYAQYAUaAEWAEGAFGgBFgBBgBRoARYAQYAUaAEWAEGAFGgBFgBBgBRoARYAQYAUaAEWAEGAFGgBFgBBgBRoARYAQYAUaAEWAEGAFGgBFgBBgBRoARYAQYAUaAEWAEGAFGgBFgBBgBRoARYAQYAUaAEWAEGAFGgBFgBBgBRoARYAQYAUaAEWAEGAFGgBFgBBgBRoARYAQYAUaAEWAEGAFGgBFgBBgBRoARYAQYAUaAEWAEGAFGgBFgBBgBRoARYAQYAUaAEWAEGAFGgBFgBBgBRoARYAQYAUaAEWAEGAFGgBFgBBgBRoARYAQYAUaAEWAEGAFGgBFgBBgBRoARYAQYAUaAEWAEqgWB/wfescJNJvnQpgAAAABJRU5ErkJggg==;" vertex="1" parent="1">
          <mxGeometry x="540" y="345" width="80" height="80" as="geometry" />
        </mxCell>
        <mxCell id="zmiHmm3sUyLOldAqRDe1-11" style="edgeStyle=orthogonalEdgeStyle;rounded=0;orthogonalLoop=1;jettySize=auto;html=1;entryX=0.5;entryY=0;entryDx=0;entryDy=0;entryPerimeter=0;" edge="1" parent="1" source="zmiHmm3sUyLOldAqRDe1-5" target="zmiHmm3sUyLOldAqRDe1-1">
          <mxGeometry relative="1" as="geometry" />
        </mxCell>
        <mxCell id="zmiHmm3sUyLOldAqRDe1-13" value="News" style="text;html=1;align=center;verticalAlign=middle;resizable=0;points=[];autosize=1;strokeColor=none;fillColor=none;" vertex="1" parent="1">
          <mxGeometry x="205" y="208" width="50" height="30" as="geometry" />
        </mxCell>
        <mxCell id="zmiHmm3sUyLOldAqRDe1-14" value="Browser" style="text;html=1;align=center;verticalAlign=middle;resizable=0;points=[];autosize=1;strokeColor=none;fillColor=none;" vertex="1" parent="1">
          <mxGeometry x="625" y="218" width="70" height="30" as="geometry" />
        </mxCell>
        <mxCell id="zmiHmm3sUyLOldAqRDe1-15" value="Web UI" style="text;html=1;align=center;verticalAlign=middle;resizable=0;points=[];autosize=1;strokeColor=none;fillColor=none;" vertex="1" parent="1">
          <mxGeometry x="625" y="358" width="60" height="30" as="geometry" />
        </mxCell>
        <mxCell id="zmiHmm3sUyLOldAqRDe1-16" value="Cron Job" style="text;html=1;align=center;verticalAlign=middle;resizable=0;points=[];autosize=1;strokeColor=none;fillColor=none;" vertex="1" parent="1">
          <mxGeometry x="205" y="340" width="70" height="30" as="geometry" />
        </mxCell>
        <mxCell id="zmiHmm3sUyLOldAqRDe1-17" value="gRPC Service" style="text;html=1;align=center;verticalAlign=middle;resizable=0;points=[];autosize=1;strokeColor=none;fillColor=none;" vertex="1" parent="1">
          <mxGeometry x="408.5" y="340" width="100" height="30" as="geometry" />
        </mxCell>
        <mxCell id="zmiHmm3sUyLOldAqRDe1-18" value="MySQL Database" style="text;html=1;align=center;verticalAlign=middle;resizable=0;points=[];autosize=1;strokeColor=none;fillColor=none;" vertex="1" parent="1">
          <mxGeometry x="408.5" y="500" width="120" height="30" as="geometry" />
        </mxCell>
      </root>
    </mxGraphModel>
  </diagram>
</mxfile>
